%TF.GenerationSoftware,KiCad,Pcbnew,9.0.7*%
%TF.CreationDate,2026-02-25T19:31:38+11:00*%
%TF.ProjectId,vibe-board-reborne,76696265-2d62-46f6-9172-642d7265626f,rev?*%
%TF.SameCoordinates,PX39c773aPY7b6b445*%
%TF.FileFunction,AssemblyDrawing,Bot*%
%FSLAX46Y46*%
G04 Gerber Fmt 4.6, Leading zero omitted, Abs format (unit mm)*
G04 Created by KiCad (PCBNEW 9.0.7) date 2026-02-25 19:31:38*
%MOMM*%
%LPD*%
G01*
G04 APERTURE LIST*
%ADD10C,0.100000*%
%ADD11C,0.047222*%
%ADD12C,0.045861*%
G04 APERTURE END LIST*
D10*
%TO.C,H2*%
X6014214Y3414213D02*
G75*
G02*
X2814214Y3414213I-1600000J0D01*
G01*
X2814214Y3414213D02*
G75*
G02*
X6014214Y3414213I1600000J0D01*
G01*
%TD*%
%TO.C,H3*%
X46014214Y3414213D02*
G75*
G02*
X42814214Y3414213I-1600000J0D01*
G01*
X42814214Y3414213D02*
G75*
G02*
X46014214Y3414213I1600000J0D01*
G01*
%TD*%
D11*
X42812245Y55306328D02*
X42758277Y55333312D01*
X42758277Y55333312D02*
X42731293Y55360296D01*
X42731293Y55360296D02*
X42704309Y55414264D01*
X42704309Y55414264D02*
X42704309Y55441248D01*
X42704309Y55441248D02*
X42731293Y55495216D01*
X42731293Y55495216D02*
X42758277Y55522200D01*
X42758277Y55522200D02*
X42812245Y55549184D01*
X42812245Y55549184D02*
X42920182Y55549184D01*
X42920182Y55549184D02*
X42974150Y55522200D01*
X42974150Y55522200D02*
X43001134Y55495216D01*
X43001134Y55495216D02*
X43028118Y55441248D01*
X43028118Y55441248D02*
X43028118Y55414264D01*
X43028118Y55414264D02*
X43001134Y55360296D01*
X43001134Y55360296D02*
X42974150Y55333312D01*
X42974150Y55333312D02*
X42920182Y55306328D01*
X42920182Y55306328D02*
X42812245Y55306328D01*
X42812245Y55306328D02*
X42758277Y55279343D01*
X42758277Y55279343D02*
X42731293Y55252359D01*
X42731293Y55252359D02*
X42704309Y55198391D01*
X42704309Y55198391D02*
X42704309Y55090455D01*
X42704309Y55090455D02*
X42731293Y55036487D01*
X42731293Y55036487D02*
X42758277Y55009502D01*
X42758277Y55009502D02*
X42812245Y54982518D01*
X42812245Y54982518D02*
X42920182Y54982518D01*
X42920182Y54982518D02*
X42974150Y55009502D01*
X42974150Y55009502D02*
X43001134Y55036487D01*
X43001134Y55036487D02*
X43028118Y55090455D01*
X43028118Y55090455D02*
X43028118Y55198391D01*
X43028118Y55198391D02*
X43001134Y55252359D01*
X43001134Y55252359D02*
X42974150Y55279343D01*
X42974150Y55279343D02*
X42920182Y55306328D01*
D10*
%TO.C,J11*%
X43716214Y55242213D02*
G75*
G02*
X42016214Y55242213I-850000J0D01*
G01*
X42016214Y55242213D02*
G75*
G02*
X43716214Y55242213I850000J0D01*
G01*
D11*
X42677325Y53009184D02*
X43055102Y53009184D01*
X43055102Y53009184D02*
X42812245Y52442518D01*
D10*
X43716214Y52702213D02*
G75*
G02*
X42016214Y52702213I-850000J0D01*
G01*
X42016214Y52702213D02*
G75*
G02*
X43716214Y52702213I850000J0D01*
G01*
D11*
X42974150Y50469184D02*
X42866213Y50469184D01*
X42866213Y50469184D02*
X42812245Y50442200D01*
X42812245Y50442200D02*
X42785261Y50415216D01*
X42785261Y50415216D02*
X42731293Y50334264D01*
X42731293Y50334264D02*
X42704309Y50226328D01*
X42704309Y50226328D02*
X42704309Y50010455D01*
X42704309Y50010455D02*
X42731293Y49956487D01*
X42731293Y49956487D02*
X42758277Y49929502D01*
X42758277Y49929502D02*
X42812245Y49902518D01*
X42812245Y49902518D02*
X42920182Y49902518D01*
X42920182Y49902518D02*
X42974150Y49929502D01*
X42974150Y49929502D02*
X43001134Y49956487D01*
X43001134Y49956487D02*
X43028118Y50010455D01*
X43028118Y50010455D02*
X43028118Y50145375D01*
X43028118Y50145375D02*
X43001134Y50199343D01*
X43001134Y50199343D02*
X42974150Y50226328D01*
X42974150Y50226328D02*
X42920182Y50253312D01*
X42920182Y50253312D02*
X42812245Y50253312D01*
X42812245Y50253312D02*
X42758277Y50226328D01*
X42758277Y50226328D02*
X42731293Y50199343D01*
X42731293Y50199343D02*
X42704309Y50145375D01*
D10*
X43716214Y50162213D02*
G75*
G02*
X42016214Y50162213I-850000J0D01*
G01*
X42016214Y50162213D02*
G75*
G02*
X43716214Y50162213I850000J0D01*
G01*
D11*
X43001134Y47929184D02*
X42731293Y47929184D01*
X42731293Y47929184D02*
X42704309Y47659343D01*
X42704309Y47659343D02*
X42731293Y47686328D01*
X42731293Y47686328D02*
X42785261Y47713312D01*
X42785261Y47713312D02*
X42920182Y47713312D01*
X42920182Y47713312D02*
X42974150Y47686328D01*
X42974150Y47686328D02*
X43001134Y47659343D01*
X43001134Y47659343D02*
X43028118Y47605375D01*
X43028118Y47605375D02*
X43028118Y47470455D01*
X43028118Y47470455D02*
X43001134Y47416487D01*
X43001134Y47416487D02*
X42974150Y47389502D01*
X42974150Y47389502D02*
X42920182Y47362518D01*
X42920182Y47362518D02*
X42785261Y47362518D01*
X42785261Y47362518D02*
X42731293Y47389502D01*
X42731293Y47389502D02*
X42704309Y47416487D01*
D10*
X43716214Y47622213D02*
G75*
G02*
X42016214Y47622213I-850000J0D01*
G01*
X42016214Y47622213D02*
G75*
G02*
X43716214Y47622213I850000J0D01*
G01*
D11*
X42974150Y45200296D02*
X42974150Y44822518D01*
X42839229Y45416168D02*
X42704309Y45011407D01*
X42704309Y45011407D02*
X43055102Y45011407D01*
D10*
X43716214Y45082213D02*
G75*
G02*
X42016214Y45082213I-850000J0D01*
G01*
X42016214Y45082213D02*
G75*
G02*
X43716214Y45082213I850000J0D01*
G01*
D11*
X42677325Y42849184D02*
X43028118Y42849184D01*
X43028118Y42849184D02*
X42839229Y42633312D01*
X42839229Y42633312D02*
X42920182Y42633312D01*
X42920182Y42633312D02*
X42974150Y42606328D01*
X42974150Y42606328D02*
X43001134Y42579343D01*
X43001134Y42579343D02*
X43028118Y42525375D01*
X43028118Y42525375D02*
X43028118Y42390455D01*
X43028118Y42390455D02*
X43001134Y42336487D01*
X43001134Y42336487D02*
X42974150Y42309502D01*
X42974150Y42309502D02*
X42920182Y42282518D01*
X42920182Y42282518D02*
X42758277Y42282518D01*
X42758277Y42282518D02*
X42704309Y42309502D01*
X42704309Y42309502D02*
X42677325Y42336487D01*
D10*
X43716214Y42542213D02*
G75*
G02*
X42016214Y42542213I-850000J0D01*
G01*
X42016214Y42542213D02*
G75*
G02*
X43716214Y42542213I850000J0D01*
G01*
D11*
X42704309Y40255216D02*
X42731293Y40282200D01*
X42731293Y40282200D02*
X42785261Y40309184D01*
X42785261Y40309184D02*
X42920182Y40309184D01*
X42920182Y40309184D02*
X42974150Y40282200D01*
X42974150Y40282200D02*
X43001134Y40255216D01*
X43001134Y40255216D02*
X43028118Y40201248D01*
X43028118Y40201248D02*
X43028118Y40147280D01*
X43028118Y40147280D02*
X43001134Y40066328D01*
X43001134Y40066328D02*
X42677325Y39742518D01*
X42677325Y39742518D02*
X43028118Y39742518D01*
D10*
X43716214Y40002213D02*
G75*
G02*
X42016214Y40002213I-850000J0D01*
G01*
X42016214Y40002213D02*
G75*
G02*
X43716214Y40002213I850000J0D01*
G01*
D11*
X43028118Y37202518D02*
X42704309Y37202518D01*
X42866213Y37202518D02*
X42866213Y37769184D01*
X42866213Y37769184D02*
X42812245Y37688232D01*
X42812245Y37688232D02*
X42758277Y37634264D01*
X42758277Y37634264D02*
X42704309Y37607280D01*
D10*
X42016214Y38312213D02*
X42016214Y36612213D01*
X43716214Y36612213D01*
X43716214Y38312213D01*
X42016214Y38312213D01*
%TD*%
D11*
X46368245Y55306328D02*
X46314277Y55333312D01*
X46314277Y55333312D02*
X46287293Y55360296D01*
X46287293Y55360296D02*
X46260309Y55414264D01*
X46260309Y55414264D02*
X46260309Y55441248D01*
X46260309Y55441248D02*
X46287293Y55495216D01*
X46287293Y55495216D02*
X46314277Y55522200D01*
X46314277Y55522200D02*
X46368245Y55549184D01*
X46368245Y55549184D02*
X46476182Y55549184D01*
X46476182Y55549184D02*
X46530150Y55522200D01*
X46530150Y55522200D02*
X46557134Y55495216D01*
X46557134Y55495216D02*
X46584118Y55441248D01*
X46584118Y55441248D02*
X46584118Y55414264D01*
X46584118Y55414264D02*
X46557134Y55360296D01*
X46557134Y55360296D02*
X46530150Y55333312D01*
X46530150Y55333312D02*
X46476182Y55306328D01*
X46476182Y55306328D02*
X46368245Y55306328D01*
X46368245Y55306328D02*
X46314277Y55279343D01*
X46314277Y55279343D02*
X46287293Y55252359D01*
X46287293Y55252359D02*
X46260309Y55198391D01*
X46260309Y55198391D02*
X46260309Y55090455D01*
X46260309Y55090455D02*
X46287293Y55036487D01*
X46287293Y55036487D02*
X46314277Y55009502D01*
X46314277Y55009502D02*
X46368245Y54982518D01*
X46368245Y54982518D02*
X46476182Y54982518D01*
X46476182Y54982518D02*
X46530150Y55009502D01*
X46530150Y55009502D02*
X46557134Y55036487D01*
X46557134Y55036487D02*
X46584118Y55090455D01*
X46584118Y55090455D02*
X46584118Y55198391D01*
X46584118Y55198391D02*
X46557134Y55252359D01*
X46557134Y55252359D02*
X46530150Y55279343D01*
X46530150Y55279343D02*
X46476182Y55306328D01*
D10*
%TO.C,J4*%
X47272214Y55242213D02*
G75*
G02*
X45572214Y55242213I-850000J0D01*
G01*
X45572214Y55242213D02*
G75*
G02*
X47272214Y55242213I850000J0D01*
G01*
D11*
X46233325Y53009184D02*
X46611102Y53009184D01*
X46611102Y53009184D02*
X46368245Y52442518D01*
D10*
X47272214Y52702213D02*
G75*
G02*
X45572214Y52702213I-850000J0D01*
G01*
X45572214Y52702213D02*
G75*
G02*
X47272214Y52702213I850000J0D01*
G01*
D11*
X46530150Y50469184D02*
X46422213Y50469184D01*
X46422213Y50469184D02*
X46368245Y50442200D01*
X46368245Y50442200D02*
X46341261Y50415216D01*
X46341261Y50415216D02*
X46287293Y50334264D01*
X46287293Y50334264D02*
X46260309Y50226328D01*
X46260309Y50226328D02*
X46260309Y50010455D01*
X46260309Y50010455D02*
X46287293Y49956487D01*
X46287293Y49956487D02*
X46314277Y49929502D01*
X46314277Y49929502D02*
X46368245Y49902518D01*
X46368245Y49902518D02*
X46476182Y49902518D01*
X46476182Y49902518D02*
X46530150Y49929502D01*
X46530150Y49929502D02*
X46557134Y49956487D01*
X46557134Y49956487D02*
X46584118Y50010455D01*
X46584118Y50010455D02*
X46584118Y50145375D01*
X46584118Y50145375D02*
X46557134Y50199343D01*
X46557134Y50199343D02*
X46530150Y50226328D01*
X46530150Y50226328D02*
X46476182Y50253312D01*
X46476182Y50253312D02*
X46368245Y50253312D01*
X46368245Y50253312D02*
X46314277Y50226328D01*
X46314277Y50226328D02*
X46287293Y50199343D01*
X46287293Y50199343D02*
X46260309Y50145375D01*
D10*
X47272214Y50162213D02*
G75*
G02*
X45572214Y50162213I-850000J0D01*
G01*
X45572214Y50162213D02*
G75*
G02*
X47272214Y50162213I850000J0D01*
G01*
D11*
X46557134Y47929184D02*
X46287293Y47929184D01*
X46287293Y47929184D02*
X46260309Y47659343D01*
X46260309Y47659343D02*
X46287293Y47686328D01*
X46287293Y47686328D02*
X46341261Y47713312D01*
X46341261Y47713312D02*
X46476182Y47713312D01*
X46476182Y47713312D02*
X46530150Y47686328D01*
X46530150Y47686328D02*
X46557134Y47659343D01*
X46557134Y47659343D02*
X46584118Y47605375D01*
X46584118Y47605375D02*
X46584118Y47470455D01*
X46584118Y47470455D02*
X46557134Y47416487D01*
X46557134Y47416487D02*
X46530150Y47389502D01*
X46530150Y47389502D02*
X46476182Y47362518D01*
X46476182Y47362518D02*
X46341261Y47362518D01*
X46341261Y47362518D02*
X46287293Y47389502D01*
X46287293Y47389502D02*
X46260309Y47416487D01*
D10*
X47272214Y47622213D02*
G75*
G02*
X45572214Y47622213I-850000J0D01*
G01*
X45572214Y47622213D02*
G75*
G02*
X47272214Y47622213I850000J0D01*
G01*
D11*
X46530150Y45200296D02*
X46530150Y44822518D01*
X46395229Y45416168D02*
X46260309Y45011407D01*
X46260309Y45011407D02*
X46611102Y45011407D01*
D10*
X47272214Y45082213D02*
G75*
G02*
X45572214Y45082213I-850000J0D01*
G01*
X45572214Y45082213D02*
G75*
G02*
X47272214Y45082213I850000J0D01*
G01*
D11*
X46233325Y42849184D02*
X46584118Y42849184D01*
X46584118Y42849184D02*
X46395229Y42633312D01*
X46395229Y42633312D02*
X46476182Y42633312D01*
X46476182Y42633312D02*
X46530150Y42606328D01*
X46530150Y42606328D02*
X46557134Y42579343D01*
X46557134Y42579343D02*
X46584118Y42525375D01*
X46584118Y42525375D02*
X46584118Y42390455D01*
X46584118Y42390455D02*
X46557134Y42336487D01*
X46557134Y42336487D02*
X46530150Y42309502D01*
X46530150Y42309502D02*
X46476182Y42282518D01*
X46476182Y42282518D02*
X46314277Y42282518D01*
X46314277Y42282518D02*
X46260309Y42309502D01*
X46260309Y42309502D02*
X46233325Y42336487D01*
D10*
X47272214Y42542213D02*
G75*
G02*
X45572214Y42542213I-850000J0D01*
G01*
X45572214Y42542213D02*
G75*
G02*
X47272214Y42542213I850000J0D01*
G01*
D11*
X46260309Y40255216D02*
X46287293Y40282200D01*
X46287293Y40282200D02*
X46341261Y40309184D01*
X46341261Y40309184D02*
X46476182Y40309184D01*
X46476182Y40309184D02*
X46530150Y40282200D01*
X46530150Y40282200D02*
X46557134Y40255216D01*
X46557134Y40255216D02*
X46584118Y40201248D01*
X46584118Y40201248D02*
X46584118Y40147280D01*
X46584118Y40147280D02*
X46557134Y40066328D01*
X46557134Y40066328D02*
X46233325Y39742518D01*
X46233325Y39742518D02*
X46584118Y39742518D01*
D10*
X47272214Y40002213D02*
G75*
G02*
X45572214Y40002213I-850000J0D01*
G01*
X45572214Y40002213D02*
G75*
G02*
X47272214Y40002213I850000J0D01*
G01*
D11*
X46584118Y37202518D02*
X46260309Y37202518D01*
X46422213Y37202518D02*
X46422213Y37769184D01*
X46422213Y37769184D02*
X46368245Y37688232D01*
X46368245Y37688232D02*
X46314277Y37634264D01*
X46314277Y37634264D02*
X46260309Y37607280D01*
D10*
X45572214Y38312213D02*
X45572214Y36612213D01*
X47272214Y36612213D01*
X47272214Y38312213D01*
X45572214Y38312213D01*
%TD*%
%TO.C,H1*%
X26014214Y55858213D02*
G75*
G02*
X22814214Y55858213I-1600000J0D01*
G01*
X22814214Y55858213D02*
G75*
G02*
X26014214Y55858213I1600000J0D01*
G01*
%TD*%
D11*
X3124277Y8856518D02*
X3232213Y8856518D01*
X3232213Y8856518D02*
X3286182Y8883502D01*
X3286182Y8883502D02*
X3313166Y8910487D01*
X3313166Y8910487D02*
X3367134Y8991439D01*
X3367134Y8991439D02*
X3394118Y9099375D01*
X3394118Y9099375D02*
X3394118Y9315248D01*
X3394118Y9315248D02*
X3367134Y9369216D01*
X3367134Y9369216D02*
X3340150Y9396200D01*
X3340150Y9396200D02*
X3286182Y9423184D01*
X3286182Y9423184D02*
X3178245Y9423184D01*
X3178245Y9423184D02*
X3124277Y9396200D01*
X3124277Y9396200D02*
X3097293Y9369216D01*
X3097293Y9369216D02*
X3070309Y9315248D01*
X3070309Y9315248D02*
X3070309Y9180328D01*
X3070309Y9180328D02*
X3097293Y9126359D01*
X3097293Y9126359D02*
X3124277Y9099375D01*
X3124277Y9099375D02*
X3178245Y9072391D01*
X3178245Y9072391D02*
X3286182Y9072391D01*
X3286182Y9072391D02*
X3340150Y9099375D01*
X3340150Y9099375D02*
X3367134Y9126359D01*
X3367134Y9126359D02*
X3394118Y9180328D01*
D10*
%TO.C,J10*%
X4082214Y9116213D02*
G75*
G02*
X2382214Y9116213I-850000J0D01*
G01*
X2382214Y9116213D02*
G75*
G02*
X4082214Y9116213I850000J0D01*
G01*
D11*
X5718245Y9180328D02*
X5664277Y9207312D01*
X5664277Y9207312D02*
X5637293Y9234296D01*
X5637293Y9234296D02*
X5610309Y9288264D01*
X5610309Y9288264D02*
X5610309Y9315248D01*
X5610309Y9315248D02*
X5637293Y9369216D01*
X5637293Y9369216D02*
X5664277Y9396200D01*
X5664277Y9396200D02*
X5718245Y9423184D01*
X5718245Y9423184D02*
X5826182Y9423184D01*
X5826182Y9423184D02*
X5880150Y9396200D01*
X5880150Y9396200D02*
X5907134Y9369216D01*
X5907134Y9369216D02*
X5934118Y9315248D01*
X5934118Y9315248D02*
X5934118Y9288264D01*
X5934118Y9288264D02*
X5907134Y9234296D01*
X5907134Y9234296D02*
X5880150Y9207312D01*
X5880150Y9207312D02*
X5826182Y9180328D01*
X5826182Y9180328D02*
X5718245Y9180328D01*
X5718245Y9180328D02*
X5664277Y9153343D01*
X5664277Y9153343D02*
X5637293Y9126359D01*
X5637293Y9126359D02*
X5610309Y9072391D01*
X5610309Y9072391D02*
X5610309Y8964455D01*
X5610309Y8964455D02*
X5637293Y8910487D01*
X5637293Y8910487D02*
X5664277Y8883502D01*
X5664277Y8883502D02*
X5718245Y8856518D01*
X5718245Y8856518D02*
X5826182Y8856518D01*
X5826182Y8856518D02*
X5880150Y8883502D01*
X5880150Y8883502D02*
X5907134Y8910487D01*
X5907134Y8910487D02*
X5934118Y8964455D01*
X5934118Y8964455D02*
X5934118Y9072391D01*
X5934118Y9072391D02*
X5907134Y9126359D01*
X5907134Y9126359D02*
X5880150Y9153343D01*
X5880150Y9153343D02*
X5826182Y9180328D01*
D10*
X6622214Y9116213D02*
G75*
G02*
X4922214Y9116213I-850000J0D01*
G01*
X4922214Y9116213D02*
G75*
G02*
X6622214Y9116213I850000J0D01*
G01*
D11*
X8123325Y9423184D02*
X8501102Y9423184D01*
X8501102Y9423184D02*
X8258245Y8856518D01*
D10*
X9162214Y9116213D02*
G75*
G02*
X7462214Y9116213I-850000J0D01*
G01*
X7462214Y9116213D02*
G75*
G02*
X9162214Y9116213I850000J0D01*
G01*
D11*
X10960150Y9423184D02*
X10852213Y9423184D01*
X10852213Y9423184D02*
X10798245Y9396200D01*
X10798245Y9396200D02*
X10771261Y9369216D01*
X10771261Y9369216D02*
X10717293Y9288264D01*
X10717293Y9288264D02*
X10690309Y9180328D01*
X10690309Y9180328D02*
X10690309Y8964455D01*
X10690309Y8964455D02*
X10717293Y8910487D01*
X10717293Y8910487D02*
X10744277Y8883502D01*
X10744277Y8883502D02*
X10798245Y8856518D01*
X10798245Y8856518D02*
X10906182Y8856518D01*
X10906182Y8856518D02*
X10960150Y8883502D01*
X10960150Y8883502D02*
X10987134Y8910487D01*
X10987134Y8910487D02*
X11014118Y8964455D01*
X11014118Y8964455D02*
X11014118Y9099375D01*
X11014118Y9099375D02*
X10987134Y9153343D01*
X10987134Y9153343D02*
X10960150Y9180328D01*
X10960150Y9180328D02*
X10906182Y9207312D01*
X10906182Y9207312D02*
X10798245Y9207312D01*
X10798245Y9207312D02*
X10744277Y9180328D01*
X10744277Y9180328D02*
X10717293Y9153343D01*
X10717293Y9153343D02*
X10690309Y9099375D01*
D10*
X11702214Y9116213D02*
G75*
G02*
X10002214Y9116213I-850000J0D01*
G01*
X10002214Y9116213D02*
G75*
G02*
X11702214Y9116213I850000J0D01*
G01*
D11*
X13527134Y9423184D02*
X13257293Y9423184D01*
X13257293Y9423184D02*
X13230309Y9153343D01*
X13230309Y9153343D02*
X13257293Y9180328D01*
X13257293Y9180328D02*
X13311261Y9207312D01*
X13311261Y9207312D02*
X13446182Y9207312D01*
X13446182Y9207312D02*
X13500150Y9180328D01*
X13500150Y9180328D02*
X13527134Y9153343D01*
X13527134Y9153343D02*
X13554118Y9099375D01*
X13554118Y9099375D02*
X13554118Y8964455D01*
X13554118Y8964455D02*
X13527134Y8910487D01*
X13527134Y8910487D02*
X13500150Y8883502D01*
X13500150Y8883502D02*
X13446182Y8856518D01*
X13446182Y8856518D02*
X13311261Y8856518D01*
X13311261Y8856518D02*
X13257293Y8883502D01*
X13257293Y8883502D02*
X13230309Y8910487D01*
D10*
X14242214Y9116213D02*
G75*
G02*
X12542214Y9116213I-850000J0D01*
G01*
X12542214Y9116213D02*
G75*
G02*
X14242214Y9116213I850000J0D01*
G01*
D11*
X16040150Y9234296D02*
X16040150Y8856518D01*
X15905229Y9450168D02*
X15770309Y9045407D01*
X15770309Y9045407D02*
X16121102Y9045407D01*
D10*
X16782214Y9116213D02*
G75*
G02*
X15082214Y9116213I-850000J0D01*
G01*
X15082214Y9116213D02*
G75*
G02*
X16782214Y9116213I850000J0D01*
G01*
D11*
X18283325Y9423184D02*
X18634118Y9423184D01*
X18634118Y9423184D02*
X18445229Y9207312D01*
X18445229Y9207312D02*
X18526182Y9207312D01*
X18526182Y9207312D02*
X18580150Y9180328D01*
X18580150Y9180328D02*
X18607134Y9153343D01*
X18607134Y9153343D02*
X18634118Y9099375D01*
X18634118Y9099375D02*
X18634118Y8964455D01*
X18634118Y8964455D02*
X18607134Y8910487D01*
X18607134Y8910487D02*
X18580150Y8883502D01*
X18580150Y8883502D02*
X18526182Y8856518D01*
X18526182Y8856518D02*
X18364277Y8856518D01*
X18364277Y8856518D02*
X18310309Y8883502D01*
X18310309Y8883502D02*
X18283325Y8910487D01*
D10*
X19322214Y9116213D02*
G75*
G02*
X17622214Y9116213I-850000J0D01*
G01*
X17622214Y9116213D02*
G75*
G02*
X19322214Y9116213I850000J0D01*
G01*
D11*
X20850309Y9369216D02*
X20877293Y9396200D01*
X20877293Y9396200D02*
X20931261Y9423184D01*
X20931261Y9423184D02*
X21066182Y9423184D01*
X21066182Y9423184D02*
X21120150Y9396200D01*
X21120150Y9396200D02*
X21147134Y9369216D01*
X21147134Y9369216D02*
X21174118Y9315248D01*
X21174118Y9315248D02*
X21174118Y9261280D01*
X21174118Y9261280D02*
X21147134Y9180328D01*
X21147134Y9180328D02*
X20823325Y8856518D01*
X20823325Y8856518D02*
X21174118Y8856518D01*
D10*
X21862214Y9116213D02*
G75*
G02*
X20162214Y9116213I-850000J0D01*
G01*
X20162214Y9116213D02*
G75*
G02*
X21862214Y9116213I850000J0D01*
G01*
D11*
X23714118Y8856518D02*
X23390309Y8856518D01*
X23552213Y8856518D02*
X23552213Y9423184D01*
X23552213Y9423184D02*
X23498245Y9342232D01*
X23498245Y9342232D02*
X23444277Y9288264D01*
X23444277Y9288264D02*
X23390309Y9261280D01*
D10*
X22702214Y9966213D02*
X22702214Y8266213D01*
X24402214Y8266213D01*
X24402214Y9966213D01*
X22702214Y9966213D01*
%TD*%
D11*
X3124277Y12412518D02*
X3232213Y12412518D01*
X3232213Y12412518D02*
X3286182Y12439502D01*
X3286182Y12439502D02*
X3313166Y12466487D01*
X3313166Y12466487D02*
X3367134Y12547439D01*
X3367134Y12547439D02*
X3394118Y12655375D01*
X3394118Y12655375D02*
X3394118Y12871248D01*
X3394118Y12871248D02*
X3367134Y12925216D01*
X3367134Y12925216D02*
X3340150Y12952200D01*
X3340150Y12952200D02*
X3286182Y12979184D01*
X3286182Y12979184D02*
X3178245Y12979184D01*
X3178245Y12979184D02*
X3124277Y12952200D01*
X3124277Y12952200D02*
X3097293Y12925216D01*
X3097293Y12925216D02*
X3070309Y12871248D01*
X3070309Y12871248D02*
X3070309Y12736328D01*
X3070309Y12736328D02*
X3097293Y12682359D01*
X3097293Y12682359D02*
X3124277Y12655375D01*
X3124277Y12655375D02*
X3178245Y12628391D01*
X3178245Y12628391D02*
X3286182Y12628391D01*
X3286182Y12628391D02*
X3340150Y12655375D01*
X3340150Y12655375D02*
X3367134Y12682359D01*
X3367134Y12682359D02*
X3394118Y12736328D01*
D10*
%TO.C,J3*%
X4082214Y12672213D02*
G75*
G02*
X2382214Y12672213I-850000J0D01*
G01*
X2382214Y12672213D02*
G75*
G02*
X4082214Y12672213I850000J0D01*
G01*
D11*
X5718245Y12736328D02*
X5664277Y12763312D01*
X5664277Y12763312D02*
X5637293Y12790296D01*
X5637293Y12790296D02*
X5610309Y12844264D01*
X5610309Y12844264D02*
X5610309Y12871248D01*
X5610309Y12871248D02*
X5637293Y12925216D01*
X5637293Y12925216D02*
X5664277Y12952200D01*
X5664277Y12952200D02*
X5718245Y12979184D01*
X5718245Y12979184D02*
X5826182Y12979184D01*
X5826182Y12979184D02*
X5880150Y12952200D01*
X5880150Y12952200D02*
X5907134Y12925216D01*
X5907134Y12925216D02*
X5934118Y12871248D01*
X5934118Y12871248D02*
X5934118Y12844264D01*
X5934118Y12844264D02*
X5907134Y12790296D01*
X5907134Y12790296D02*
X5880150Y12763312D01*
X5880150Y12763312D02*
X5826182Y12736328D01*
X5826182Y12736328D02*
X5718245Y12736328D01*
X5718245Y12736328D02*
X5664277Y12709343D01*
X5664277Y12709343D02*
X5637293Y12682359D01*
X5637293Y12682359D02*
X5610309Y12628391D01*
X5610309Y12628391D02*
X5610309Y12520455D01*
X5610309Y12520455D02*
X5637293Y12466487D01*
X5637293Y12466487D02*
X5664277Y12439502D01*
X5664277Y12439502D02*
X5718245Y12412518D01*
X5718245Y12412518D02*
X5826182Y12412518D01*
X5826182Y12412518D02*
X5880150Y12439502D01*
X5880150Y12439502D02*
X5907134Y12466487D01*
X5907134Y12466487D02*
X5934118Y12520455D01*
X5934118Y12520455D02*
X5934118Y12628391D01*
X5934118Y12628391D02*
X5907134Y12682359D01*
X5907134Y12682359D02*
X5880150Y12709343D01*
X5880150Y12709343D02*
X5826182Y12736328D01*
D10*
X6622214Y12672213D02*
G75*
G02*
X4922214Y12672213I-850000J0D01*
G01*
X4922214Y12672213D02*
G75*
G02*
X6622214Y12672213I850000J0D01*
G01*
D11*
X8123325Y12979184D02*
X8501102Y12979184D01*
X8501102Y12979184D02*
X8258245Y12412518D01*
D10*
X9162214Y12672213D02*
G75*
G02*
X7462214Y12672213I-850000J0D01*
G01*
X7462214Y12672213D02*
G75*
G02*
X9162214Y12672213I850000J0D01*
G01*
D11*
X10960150Y12979184D02*
X10852213Y12979184D01*
X10852213Y12979184D02*
X10798245Y12952200D01*
X10798245Y12952200D02*
X10771261Y12925216D01*
X10771261Y12925216D02*
X10717293Y12844264D01*
X10717293Y12844264D02*
X10690309Y12736328D01*
X10690309Y12736328D02*
X10690309Y12520455D01*
X10690309Y12520455D02*
X10717293Y12466487D01*
X10717293Y12466487D02*
X10744277Y12439502D01*
X10744277Y12439502D02*
X10798245Y12412518D01*
X10798245Y12412518D02*
X10906182Y12412518D01*
X10906182Y12412518D02*
X10960150Y12439502D01*
X10960150Y12439502D02*
X10987134Y12466487D01*
X10987134Y12466487D02*
X11014118Y12520455D01*
X11014118Y12520455D02*
X11014118Y12655375D01*
X11014118Y12655375D02*
X10987134Y12709343D01*
X10987134Y12709343D02*
X10960150Y12736328D01*
X10960150Y12736328D02*
X10906182Y12763312D01*
X10906182Y12763312D02*
X10798245Y12763312D01*
X10798245Y12763312D02*
X10744277Y12736328D01*
X10744277Y12736328D02*
X10717293Y12709343D01*
X10717293Y12709343D02*
X10690309Y12655375D01*
D10*
X11702214Y12672213D02*
G75*
G02*
X10002214Y12672213I-850000J0D01*
G01*
X10002214Y12672213D02*
G75*
G02*
X11702214Y12672213I850000J0D01*
G01*
D11*
X13527134Y12979184D02*
X13257293Y12979184D01*
X13257293Y12979184D02*
X13230309Y12709343D01*
X13230309Y12709343D02*
X13257293Y12736328D01*
X13257293Y12736328D02*
X13311261Y12763312D01*
X13311261Y12763312D02*
X13446182Y12763312D01*
X13446182Y12763312D02*
X13500150Y12736328D01*
X13500150Y12736328D02*
X13527134Y12709343D01*
X13527134Y12709343D02*
X13554118Y12655375D01*
X13554118Y12655375D02*
X13554118Y12520455D01*
X13554118Y12520455D02*
X13527134Y12466487D01*
X13527134Y12466487D02*
X13500150Y12439502D01*
X13500150Y12439502D02*
X13446182Y12412518D01*
X13446182Y12412518D02*
X13311261Y12412518D01*
X13311261Y12412518D02*
X13257293Y12439502D01*
X13257293Y12439502D02*
X13230309Y12466487D01*
D10*
X14242214Y12672213D02*
G75*
G02*
X12542214Y12672213I-850000J0D01*
G01*
X12542214Y12672213D02*
G75*
G02*
X14242214Y12672213I850000J0D01*
G01*
D11*
X16040150Y12790296D02*
X16040150Y12412518D01*
X15905229Y13006168D02*
X15770309Y12601407D01*
X15770309Y12601407D02*
X16121102Y12601407D01*
D10*
X16782214Y12672213D02*
G75*
G02*
X15082214Y12672213I-850000J0D01*
G01*
X15082214Y12672213D02*
G75*
G02*
X16782214Y12672213I850000J0D01*
G01*
D11*
X18283325Y12979184D02*
X18634118Y12979184D01*
X18634118Y12979184D02*
X18445229Y12763312D01*
X18445229Y12763312D02*
X18526182Y12763312D01*
X18526182Y12763312D02*
X18580150Y12736328D01*
X18580150Y12736328D02*
X18607134Y12709343D01*
X18607134Y12709343D02*
X18634118Y12655375D01*
X18634118Y12655375D02*
X18634118Y12520455D01*
X18634118Y12520455D02*
X18607134Y12466487D01*
X18607134Y12466487D02*
X18580150Y12439502D01*
X18580150Y12439502D02*
X18526182Y12412518D01*
X18526182Y12412518D02*
X18364277Y12412518D01*
X18364277Y12412518D02*
X18310309Y12439502D01*
X18310309Y12439502D02*
X18283325Y12466487D01*
D10*
X19322214Y12672213D02*
G75*
G02*
X17622214Y12672213I-850000J0D01*
G01*
X17622214Y12672213D02*
G75*
G02*
X19322214Y12672213I850000J0D01*
G01*
D11*
X20850309Y12925216D02*
X20877293Y12952200D01*
X20877293Y12952200D02*
X20931261Y12979184D01*
X20931261Y12979184D02*
X21066182Y12979184D01*
X21066182Y12979184D02*
X21120150Y12952200D01*
X21120150Y12952200D02*
X21147134Y12925216D01*
X21147134Y12925216D02*
X21174118Y12871248D01*
X21174118Y12871248D02*
X21174118Y12817280D01*
X21174118Y12817280D02*
X21147134Y12736328D01*
X21147134Y12736328D02*
X20823325Y12412518D01*
X20823325Y12412518D02*
X21174118Y12412518D01*
D10*
X21862214Y12672213D02*
G75*
G02*
X20162214Y12672213I-850000J0D01*
G01*
X20162214Y12672213D02*
G75*
G02*
X21862214Y12672213I850000J0D01*
G01*
D11*
X23714118Y12412518D02*
X23390309Y12412518D01*
X23552213Y12412518D02*
X23552213Y12979184D01*
X23552213Y12979184D02*
X23498245Y12898232D01*
X23498245Y12898232D02*
X23444277Y12844264D01*
X23444277Y12844264D02*
X23390309Y12817280D01*
D10*
X22702214Y13522213D02*
X22702214Y11822213D01*
X24402214Y11822213D01*
X24402214Y13522213D01*
X22702214Y13522213D01*
%TD*%
D11*
X30837134Y37769184D02*
X30567293Y37769184D01*
X30567293Y37769184D02*
X30540309Y37499343D01*
X30540309Y37499343D02*
X30567293Y37526328D01*
X30567293Y37526328D02*
X30621261Y37553312D01*
X30621261Y37553312D02*
X30756182Y37553312D01*
X30756182Y37553312D02*
X30810150Y37526328D01*
X30810150Y37526328D02*
X30837134Y37499343D01*
X30837134Y37499343D02*
X30864118Y37445375D01*
X30864118Y37445375D02*
X30864118Y37310455D01*
X30864118Y37310455D02*
X30837134Y37256487D01*
X30837134Y37256487D02*
X30810150Y37229502D01*
X30810150Y37229502D02*
X30756182Y37202518D01*
X30756182Y37202518D02*
X30621261Y37202518D01*
X30621261Y37202518D02*
X30567293Y37229502D01*
X30567293Y37229502D02*
X30540309Y37256487D01*
D10*
%TO.C,J12*%
X31552214Y37462213D02*
G75*
G02*
X29852214Y37462213I-850000J0D01*
G01*
X29852214Y37462213D02*
G75*
G02*
X31552214Y37462213I850000J0D01*
G01*
D11*
X30810150Y40120296D02*
X30810150Y39742518D01*
X30675229Y40336168D02*
X30540309Y39931407D01*
X30540309Y39931407D02*
X30891102Y39931407D01*
D10*
X31552214Y40002213D02*
G75*
G02*
X29852214Y40002213I-850000J0D01*
G01*
X29852214Y40002213D02*
G75*
G02*
X31552214Y40002213I850000J0D01*
G01*
D11*
X30513325Y42849184D02*
X30864118Y42849184D01*
X30864118Y42849184D02*
X30675229Y42633312D01*
X30675229Y42633312D02*
X30756182Y42633312D01*
X30756182Y42633312D02*
X30810150Y42606328D01*
X30810150Y42606328D02*
X30837134Y42579343D01*
X30837134Y42579343D02*
X30864118Y42525375D01*
X30864118Y42525375D02*
X30864118Y42390455D01*
X30864118Y42390455D02*
X30837134Y42336487D01*
X30837134Y42336487D02*
X30810150Y42309502D01*
X30810150Y42309502D02*
X30756182Y42282518D01*
X30756182Y42282518D02*
X30594277Y42282518D01*
X30594277Y42282518D02*
X30540309Y42309502D01*
X30540309Y42309502D02*
X30513325Y42336487D01*
D10*
X31552214Y42542213D02*
G75*
G02*
X29852214Y42542213I-850000J0D01*
G01*
X29852214Y42542213D02*
G75*
G02*
X31552214Y42542213I850000J0D01*
G01*
D11*
X30540309Y45335216D02*
X30567293Y45362200D01*
X30567293Y45362200D02*
X30621261Y45389184D01*
X30621261Y45389184D02*
X30756182Y45389184D01*
X30756182Y45389184D02*
X30810150Y45362200D01*
X30810150Y45362200D02*
X30837134Y45335216D01*
X30837134Y45335216D02*
X30864118Y45281248D01*
X30864118Y45281248D02*
X30864118Y45227280D01*
X30864118Y45227280D02*
X30837134Y45146328D01*
X30837134Y45146328D02*
X30513325Y44822518D01*
X30513325Y44822518D02*
X30864118Y44822518D01*
D10*
X31552214Y45082213D02*
G75*
G02*
X29852214Y45082213I-850000J0D01*
G01*
X29852214Y45082213D02*
G75*
G02*
X31552214Y45082213I850000J0D01*
G01*
D11*
X30864118Y47362518D02*
X30540309Y47362518D01*
X30702213Y47362518D02*
X30702213Y47929184D01*
X30702213Y47929184D02*
X30648245Y47848232D01*
X30648245Y47848232D02*
X30594277Y47794264D01*
X30594277Y47794264D02*
X30540309Y47767280D01*
D10*
X29852214Y48472213D02*
X29852214Y46772213D01*
X31552214Y46772213D01*
X31552214Y48472213D01*
X29852214Y48472213D01*
%TD*%
D11*
X8214277Y19422518D02*
X7890468Y19422518D01*
X8052372Y19422518D02*
X8052372Y19989184D01*
X8052372Y19989184D02*
X7998404Y19908232D01*
X7998404Y19908232D02*
X7944436Y19854264D01*
X7944436Y19854264D02*
X7890468Y19827280D01*
X8726975Y19989184D02*
X8457134Y19989184D01*
X8457134Y19989184D02*
X8430150Y19719343D01*
X8430150Y19719343D02*
X8457134Y19746328D01*
X8457134Y19746328D02*
X8511102Y19773312D01*
X8511102Y19773312D02*
X8646023Y19773312D01*
X8646023Y19773312D02*
X8699991Y19746328D01*
X8699991Y19746328D02*
X8726975Y19719343D01*
X8726975Y19719343D02*
X8753959Y19665375D01*
X8753959Y19665375D02*
X8753959Y19530455D01*
X8753959Y19530455D02*
X8726975Y19476487D01*
X8726975Y19476487D02*
X8699991Y19449502D01*
X8699991Y19449502D02*
X8646023Y19422518D01*
X8646023Y19422518D02*
X8511102Y19422518D01*
X8511102Y19422518D02*
X8457134Y19449502D01*
X8457134Y19449502D02*
X8430150Y19476487D01*
D10*
%TO.C,J9*%
X9172214Y19682213D02*
G75*
G02*
X7472214Y19682213I-850000J0D01*
G01*
X7472214Y19682213D02*
G75*
G02*
X9172214Y19682213I850000J0D01*
G01*
D11*
X8214277Y21962518D02*
X7890468Y21962518D01*
X8052372Y21962518D02*
X8052372Y22529184D01*
X8052372Y22529184D02*
X7998404Y22448232D01*
X7998404Y22448232D02*
X7944436Y22394264D01*
X7944436Y22394264D02*
X7890468Y22367280D01*
X8699991Y22340296D02*
X8699991Y21962518D01*
X8565070Y22556168D02*
X8430150Y22151407D01*
X8430150Y22151407D02*
X8780943Y22151407D01*
D10*
X9172214Y22222213D02*
G75*
G02*
X7472214Y22222213I-850000J0D01*
G01*
X7472214Y22222213D02*
G75*
G02*
X9172214Y22222213I850000J0D01*
G01*
D11*
X8214277Y24502518D02*
X7890468Y24502518D01*
X8052372Y24502518D02*
X8052372Y25069184D01*
X8052372Y25069184D02*
X7998404Y24988232D01*
X7998404Y24988232D02*
X7944436Y24934264D01*
X7944436Y24934264D02*
X7890468Y24907280D01*
X8403166Y25069184D02*
X8753959Y25069184D01*
X8753959Y25069184D02*
X8565070Y24853312D01*
X8565070Y24853312D02*
X8646023Y24853312D01*
X8646023Y24853312D02*
X8699991Y24826328D01*
X8699991Y24826328D02*
X8726975Y24799343D01*
X8726975Y24799343D02*
X8753959Y24745375D01*
X8753959Y24745375D02*
X8753959Y24610455D01*
X8753959Y24610455D02*
X8726975Y24556487D01*
X8726975Y24556487D02*
X8699991Y24529502D01*
X8699991Y24529502D02*
X8646023Y24502518D01*
X8646023Y24502518D02*
X8484118Y24502518D01*
X8484118Y24502518D02*
X8430150Y24529502D01*
X8430150Y24529502D02*
X8403166Y24556487D01*
D10*
X9172214Y24762213D02*
G75*
G02*
X7472214Y24762213I-850000J0D01*
G01*
X7472214Y24762213D02*
G75*
G02*
X9172214Y24762213I850000J0D01*
G01*
D11*
X8214277Y27042518D02*
X7890468Y27042518D01*
X8052372Y27042518D02*
X8052372Y27609184D01*
X8052372Y27609184D02*
X7998404Y27528232D01*
X7998404Y27528232D02*
X7944436Y27474264D01*
X7944436Y27474264D02*
X7890468Y27447280D01*
X8430150Y27555216D02*
X8457134Y27582200D01*
X8457134Y27582200D02*
X8511102Y27609184D01*
X8511102Y27609184D02*
X8646023Y27609184D01*
X8646023Y27609184D02*
X8699991Y27582200D01*
X8699991Y27582200D02*
X8726975Y27555216D01*
X8726975Y27555216D02*
X8753959Y27501248D01*
X8753959Y27501248D02*
X8753959Y27447280D01*
X8753959Y27447280D02*
X8726975Y27366328D01*
X8726975Y27366328D02*
X8403166Y27042518D01*
X8403166Y27042518D02*
X8753959Y27042518D01*
D10*
X9172214Y27302213D02*
G75*
G02*
X7472214Y27302213I-850000J0D01*
G01*
X7472214Y27302213D02*
G75*
G02*
X9172214Y27302213I850000J0D01*
G01*
D11*
X8214277Y29582518D02*
X7890468Y29582518D01*
X8052372Y29582518D02*
X8052372Y30149184D01*
X8052372Y30149184D02*
X7998404Y30068232D01*
X7998404Y30068232D02*
X7944436Y30014264D01*
X7944436Y30014264D02*
X7890468Y29987280D01*
X8753959Y29582518D02*
X8430150Y29582518D01*
X8592054Y29582518D02*
X8592054Y30149184D01*
X8592054Y30149184D02*
X8538086Y30068232D01*
X8538086Y30068232D02*
X8484118Y30014264D01*
X8484118Y30014264D02*
X8430150Y29987280D01*
D10*
X9172214Y29842213D02*
G75*
G02*
X7472214Y29842213I-850000J0D01*
G01*
X7472214Y29842213D02*
G75*
G02*
X9172214Y29842213I850000J0D01*
G01*
D11*
X8214277Y32122518D02*
X7890468Y32122518D01*
X8052372Y32122518D02*
X8052372Y32689184D01*
X8052372Y32689184D02*
X7998404Y32608232D01*
X7998404Y32608232D02*
X7944436Y32554264D01*
X7944436Y32554264D02*
X7890468Y32527280D01*
X8565070Y32689184D02*
X8619039Y32689184D01*
X8619039Y32689184D02*
X8673007Y32662200D01*
X8673007Y32662200D02*
X8699991Y32635216D01*
X8699991Y32635216D02*
X8726975Y32581248D01*
X8726975Y32581248D02*
X8753959Y32473312D01*
X8753959Y32473312D02*
X8753959Y32338391D01*
X8753959Y32338391D02*
X8726975Y32230455D01*
X8726975Y32230455D02*
X8699991Y32176487D01*
X8699991Y32176487D02*
X8673007Y32149502D01*
X8673007Y32149502D02*
X8619039Y32122518D01*
X8619039Y32122518D02*
X8565070Y32122518D01*
X8565070Y32122518D02*
X8511102Y32149502D01*
X8511102Y32149502D02*
X8484118Y32176487D01*
X8484118Y32176487D02*
X8457134Y32230455D01*
X8457134Y32230455D02*
X8430150Y32338391D01*
X8430150Y32338391D02*
X8430150Y32473312D01*
X8430150Y32473312D02*
X8457134Y32581248D01*
X8457134Y32581248D02*
X8484118Y32635216D01*
X8484118Y32635216D02*
X8511102Y32662200D01*
X8511102Y32662200D02*
X8565070Y32689184D01*
D10*
X9172214Y32382213D02*
G75*
G02*
X7472214Y32382213I-850000J0D01*
G01*
X7472214Y32382213D02*
G75*
G02*
X9172214Y32382213I850000J0D01*
G01*
D11*
X8214277Y34662518D02*
X8322213Y34662518D01*
X8322213Y34662518D02*
X8376182Y34689502D01*
X8376182Y34689502D02*
X8403166Y34716487D01*
X8403166Y34716487D02*
X8457134Y34797439D01*
X8457134Y34797439D02*
X8484118Y34905375D01*
X8484118Y34905375D02*
X8484118Y35121248D01*
X8484118Y35121248D02*
X8457134Y35175216D01*
X8457134Y35175216D02*
X8430150Y35202200D01*
X8430150Y35202200D02*
X8376182Y35229184D01*
X8376182Y35229184D02*
X8268245Y35229184D01*
X8268245Y35229184D02*
X8214277Y35202200D01*
X8214277Y35202200D02*
X8187293Y35175216D01*
X8187293Y35175216D02*
X8160309Y35121248D01*
X8160309Y35121248D02*
X8160309Y34986328D01*
X8160309Y34986328D02*
X8187293Y34932359D01*
X8187293Y34932359D02*
X8214277Y34905375D01*
X8214277Y34905375D02*
X8268245Y34878391D01*
X8268245Y34878391D02*
X8376182Y34878391D01*
X8376182Y34878391D02*
X8430150Y34905375D01*
X8430150Y34905375D02*
X8457134Y34932359D01*
X8457134Y34932359D02*
X8484118Y34986328D01*
D10*
X9172214Y34922213D02*
G75*
G02*
X7472214Y34922213I-850000J0D01*
G01*
X7472214Y34922213D02*
G75*
G02*
X9172214Y34922213I850000J0D01*
G01*
D11*
X8268245Y37526328D02*
X8214277Y37553312D01*
X8214277Y37553312D02*
X8187293Y37580296D01*
X8187293Y37580296D02*
X8160309Y37634264D01*
X8160309Y37634264D02*
X8160309Y37661248D01*
X8160309Y37661248D02*
X8187293Y37715216D01*
X8187293Y37715216D02*
X8214277Y37742200D01*
X8214277Y37742200D02*
X8268245Y37769184D01*
X8268245Y37769184D02*
X8376182Y37769184D01*
X8376182Y37769184D02*
X8430150Y37742200D01*
X8430150Y37742200D02*
X8457134Y37715216D01*
X8457134Y37715216D02*
X8484118Y37661248D01*
X8484118Y37661248D02*
X8484118Y37634264D01*
X8484118Y37634264D02*
X8457134Y37580296D01*
X8457134Y37580296D02*
X8430150Y37553312D01*
X8430150Y37553312D02*
X8376182Y37526328D01*
X8376182Y37526328D02*
X8268245Y37526328D01*
X8268245Y37526328D02*
X8214277Y37499343D01*
X8214277Y37499343D02*
X8187293Y37472359D01*
X8187293Y37472359D02*
X8160309Y37418391D01*
X8160309Y37418391D02*
X8160309Y37310455D01*
X8160309Y37310455D02*
X8187293Y37256487D01*
X8187293Y37256487D02*
X8214277Y37229502D01*
X8214277Y37229502D02*
X8268245Y37202518D01*
X8268245Y37202518D02*
X8376182Y37202518D01*
X8376182Y37202518D02*
X8430150Y37229502D01*
X8430150Y37229502D02*
X8457134Y37256487D01*
X8457134Y37256487D02*
X8484118Y37310455D01*
X8484118Y37310455D02*
X8484118Y37418391D01*
X8484118Y37418391D02*
X8457134Y37472359D01*
X8457134Y37472359D02*
X8430150Y37499343D01*
X8430150Y37499343D02*
X8376182Y37526328D01*
D10*
X9172214Y37462213D02*
G75*
G02*
X7472214Y37462213I-850000J0D01*
G01*
X7472214Y37462213D02*
G75*
G02*
X9172214Y37462213I850000J0D01*
G01*
D11*
X8133325Y40309184D02*
X8511102Y40309184D01*
X8511102Y40309184D02*
X8268245Y39742518D01*
D10*
X9172214Y40002213D02*
G75*
G02*
X7472214Y40002213I-850000J0D01*
G01*
X7472214Y40002213D02*
G75*
G02*
X9172214Y40002213I850000J0D01*
G01*
D11*
X8430150Y42849184D02*
X8322213Y42849184D01*
X8322213Y42849184D02*
X8268245Y42822200D01*
X8268245Y42822200D02*
X8241261Y42795216D01*
X8241261Y42795216D02*
X8187293Y42714264D01*
X8187293Y42714264D02*
X8160309Y42606328D01*
X8160309Y42606328D02*
X8160309Y42390455D01*
X8160309Y42390455D02*
X8187293Y42336487D01*
X8187293Y42336487D02*
X8214277Y42309502D01*
X8214277Y42309502D02*
X8268245Y42282518D01*
X8268245Y42282518D02*
X8376182Y42282518D01*
X8376182Y42282518D02*
X8430150Y42309502D01*
X8430150Y42309502D02*
X8457134Y42336487D01*
X8457134Y42336487D02*
X8484118Y42390455D01*
X8484118Y42390455D02*
X8484118Y42525375D01*
X8484118Y42525375D02*
X8457134Y42579343D01*
X8457134Y42579343D02*
X8430150Y42606328D01*
X8430150Y42606328D02*
X8376182Y42633312D01*
X8376182Y42633312D02*
X8268245Y42633312D01*
X8268245Y42633312D02*
X8214277Y42606328D01*
X8214277Y42606328D02*
X8187293Y42579343D01*
X8187293Y42579343D02*
X8160309Y42525375D01*
D10*
X9172214Y42542213D02*
G75*
G02*
X7472214Y42542213I-850000J0D01*
G01*
X7472214Y42542213D02*
G75*
G02*
X9172214Y42542213I850000J0D01*
G01*
D11*
X8457134Y45389184D02*
X8187293Y45389184D01*
X8187293Y45389184D02*
X8160309Y45119343D01*
X8160309Y45119343D02*
X8187293Y45146328D01*
X8187293Y45146328D02*
X8241261Y45173312D01*
X8241261Y45173312D02*
X8376182Y45173312D01*
X8376182Y45173312D02*
X8430150Y45146328D01*
X8430150Y45146328D02*
X8457134Y45119343D01*
X8457134Y45119343D02*
X8484118Y45065375D01*
X8484118Y45065375D02*
X8484118Y44930455D01*
X8484118Y44930455D02*
X8457134Y44876487D01*
X8457134Y44876487D02*
X8430150Y44849502D01*
X8430150Y44849502D02*
X8376182Y44822518D01*
X8376182Y44822518D02*
X8241261Y44822518D01*
X8241261Y44822518D02*
X8187293Y44849502D01*
X8187293Y44849502D02*
X8160309Y44876487D01*
D10*
X9172214Y45082213D02*
G75*
G02*
X7472214Y45082213I-850000J0D01*
G01*
X7472214Y45082213D02*
G75*
G02*
X9172214Y45082213I850000J0D01*
G01*
D11*
X8430150Y47740296D02*
X8430150Y47362518D01*
X8295229Y47956168D02*
X8160309Y47551407D01*
X8160309Y47551407D02*
X8511102Y47551407D01*
D10*
X9172214Y47622213D02*
G75*
G02*
X7472214Y47622213I-850000J0D01*
G01*
X7472214Y47622213D02*
G75*
G02*
X9172214Y47622213I850000J0D01*
G01*
D11*
X8133325Y50469184D02*
X8484118Y50469184D01*
X8484118Y50469184D02*
X8295229Y50253312D01*
X8295229Y50253312D02*
X8376182Y50253312D01*
X8376182Y50253312D02*
X8430150Y50226328D01*
X8430150Y50226328D02*
X8457134Y50199343D01*
X8457134Y50199343D02*
X8484118Y50145375D01*
X8484118Y50145375D02*
X8484118Y50010455D01*
X8484118Y50010455D02*
X8457134Y49956487D01*
X8457134Y49956487D02*
X8430150Y49929502D01*
X8430150Y49929502D02*
X8376182Y49902518D01*
X8376182Y49902518D02*
X8214277Y49902518D01*
X8214277Y49902518D02*
X8160309Y49929502D01*
X8160309Y49929502D02*
X8133325Y49956487D01*
D10*
X9172214Y50162213D02*
G75*
G02*
X7472214Y50162213I-850000J0D01*
G01*
X7472214Y50162213D02*
G75*
G02*
X9172214Y50162213I850000J0D01*
G01*
D11*
X8160309Y52955216D02*
X8187293Y52982200D01*
X8187293Y52982200D02*
X8241261Y53009184D01*
X8241261Y53009184D02*
X8376182Y53009184D01*
X8376182Y53009184D02*
X8430150Y52982200D01*
X8430150Y52982200D02*
X8457134Y52955216D01*
X8457134Y52955216D02*
X8484118Y52901248D01*
X8484118Y52901248D02*
X8484118Y52847280D01*
X8484118Y52847280D02*
X8457134Y52766328D01*
X8457134Y52766328D02*
X8133325Y52442518D01*
X8133325Y52442518D02*
X8484118Y52442518D01*
D10*
X9172214Y52702213D02*
G75*
G02*
X7472214Y52702213I-850000J0D01*
G01*
X7472214Y52702213D02*
G75*
G02*
X9172214Y52702213I850000J0D01*
G01*
D11*
X8484118Y54982518D02*
X8160309Y54982518D01*
X8322213Y54982518D02*
X8322213Y55549184D01*
X8322213Y55549184D02*
X8268245Y55468232D01*
X8268245Y55468232D02*
X8214277Y55414264D01*
X8214277Y55414264D02*
X8160309Y55387280D01*
D10*
X7472214Y56092213D02*
X7472214Y54392213D01*
X9172214Y54392213D01*
X9172214Y56092213D01*
X7472214Y56092213D01*
%TD*%
D11*
X13294277Y19422518D02*
X12970468Y19422518D01*
X13132372Y19422518D02*
X13132372Y19989184D01*
X13132372Y19989184D02*
X13078404Y19908232D01*
X13078404Y19908232D02*
X13024436Y19854264D01*
X13024436Y19854264D02*
X12970468Y19827280D01*
X13806975Y19989184D02*
X13537134Y19989184D01*
X13537134Y19989184D02*
X13510150Y19719343D01*
X13510150Y19719343D02*
X13537134Y19746328D01*
X13537134Y19746328D02*
X13591102Y19773312D01*
X13591102Y19773312D02*
X13726023Y19773312D01*
X13726023Y19773312D02*
X13779991Y19746328D01*
X13779991Y19746328D02*
X13806975Y19719343D01*
X13806975Y19719343D02*
X13833959Y19665375D01*
X13833959Y19665375D02*
X13833959Y19530455D01*
X13833959Y19530455D02*
X13806975Y19476487D01*
X13806975Y19476487D02*
X13779991Y19449502D01*
X13779991Y19449502D02*
X13726023Y19422518D01*
X13726023Y19422518D02*
X13591102Y19422518D01*
X13591102Y19422518D02*
X13537134Y19449502D01*
X13537134Y19449502D02*
X13510150Y19476487D01*
D10*
%TO.C,J8*%
X14252214Y19682213D02*
G75*
G02*
X12552214Y19682213I-850000J0D01*
G01*
X12552214Y19682213D02*
G75*
G02*
X14252214Y19682213I850000J0D01*
G01*
D11*
X13294277Y21962518D02*
X12970468Y21962518D01*
X13132372Y21962518D02*
X13132372Y22529184D01*
X13132372Y22529184D02*
X13078404Y22448232D01*
X13078404Y22448232D02*
X13024436Y22394264D01*
X13024436Y22394264D02*
X12970468Y22367280D01*
X13779991Y22340296D02*
X13779991Y21962518D01*
X13645070Y22556168D02*
X13510150Y22151407D01*
X13510150Y22151407D02*
X13860943Y22151407D01*
D10*
X14252214Y22222213D02*
G75*
G02*
X12552214Y22222213I-850000J0D01*
G01*
X12552214Y22222213D02*
G75*
G02*
X14252214Y22222213I850000J0D01*
G01*
D11*
X13294277Y24502518D02*
X12970468Y24502518D01*
X13132372Y24502518D02*
X13132372Y25069184D01*
X13132372Y25069184D02*
X13078404Y24988232D01*
X13078404Y24988232D02*
X13024436Y24934264D01*
X13024436Y24934264D02*
X12970468Y24907280D01*
X13483166Y25069184D02*
X13833959Y25069184D01*
X13833959Y25069184D02*
X13645070Y24853312D01*
X13645070Y24853312D02*
X13726023Y24853312D01*
X13726023Y24853312D02*
X13779991Y24826328D01*
X13779991Y24826328D02*
X13806975Y24799343D01*
X13806975Y24799343D02*
X13833959Y24745375D01*
X13833959Y24745375D02*
X13833959Y24610455D01*
X13833959Y24610455D02*
X13806975Y24556487D01*
X13806975Y24556487D02*
X13779991Y24529502D01*
X13779991Y24529502D02*
X13726023Y24502518D01*
X13726023Y24502518D02*
X13564118Y24502518D01*
X13564118Y24502518D02*
X13510150Y24529502D01*
X13510150Y24529502D02*
X13483166Y24556487D01*
D10*
X14252214Y24762213D02*
G75*
G02*
X12552214Y24762213I-850000J0D01*
G01*
X12552214Y24762213D02*
G75*
G02*
X14252214Y24762213I850000J0D01*
G01*
D11*
X13294277Y27042518D02*
X12970468Y27042518D01*
X13132372Y27042518D02*
X13132372Y27609184D01*
X13132372Y27609184D02*
X13078404Y27528232D01*
X13078404Y27528232D02*
X13024436Y27474264D01*
X13024436Y27474264D02*
X12970468Y27447280D01*
X13510150Y27555216D02*
X13537134Y27582200D01*
X13537134Y27582200D02*
X13591102Y27609184D01*
X13591102Y27609184D02*
X13726023Y27609184D01*
X13726023Y27609184D02*
X13779991Y27582200D01*
X13779991Y27582200D02*
X13806975Y27555216D01*
X13806975Y27555216D02*
X13833959Y27501248D01*
X13833959Y27501248D02*
X13833959Y27447280D01*
X13833959Y27447280D02*
X13806975Y27366328D01*
X13806975Y27366328D02*
X13483166Y27042518D01*
X13483166Y27042518D02*
X13833959Y27042518D01*
D10*
X14252214Y27302213D02*
G75*
G02*
X12552214Y27302213I-850000J0D01*
G01*
X12552214Y27302213D02*
G75*
G02*
X14252214Y27302213I850000J0D01*
G01*
D11*
X13294277Y29582518D02*
X12970468Y29582518D01*
X13132372Y29582518D02*
X13132372Y30149184D01*
X13132372Y30149184D02*
X13078404Y30068232D01*
X13078404Y30068232D02*
X13024436Y30014264D01*
X13024436Y30014264D02*
X12970468Y29987280D01*
X13833959Y29582518D02*
X13510150Y29582518D01*
X13672054Y29582518D02*
X13672054Y30149184D01*
X13672054Y30149184D02*
X13618086Y30068232D01*
X13618086Y30068232D02*
X13564118Y30014264D01*
X13564118Y30014264D02*
X13510150Y29987280D01*
D10*
X14252214Y29842213D02*
G75*
G02*
X12552214Y29842213I-850000J0D01*
G01*
X12552214Y29842213D02*
G75*
G02*
X14252214Y29842213I850000J0D01*
G01*
D11*
X13294277Y32122518D02*
X12970468Y32122518D01*
X13132372Y32122518D02*
X13132372Y32689184D01*
X13132372Y32689184D02*
X13078404Y32608232D01*
X13078404Y32608232D02*
X13024436Y32554264D01*
X13024436Y32554264D02*
X12970468Y32527280D01*
X13645070Y32689184D02*
X13699039Y32689184D01*
X13699039Y32689184D02*
X13753007Y32662200D01*
X13753007Y32662200D02*
X13779991Y32635216D01*
X13779991Y32635216D02*
X13806975Y32581248D01*
X13806975Y32581248D02*
X13833959Y32473312D01*
X13833959Y32473312D02*
X13833959Y32338391D01*
X13833959Y32338391D02*
X13806975Y32230455D01*
X13806975Y32230455D02*
X13779991Y32176487D01*
X13779991Y32176487D02*
X13753007Y32149502D01*
X13753007Y32149502D02*
X13699039Y32122518D01*
X13699039Y32122518D02*
X13645070Y32122518D01*
X13645070Y32122518D02*
X13591102Y32149502D01*
X13591102Y32149502D02*
X13564118Y32176487D01*
X13564118Y32176487D02*
X13537134Y32230455D01*
X13537134Y32230455D02*
X13510150Y32338391D01*
X13510150Y32338391D02*
X13510150Y32473312D01*
X13510150Y32473312D02*
X13537134Y32581248D01*
X13537134Y32581248D02*
X13564118Y32635216D01*
X13564118Y32635216D02*
X13591102Y32662200D01*
X13591102Y32662200D02*
X13645070Y32689184D01*
D10*
X14252214Y32382213D02*
G75*
G02*
X12552214Y32382213I-850000J0D01*
G01*
X12552214Y32382213D02*
G75*
G02*
X14252214Y32382213I850000J0D01*
G01*
D11*
X13294277Y34662518D02*
X13402213Y34662518D01*
X13402213Y34662518D02*
X13456182Y34689502D01*
X13456182Y34689502D02*
X13483166Y34716487D01*
X13483166Y34716487D02*
X13537134Y34797439D01*
X13537134Y34797439D02*
X13564118Y34905375D01*
X13564118Y34905375D02*
X13564118Y35121248D01*
X13564118Y35121248D02*
X13537134Y35175216D01*
X13537134Y35175216D02*
X13510150Y35202200D01*
X13510150Y35202200D02*
X13456182Y35229184D01*
X13456182Y35229184D02*
X13348245Y35229184D01*
X13348245Y35229184D02*
X13294277Y35202200D01*
X13294277Y35202200D02*
X13267293Y35175216D01*
X13267293Y35175216D02*
X13240309Y35121248D01*
X13240309Y35121248D02*
X13240309Y34986328D01*
X13240309Y34986328D02*
X13267293Y34932359D01*
X13267293Y34932359D02*
X13294277Y34905375D01*
X13294277Y34905375D02*
X13348245Y34878391D01*
X13348245Y34878391D02*
X13456182Y34878391D01*
X13456182Y34878391D02*
X13510150Y34905375D01*
X13510150Y34905375D02*
X13537134Y34932359D01*
X13537134Y34932359D02*
X13564118Y34986328D01*
D10*
X14252214Y34922213D02*
G75*
G02*
X12552214Y34922213I-850000J0D01*
G01*
X12552214Y34922213D02*
G75*
G02*
X14252214Y34922213I850000J0D01*
G01*
D11*
X13348245Y37526328D02*
X13294277Y37553312D01*
X13294277Y37553312D02*
X13267293Y37580296D01*
X13267293Y37580296D02*
X13240309Y37634264D01*
X13240309Y37634264D02*
X13240309Y37661248D01*
X13240309Y37661248D02*
X13267293Y37715216D01*
X13267293Y37715216D02*
X13294277Y37742200D01*
X13294277Y37742200D02*
X13348245Y37769184D01*
X13348245Y37769184D02*
X13456182Y37769184D01*
X13456182Y37769184D02*
X13510150Y37742200D01*
X13510150Y37742200D02*
X13537134Y37715216D01*
X13537134Y37715216D02*
X13564118Y37661248D01*
X13564118Y37661248D02*
X13564118Y37634264D01*
X13564118Y37634264D02*
X13537134Y37580296D01*
X13537134Y37580296D02*
X13510150Y37553312D01*
X13510150Y37553312D02*
X13456182Y37526328D01*
X13456182Y37526328D02*
X13348245Y37526328D01*
X13348245Y37526328D02*
X13294277Y37499343D01*
X13294277Y37499343D02*
X13267293Y37472359D01*
X13267293Y37472359D02*
X13240309Y37418391D01*
X13240309Y37418391D02*
X13240309Y37310455D01*
X13240309Y37310455D02*
X13267293Y37256487D01*
X13267293Y37256487D02*
X13294277Y37229502D01*
X13294277Y37229502D02*
X13348245Y37202518D01*
X13348245Y37202518D02*
X13456182Y37202518D01*
X13456182Y37202518D02*
X13510150Y37229502D01*
X13510150Y37229502D02*
X13537134Y37256487D01*
X13537134Y37256487D02*
X13564118Y37310455D01*
X13564118Y37310455D02*
X13564118Y37418391D01*
X13564118Y37418391D02*
X13537134Y37472359D01*
X13537134Y37472359D02*
X13510150Y37499343D01*
X13510150Y37499343D02*
X13456182Y37526328D01*
D10*
X14252214Y37462213D02*
G75*
G02*
X12552214Y37462213I-850000J0D01*
G01*
X12552214Y37462213D02*
G75*
G02*
X14252214Y37462213I850000J0D01*
G01*
D11*
X13213325Y40309184D02*
X13591102Y40309184D01*
X13591102Y40309184D02*
X13348245Y39742518D01*
D10*
X14252214Y40002213D02*
G75*
G02*
X12552214Y40002213I-850000J0D01*
G01*
X12552214Y40002213D02*
G75*
G02*
X14252214Y40002213I850000J0D01*
G01*
D11*
X13510150Y42849184D02*
X13402213Y42849184D01*
X13402213Y42849184D02*
X13348245Y42822200D01*
X13348245Y42822200D02*
X13321261Y42795216D01*
X13321261Y42795216D02*
X13267293Y42714264D01*
X13267293Y42714264D02*
X13240309Y42606328D01*
X13240309Y42606328D02*
X13240309Y42390455D01*
X13240309Y42390455D02*
X13267293Y42336487D01*
X13267293Y42336487D02*
X13294277Y42309502D01*
X13294277Y42309502D02*
X13348245Y42282518D01*
X13348245Y42282518D02*
X13456182Y42282518D01*
X13456182Y42282518D02*
X13510150Y42309502D01*
X13510150Y42309502D02*
X13537134Y42336487D01*
X13537134Y42336487D02*
X13564118Y42390455D01*
X13564118Y42390455D02*
X13564118Y42525375D01*
X13564118Y42525375D02*
X13537134Y42579343D01*
X13537134Y42579343D02*
X13510150Y42606328D01*
X13510150Y42606328D02*
X13456182Y42633312D01*
X13456182Y42633312D02*
X13348245Y42633312D01*
X13348245Y42633312D02*
X13294277Y42606328D01*
X13294277Y42606328D02*
X13267293Y42579343D01*
X13267293Y42579343D02*
X13240309Y42525375D01*
D10*
X14252214Y42542213D02*
G75*
G02*
X12552214Y42542213I-850000J0D01*
G01*
X12552214Y42542213D02*
G75*
G02*
X14252214Y42542213I850000J0D01*
G01*
D11*
X13537134Y45389184D02*
X13267293Y45389184D01*
X13267293Y45389184D02*
X13240309Y45119343D01*
X13240309Y45119343D02*
X13267293Y45146328D01*
X13267293Y45146328D02*
X13321261Y45173312D01*
X13321261Y45173312D02*
X13456182Y45173312D01*
X13456182Y45173312D02*
X13510150Y45146328D01*
X13510150Y45146328D02*
X13537134Y45119343D01*
X13537134Y45119343D02*
X13564118Y45065375D01*
X13564118Y45065375D02*
X13564118Y44930455D01*
X13564118Y44930455D02*
X13537134Y44876487D01*
X13537134Y44876487D02*
X13510150Y44849502D01*
X13510150Y44849502D02*
X13456182Y44822518D01*
X13456182Y44822518D02*
X13321261Y44822518D01*
X13321261Y44822518D02*
X13267293Y44849502D01*
X13267293Y44849502D02*
X13240309Y44876487D01*
D10*
X14252214Y45082213D02*
G75*
G02*
X12552214Y45082213I-850000J0D01*
G01*
X12552214Y45082213D02*
G75*
G02*
X14252214Y45082213I850000J0D01*
G01*
D11*
X13510150Y47740296D02*
X13510150Y47362518D01*
X13375229Y47956168D02*
X13240309Y47551407D01*
X13240309Y47551407D02*
X13591102Y47551407D01*
D10*
X14252214Y47622213D02*
G75*
G02*
X12552214Y47622213I-850000J0D01*
G01*
X12552214Y47622213D02*
G75*
G02*
X14252214Y47622213I850000J0D01*
G01*
D11*
X13213325Y50469184D02*
X13564118Y50469184D01*
X13564118Y50469184D02*
X13375229Y50253312D01*
X13375229Y50253312D02*
X13456182Y50253312D01*
X13456182Y50253312D02*
X13510150Y50226328D01*
X13510150Y50226328D02*
X13537134Y50199343D01*
X13537134Y50199343D02*
X13564118Y50145375D01*
X13564118Y50145375D02*
X13564118Y50010455D01*
X13564118Y50010455D02*
X13537134Y49956487D01*
X13537134Y49956487D02*
X13510150Y49929502D01*
X13510150Y49929502D02*
X13456182Y49902518D01*
X13456182Y49902518D02*
X13294277Y49902518D01*
X13294277Y49902518D02*
X13240309Y49929502D01*
X13240309Y49929502D02*
X13213325Y49956487D01*
D10*
X14252214Y50162213D02*
G75*
G02*
X12552214Y50162213I-850000J0D01*
G01*
X12552214Y50162213D02*
G75*
G02*
X14252214Y50162213I850000J0D01*
G01*
D11*
X13240309Y52955216D02*
X13267293Y52982200D01*
X13267293Y52982200D02*
X13321261Y53009184D01*
X13321261Y53009184D02*
X13456182Y53009184D01*
X13456182Y53009184D02*
X13510150Y52982200D01*
X13510150Y52982200D02*
X13537134Y52955216D01*
X13537134Y52955216D02*
X13564118Y52901248D01*
X13564118Y52901248D02*
X13564118Y52847280D01*
X13564118Y52847280D02*
X13537134Y52766328D01*
X13537134Y52766328D02*
X13213325Y52442518D01*
X13213325Y52442518D02*
X13564118Y52442518D01*
D10*
X14252214Y52702213D02*
G75*
G02*
X12552214Y52702213I-850000J0D01*
G01*
X12552214Y52702213D02*
G75*
G02*
X14252214Y52702213I850000J0D01*
G01*
D11*
X13564118Y54982518D02*
X13240309Y54982518D01*
X13402213Y54982518D02*
X13402213Y55549184D01*
X13402213Y55549184D02*
X13348245Y55468232D01*
X13348245Y55468232D02*
X13294277Y55414264D01*
X13294277Y55414264D02*
X13240309Y55387280D01*
D10*
X12552214Y56092213D02*
X12552214Y54392213D01*
X14252214Y54392213D01*
X14252214Y56092213D01*
X12552214Y56092213D01*
%TD*%
D11*
X3134277Y19422518D02*
X2810468Y19422518D01*
X2972372Y19422518D02*
X2972372Y19989184D01*
X2972372Y19989184D02*
X2918404Y19908232D01*
X2918404Y19908232D02*
X2864436Y19854264D01*
X2864436Y19854264D02*
X2810468Y19827280D01*
X3646975Y19989184D02*
X3377134Y19989184D01*
X3377134Y19989184D02*
X3350150Y19719343D01*
X3350150Y19719343D02*
X3377134Y19746328D01*
X3377134Y19746328D02*
X3431102Y19773312D01*
X3431102Y19773312D02*
X3566023Y19773312D01*
X3566023Y19773312D02*
X3619991Y19746328D01*
X3619991Y19746328D02*
X3646975Y19719343D01*
X3646975Y19719343D02*
X3673959Y19665375D01*
X3673959Y19665375D02*
X3673959Y19530455D01*
X3673959Y19530455D02*
X3646975Y19476487D01*
X3646975Y19476487D02*
X3619991Y19449502D01*
X3619991Y19449502D02*
X3566023Y19422518D01*
X3566023Y19422518D02*
X3431102Y19422518D01*
X3431102Y19422518D02*
X3377134Y19449502D01*
X3377134Y19449502D02*
X3350150Y19476487D01*
D10*
%TO.C,J7*%
X4092214Y19682213D02*
G75*
G02*
X2392214Y19682213I-850000J0D01*
G01*
X2392214Y19682213D02*
G75*
G02*
X4092214Y19682213I850000J0D01*
G01*
D11*
X3134277Y21962518D02*
X2810468Y21962518D01*
X2972372Y21962518D02*
X2972372Y22529184D01*
X2972372Y22529184D02*
X2918404Y22448232D01*
X2918404Y22448232D02*
X2864436Y22394264D01*
X2864436Y22394264D02*
X2810468Y22367280D01*
X3619991Y22340296D02*
X3619991Y21962518D01*
X3485070Y22556168D02*
X3350150Y22151407D01*
X3350150Y22151407D02*
X3700943Y22151407D01*
D10*
X4092214Y22222213D02*
G75*
G02*
X2392214Y22222213I-850000J0D01*
G01*
X2392214Y22222213D02*
G75*
G02*
X4092214Y22222213I850000J0D01*
G01*
D11*
X3134277Y24502518D02*
X2810468Y24502518D01*
X2972372Y24502518D02*
X2972372Y25069184D01*
X2972372Y25069184D02*
X2918404Y24988232D01*
X2918404Y24988232D02*
X2864436Y24934264D01*
X2864436Y24934264D02*
X2810468Y24907280D01*
X3323166Y25069184D02*
X3673959Y25069184D01*
X3673959Y25069184D02*
X3485070Y24853312D01*
X3485070Y24853312D02*
X3566023Y24853312D01*
X3566023Y24853312D02*
X3619991Y24826328D01*
X3619991Y24826328D02*
X3646975Y24799343D01*
X3646975Y24799343D02*
X3673959Y24745375D01*
X3673959Y24745375D02*
X3673959Y24610455D01*
X3673959Y24610455D02*
X3646975Y24556487D01*
X3646975Y24556487D02*
X3619991Y24529502D01*
X3619991Y24529502D02*
X3566023Y24502518D01*
X3566023Y24502518D02*
X3404118Y24502518D01*
X3404118Y24502518D02*
X3350150Y24529502D01*
X3350150Y24529502D02*
X3323166Y24556487D01*
D10*
X4092214Y24762213D02*
G75*
G02*
X2392214Y24762213I-850000J0D01*
G01*
X2392214Y24762213D02*
G75*
G02*
X4092214Y24762213I850000J0D01*
G01*
D11*
X3134277Y27042518D02*
X2810468Y27042518D01*
X2972372Y27042518D02*
X2972372Y27609184D01*
X2972372Y27609184D02*
X2918404Y27528232D01*
X2918404Y27528232D02*
X2864436Y27474264D01*
X2864436Y27474264D02*
X2810468Y27447280D01*
X3350150Y27555216D02*
X3377134Y27582200D01*
X3377134Y27582200D02*
X3431102Y27609184D01*
X3431102Y27609184D02*
X3566023Y27609184D01*
X3566023Y27609184D02*
X3619991Y27582200D01*
X3619991Y27582200D02*
X3646975Y27555216D01*
X3646975Y27555216D02*
X3673959Y27501248D01*
X3673959Y27501248D02*
X3673959Y27447280D01*
X3673959Y27447280D02*
X3646975Y27366328D01*
X3646975Y27366328D02*
X3323166Y27042518D01*
X3323166Y27042518D02*
X3673959Y27042518D01*
D10*
X4092214Y27302213D02*
G75*
G02*
X2392214Y27302213I-850000J0D01*
G01*
X2392214Y27302213D02*
G75*
G02*
X4092214Y27302213I850000J0D01*
G01*
D11*
X3134277Y29582518D02*
X2810468Y29582518D01*
X2972372Y29582518D02*
X2972372Y30149184D01*
X2972372Y30149184D02*
X2918404Y30068232D01*
X2918404Y30068232D02*
X2864436Y30014264D01*
X2864436Y30014264D02*
X2810468Y29987280D01*
X3673959Y29582518D02*
X3350150Y29582518D01*
X3512054Y29582518D02*
X3512054Y30149184D01*
X3512054Y30149184D02*
X3458086Y30068232D01*
X3458086Y30068232D02*
X3404118Y30014264D01*
X3404118Y30014264D02*
X3350150Y29987280D01*
D10*
X4092214Y29842213D02*
G75*
G02*
X2392214Y29842213I-850000J0D01*
G01*
X2392214Y29842213D02*
G75*
G02*
X4092214Y29842213I850000J0D01*
G01*
D11*
X3134277Y32122518D02*
X2810468Y32122518D01*
X2972372Y32122518D02*
X2972372Y32689184D01*
X2972372Y32689184D02*
X2918404Y32608232D01*
X2918404Y32608232D02*
X2864436Y32554264D01*
X2864436Y32554264D02*
X2810468Y32527280D01*
X3485070Y32689184D02*
X3539039Y32689184D01*
X3539039Y32689184D02*
X3593007Y32662200D01*
X3593007Y32662200D02*
X3619991Y32635216D01*
X3619991Y32635216D02*
X3646975Y32581248D01*
X3646975Y32581248D02*
X3673959Y32473312D01*
X3673959Y32473312D02*
X3673959Y32338391D01*
X3673959Y32338391D02*
X3646975Y32230455D01*
X3646975Y32230455D02*
X3619991Y32176487D01*
X3619991Y32176487D02*
X3593007Y32149502D01*
X3593007Y32149502D02*
X3539039Y32122518D01*
X3539039Y32122518D02*
X3485070Y32122518D01*
X3485070Y32122518D02*
X3431102Y32149502D01*
X3431102Y32149502D02*
X3404118Y32176487D01*
X3404118Y32176487D02*
X3377134Y32230455D01*
X3377134Y32230455D02*
X3350150Y32338391D01*
X3350150Y32338391D02*
X3350150Y32473312D01*
X3350150Y32473312D02*
X3377134Y32581248D01*
X3377134Y32581248D02*
X3404118Y32635216D01*
X3404118Y32635216D02*
X3431102Y32662200D01*
X3431102Y32662200D02*
X3485070Y32689184D01*
D10*
X4092214Y32382213D02*
G75*
G02*
X2392214Y32382213I-850000J0D01*
G01*
X2392214Y32382213D02*
G75*
G02*
X4092214Y32382213I850000J0D01*
G01*
D11*
X3134277Y34662518D02*
X3242213Y34662518D01*
X3242213Y34662518D02*
X3296182Y34689502D01*
X3296182Y34689502D02*
X3323166Y34716487D01*
X3323166Y34716487D02*
X3377134Y34797439D01*
X3377134Y34797439D02*
X3404118Y34905375D01*
X3404118Y34905375D02*
X3404118Y35121248D01*
X3404118Y35121248D02*
X3377134Y35175216D01*
X3377134Y35175216D02*
X3350150Y35202200D01*
X3350150Y35202200D02*
X3296182Y35229184D01*
X3296182Y35229184D02*
X3188245Y35229184D01*
X3188245Y35229184D02*
X3134277Y35202200D01*
X3134277Y35202200D02*
X3107293Y35175216D01*
X3107293Y35175216D02*
X3080309Y35121248D01*
X3080309Y35121248D02*
X3080309Y34986328D01*
X3080309Y34986328D02*
X3107293Y34932359D01*
X3107293Y34932359D02*
X3134277Y34905375D01*
X3134277Y34905375D02*
X3188245Y34878391D01*
X3188245Y34878391D02*
X3296182Y34878391D01*
X3296182Y34878391D02*
X3350150Y34905375D01*
X3350150Y34905375D02*
X3377134Y34932359D01*
X3377134Y34932359D02*
X3404118Y34986328D01*
D10*
X4092214Y34922213D02*
G75*
G02*
X2392214Y34922213I-850000J0D01*
G01*
X2392214Y34922213D02*
G75*
G02*
X4092214Y34922213I850000J0D01*
G01*
D11*
X3188245Y37526328D02*
X3134277Y37553312D01*
X3134277Y37553312D02*
X3107293Y37580296D01*
X3107293Y37580296D02*
X3080309Y37634264D01*
X3080309Y37634264D02*
X3080309Y37661248D01*
X3080309Y37661248D02*
X3107293Y37715216D01*
X3107293Y37715216D02*
X3134277Y37742200D01*
X3134277Y37742200D02*
X3188245Y37769184D01*
X3188245Y37769184D02*
X3296182Y37769184D01*
X3296182Y37769184D02*
X3350150Y37742200D01*
X3350150Y37742200D02*
X3377134Y37715216D01*
X3377134Y37715216D02*
X3404118Y37661248D01*
X3404118Y37661248D02*
X3404118Y37634264D01*
X3404118Y37634264D02*
X3377134Y37580296D01*
X3377134Y37580296D02*
X3350150Y37553312D01*
X3350150Y37553312D02*
X3296182Y37526328D01*
X3296182Y37526328D02*
X3188245Y37526328D01*
X3188245Y37526328D02*
X3134277Y37499343D01*
X3134277Y37499343D02*
X3107293Y37472359D01*
X3107293Y37472359D02*
X3080309Y37418391D01*
X3080309Y37418391D02*
X3080309Y37310455D01*
X3080309Y37310455D02*
X3107293Y37256487D01*
X3107293Y37256487D02*
X3134277Y37229502D01*
X3134277Y37229502D02*
X3188245Y37202518D01*
X3188245Y37202518D02*
X3296182Y37202518D01*
X3296182Y37202518D02*
X3350150Y37229502D01*
X3350150Y37229502D02*
X3377134Y37256487D01*
X3377134Y37256487D02*
X3404118Y37310455D01*
X3404118Y37310455D02*
X3404118Y37418391D01*
X3404118Y37418391D02*
X3377134Y37472359D01*
X3377134Y37472359D02*
X3350150Y37499343D01*
X3350150Y37499343D02*
X3296182Y37526328D01*
D10*
X4092214Y37462213D02*
G75*
G02*
X2392214Y37462213I-850000J0D01*
G01*
X2392214Y37462213D02*
G75*
G02*
X4092214Y37462213I850000J0D01*
G01*
D11*
X3053325Y40309184D02*
X3431102Y40309184D01*
X3431102Y40309184D02*
X3188245Y39742518D01*
D10*
X4092214Y40002213D02*
G75*
G02*
X2392214Y40002213I-850000J0D01*
G01*
X2392214Y40002213D02*
G75*
G02*
X4092214Y40002213I850000J0D01*
G01*
D11*
X3350150Y42849184D02*
X3242213Y42849184D01*
X3242213Y42849184D02*
X3188245Y42822200D01*
X3188245Y42822200D02*
X3161261Y42795216D01*
X3161261Y42795216D02*
X3107293Y42714264D01*
X3107293Y42714264D02*
X3080309Y42606328D01*
X3080309Y42606328D02*
X3080309Y42390455D01*
X3080309Y42390455D02*
X3107293Y42336487D01*
X3107293Y42336487D02*
X3134277Y42309502D01*
X3134277Y42309502D02*
X3188245Y42282518D01*
X3188245Y42282518D02*
X3296182Y42282518D01*
X3296182Y42282518D02*
X3350150Y42309502D01*
X3350150Y42309502D02*
X3377134Y42336487D01*
X3377134Y42336487D02*
X3404118Y42390455D01*
X3404118Y42390455D02*
X3404118Y42525375D01*
X3404118Y42525375D02*
X3377134Y42579343D01*
X3377134Y42579343D02*
X3350150Y42606328D01*
X3350150Y42606328D02*
X3296182Y42633312D01*
X3296182Y42633312D02*
X3188245Y42633312D01*
X3188245Y42633312D02*
X3134277Y42606328D01*
X3134277Y42606328D02*
X3107293Y42579343D01*
X3107293Y42579343D02*
X3080309Y42525375D01*
D10*
X4092214Y42542213D02*
G75*
G02*
X2392214Y42542213I-850000J0D01*
G01*
X2392214Y42542213D02*
G75*
G02*
X4092214Y42542213I850000J0D01*
G01*
D11*
X3377134Y45389184D02*
X3107293Y45389184D01*
X3107293Y45389184D02*
X3080309Y45119343D01*
X3080309Y45119343D02*
X3107293Y45146328D01*
X3107293Y45146328D02*
X3161261Y45173312D01*
X3161261Y45173312D02*
X3296182Y45173312D01*
X3296182Y45173312D02*
X3350150Y45146328D01*
X3350150Y45146328D02*
X3377134Y45119343D01*
X3377134Y45119343D02*
X3404118Y45065375D01*
X3404118Y45065375D02*
X3404118Y44930455D01*
X3404118Y44930455D02*
X3377134Y44876487D01*
X3377134Y44876487D02*
X3350150Y44849502D01*
X3350150Y44849502D02*
X3296182Y44822518D01*
X3296182Y44822518D02*
X3161261Y44822518D01*
X3161261Y44822518D02*
X3107293Y44849502D01*
X3107293Y44849502D02*
X3080309Y44876487D01*
D10*
X4092214Y45082213D02*
G75*
G02*
X2392214Y45082213I-850000J0D01*
G01*
X2392214Y45082213D02*
G75*
G02*
X4092214Y45082213I850000J0D01*
G01*
D11*
X3350150Y47740296D02*
X3350150Y47362518D01*
X3215229Y47956168D02*
X3080309Y47551407D01*
X3080309Y47551407D02*
X3431102Y47551407D01*
D10*
X4092214Y47622213D02*
G75*
G02*
X2392214Y47622213I-850000J0D01*
G01*
X2392214Y47622213D02*
G75*
G02*
X4092214Y47622213I850000J0D01*
G01*
D11*
X3053325Y50469184D02*
X3404118Y50469184D01*
X3404118Y50469184D02*
X3215229Y50253312D01*
X3215229Y50253312D02*
X3296182Y50253312D01*
X3296182Y50253312D02*
X3350150Y50226328D01*
X3350150Y50226328D02*
X3377134Y50199343D01*
X3377134Y50199343D02*
X3404118Y50145375D01*
X3404118Y50145375D02*
X3404118Y50010455D01*
X3404118Y50010455D02*
X3377134Y49956487D01*
X3377134Y49956487D02*
X3350150Y49929502D01*
X3350150Y49929502D02*
X3296182Y49902518D01*
X3296182Y49902518D02*
X3134277Y49902518D01*
X3134277Y49902518D02*
X3080309Y49929502D01*
X3080309Y49929502D02*
X3053325Y49956487D01*
D10*
X4092214Y50162213D02*
G75*
G02*
X2392214Y50162213I-850000J0D01*
G01*
X2392214Y50162213D02*
G75*
G02*
X4092214Y50162213I850000J0D01*
G01*
D11*
X3080309Y52955216D02*
X3107293Y52982200D01*
X3107293Y52982200D02*
X3161261Y53009184D01*
X3161261Y53009184D02*
X3296182Y53009184D01*
X3296182Y53009184D02*
X3350150Y52982200D01*
X3350150Y52982200D02*
X3377134Y52955216D01*
X3377134Y52955216D02*
X3404118Y52901248D01*
X3404118Y52901248D02*
X3404118Y52847280D01*
X3404118Y52847280D02*
X3377134Y52766328D01*
X3377134Y52766328D02*
X3053325Y52442518D01*
X3053325Y52442518D02*
X3404118Y52442518D01*
D10*
X4092214Y52702213D02*
G75*
G02*
X2392214Y52702213I-850000J0D01*
G01*
X2392214Y52702213D02*
G75*
G02*
X4092214Y52702213I850000J0D01*
G01*
D11*
X3404118Y54982518D02*
X3080309Y54982518D01*
X3242213Y54982518D02*
X3242213Y55549184D01*
X3242213Y55549184D02*
X3188245Y55468232D01*
X3188245Y55468232D02*
X3134277Y55414264D01*
X3134277Y55414264D02*
X3080309Y55387280D01*
D10*
X2392214Y56092213D02*
X2392214Y54392213D01*
X4092214Y54392213D01*
X4092214Y56092213D01*
X2392214Y56092213D01*
%TD*%
D11*
X18374277Y19422518D02*
X18050468Y19422518D01*
X18212372Y19422518D02*
X18212372Y19989184D01*
X18212372Y19989184D02*
X18158404Y19908232D01*
X18158404Y19908232D02*
X18104436Y19854264D01*
X18104436Y19854264D02*
X18050468Y19827280D01*
X18886975Y19989184D02*
X18617134Y19989184D01*
X18617134Y19989184D02*
X18590150Y19719343D01*
X18590150Y19719343D02*
X18617134Y19746328D01*
X18617134Y19746328D02*
X18671102Y19773312D01*
X18671102Y19773312D02*
X18806023Y19773312D01*
X18806023Y19773312D02*
X18859991Y19746328D01*
X18859991Y19746328D02*
X18886975Y19719343D01*
X18886975Y19719343D02*
X18913959Y19665375D01*
X18913959Y19665375D02*
X18913959Y19530455D01*
X18913959Y19530455D02*
X18886975Y19476487D01*
X18886975Y19476487D02*
X18859991Y19449502D01*
X18859991Y19449502D02*
X18806023Y19422518D01*
X18806023Y19422518D02*
X18671102Y19422518D01*
X18671102Y19422518D02*
X18617134Y19449502D01*
X18617134Y19449502D02*
X18590150Y19476487D01*
D10*
%TO.C,J6*%
X19332214Y19682213D02*
G75*
G02*
X17632214Y19682213I-850000J0D01*
G01*
X17632214Y19682213D02*
G75*
G02*
X19332214Y19682213I850000J0D01*
G01*
D11*
X18374277Y21962518D02*
X18050468Y21962518D01*
X18212372Y21962518D02*
X18212372Y22529184D01*
X18212372Y22529184D02*
X18158404Y22448232D01*
X18158404Y22448232D02*
X18104436Y22394264D01*
X18104436Y22394264D02*
X18050468Y22367280D01*
X18859991Y22340296D02*
X18859991Y21962518D01*
X18725070Y22556168D02*
X18590150Y22151407D01*
X18590150Y22151407D02*
X18940943Y22151407D01*
D10*
X19332214Y22222213D02*
G75*
G02*
X17632214Y22222213I-850000J0D01*
G01*
X17632214Y22222213D02*
G75*
G02*
X19332214Y22222213I850000J0D01*
G01*
D11*
X18374277Y24502518D02*
X18050468Y24502518D01*
X18212372Y24502518D02*
X18212372Y25069184D01*
X18212372Y25069184D02*
X18158404Y24988232D01*
X18158404Y24988232D02*
X18104436Y24934264D01*
X18104436Y24934264D02*
X18050468Y24907280D01*
X18563166Y25069184D02*
X18913959Y25069184D01*
X18913959Y25069184D02*
X18725070Y24853312D01*
X18725070Y24853312D02*
X18806023Y24853312D01*
X18806023Y24853312D02*
X18859991Y24826328D01*
X18859991Y24826328D02*
X18886975Y24799343D01*
X18886975Y24799343D02*
X18913959Y24745375D01*
X18913959Y24745375D02*
X18913959Y24610455D01*
X18913959Y24610455D02*
X18886975Y24556487D01*
X18886975Y24556487D02*
X18859991Y24529502D01*
X18859991Y24529502D02*
X18806023Y24502518D01*
X18806023Y24502518D02*
X18644118Y24502518D01*
X18644118Y24502518D02*
X18590150Y24529502D01*
X18590150Y24529502D02*
X18563166Y24556487D01*
D10*
X19332214Y24762213D02*
G75*
G02*
X17632214Y24762213I-850000J0D01*
G01*
X17632214Y24762213D02*
G75*
G02*
X19332214Y24762213I850000J0D01*
G01*
D11*
X18374277Y27042518D02*
X18050468Y27042518D01*
X18212372Y27042518D02*
X18212372Y27609184D01*
X18212372Y27609184D02*
X18158404Y27528232D01*
X18158404Y27528232D02*
X18104436Y27474264D01*
X18104436Y27474264D02*
X18050468Y27447280D01*
X18590150Y27555216D02*
X18617134Y27582200D01*
X18617134Y27582200D02*
X18671102Y27609184D01*
X18671102Y27609184D02*
X18806023Y27609184D01*
X18806023Y27609184D02*
X18859991Y27582200D01*
X18859991Y27582200D02*
X18886975Y27555216D01*
X18886975Y27555216D02*
X18913959Y27501248D01*
X18913959Y27501248D02*
X18913959Y27447280D01*
X18913959Y27447280D02*
X18886975Y27366328D01*
X18886975Y27366328D02*
X18563166Y27042518D01*
X18563166Y27042518D02*
X18913959Y27042518D01*
D10*
X19332214Y27302213D02*
G75*
G02*
X17632214Y27302213I-850000J0D01*
G01*
X17632214Y27302213D02*
G75*
G02*
X19332214Y27302213I850000J0D01*
G01*
D11*
X18374277Y29582518D02*
X18050468Y29582518D01*
X18212372Y29582518D02*
X18212372Y30149184D01*
X18212372Y30149184D02*
X18158404Y30068232D01*
X18158404Y30068232D02*
X18104436Y30014264D01*
X18104436Y30014264D02*
X18050468Y29987280D01*
X18913959Y29582518D02*
X18590150Y29582518D01*
X18752054Y29582518D02*
X18752054Y30149184D01*
X18752054Y30149184D02*
X18698086Y30068232D01*
X18698086Y30068232D02*
X18644118Y30014264D01*
X18644118Y30014264D02*
X18590150Y29987280D01*
D10*
X19332214Y29842213D02*
G75*
G02*
X17632214Y29842213I-850000J0D01*
G01*
X17632214Y29842213D02*
G75*
G02*
X19332214Y29842213I850000J0D01*
G01*
D11*
X18374277Y32122518D02*
X18050468Y32122518D01*
X18212372Y32122518D02*
X18212372Y32689184D01*
X18212372Y32689184D02*
X18158404Y32608232D01*
X18158404Y32608232D02*
X18104436Y32554264D01*
X18104436Y32554264D02*
X18050468Y32527280D01*
X18725070Y32689184D02*
X18779039Y32689184D01*
X18779039Y32689184D02*
X18833007Y32662200D01*
X18833007Y32662200D02*
X18859991Y32635216D01*
X18859991Y32635216D02*
X18886975Y32581248D01*
X18886975Y32581248D02*
X18913959Y32473312D01*
X18913959Y32473312D02*
X18913959Y32338391D01*
X18913959Y32338391D02*
X18886975Y32230455D01*
X18886975Y32230455D02*
X18859991Y32176487D01*
X18859991Y32176487D02*
X18833007Y32149502D01*
X18833007Y32149502D02*
X18779039Y32122518D01*
X18779039Y32122518D02*
X18725070Y32122518D01*
X18725070Y32122518D02*
X18671102Y32149502D01*
X18671102Y32149502D02*
X18644118Y32176487D01*
X18644118Y32176487D02*
X18617134Y32230455D01*
X18617134Y32230455D02*
X18590150Y32338391D01*
X18590150Y32338391D02*
X18590150Y32473312D01*
X18590150Y32473312D02*
X18617134Y32581248D01*
X18617134Y32581248D02*
X18644118Y32635216D01*
X18644118Y32635216D02*
X18671102Y32662200D01*
X18671102Y32662200D02*
X18725070Y32689184D01*
D10*
X19332214Y32382213D02*
G75*
G02*
X17632214Y32382213I-850000J0D01*
G01*
X17632214Y32382213D02*
G75*
G02*
X19332214Y32382213I850000J0D01*
G01*
D11*
X18374277Y34662518D02*
X18482213Y34662518D01*
X18482213Y34662518D02*
X18536182Y34689502D01*
X18536182Y34689502D02*
X18563166Y34716487D01*
X18563166Y34716487D02*
X18617134Y34797439D01*
X18617134Y34797439D02*
X18644118Y34905375D01*
X18644118Y34905375D02*
X18644118Y35121248D01*
X18644118Y35121248D02*
X18617134Y35175216D01*
X18617134Y35175216D02*
X18590150Y35202200D01*
X18590150Y35202200D02*
X18536182Y35229184D01*
X18536182Y35229184D02*
X18428245Y35229184D01*
X18428245Y35229184D02*
X18374277Y35202200D01*
X18374277Y35202200D02*
X18347293Y35175216D01*
X18347293Y35175216D02*
X18320309Y35121248D01*
X18320309Y35121248D02*
X18320309Y34986328D01*
X18320309Y34986328D02*
X18347293Y34932359D01*
X18347293Y34932359D02*
X18374277Y34905375D01*
X18374277Y34905375D02*
X18428245Y34878391D01*
X18428245Y34878391D02*
X18536182Y34878391D01*
X18536182Y34878391D02*
X18590150Y34905375D01*
X18590150Y34905375D02*
X18617134Y34932359D01*
X18617134Y34932359D02*
X18644118Y34986328D01*
D10*
X19332214Y34922213D02*
G75*
G02*
X17632214Y34922213I-850000J0D01*
G01*
X17632214Y34922213D02*
G75*
G02*
X19332214Y34922213I850000J0D01*
G01*
D11*
X18428245Y37526328D02*
X18374277Y37553312D01*
X18374277Y37553312D02*
X18347293Y37580296D01*
X18347293Y37580296D02*
X18320309Y37634264D01*
X18320309Y37634264D02*
X18320309Y37661248D01*
X18320309Y37661248D02*
X18347293Y37715216D01*
X18347293Y37715216D02*
X18374277Y37742200D01*
X18374277Y37742200D02*
X18428245Y37769184D01*
X18428245Y37769184D02*
X18536182Y37769184D01*
X18536182Y37769184D02*
X18590150Y37742200D01*
X18590150Y37742200D02*
X18617134Y37715216D01*
X18617134Y37715216D02*
X18644118Y37661248D01*
X18644118Y37661248D02*
X18644118Y37634264D01*
X18644118Y37634264D02*
X18617134Y37580296D01*
X18617134Y37580296D02*
X18590150Y37553312D01*
X18590150Y37553312D02*
X18536182Y37526328D01*
X18536182Y37526328D02*
X18428245Y37526328D01*
X18428245Y37526328D02*
X18374277Y37499343D01*
X18374277Y37499343D02*
X18347293Y37472359D01*
X18347293Y37472359D02*
X18320309Y37418391D01*
X18320309Y37418391D02*
X18320309Y37310455D01*
X18320309Y37310455D02*
X18347293Y37256487D01*
X18347293Y37256487D02*
X18374277Y37229502D01*
X18374277Y37229502D02*
X18428245Y37202518D01*
X18428245Y37202518D02*
X18536182Y37202518D01*
X18536182Y37202518D02*
X18590150Y37229502D01*
X18590150Y37229502D02*
X18617134Y37256487D01*
X18617134Y37256487D02*
X18644118Y37310455D01*
X18644118Y37310455D02*
X18644118Y37418391D01*
X18644118Y37418391D02*
X18617134Y37472359D01*
X18617134Y37472359D02*
X18590150Y37499343D01*
X18590150Y37499343D02*
X18536182Y37526328D01*
D10*
X19332214Y37462213D02*
G75*
G02*
X17632214Y37462213I-850000J0D01*
G01*
X17632214Y37462213D02*
G75*
G02*
X19332214Y37462213I850000J0D01*
G01*
D11*
X18293325Y40309184D02*
X18671102Y40309184D01*
X18671102Y40309184D02*
X18428245Y39742518D01*
D10*
X19332214Y40002213D02*
G75*
G02*
X17632214Y40002213I-850000J0D01*
G01*
X17632214Y40002213D02*
G75*
G02*
X19332214Y40002213I850000J0D01*
G01*
D11*
X18590150Y42849184D02*
X18482213Y42849184D01*
X18482213Y42849184D02*
X18428245Y42822200D01*
X18428245Y42822200D02*
X18401261Y42795216D01*
X18401261Y42795216D02*
X18347293Y42714264D01*
X18347293Y42714264D02*
X18320309Y42606328D01*
X18320309Y42606328D02*
X18320309Y42390455D01*
X18320309Y42390455D02*
X18347293Y42336487D01*
X18347293Y42336487D02*
X18374277Y42309502D01*
X18374277Y42309502D02*
X18428245Y42282518D01*
X18428245Y42282518D02*
X18536182Y42282518D01*
X18536182Y42282518D02*
X18590150Y42309502D01*
X18590150Y42309502D02*
X18617134Y42336487D01*
X18617134Y42336487D02*
X18644118Y42390455D01*
X18644118Y42390455D02*
X18644118Y42525375D01*
X18644118Y42525375D02*
X18617134Y42579343D01*
X18617134Y42579343D02*
X18590150Y42606328D01*
X18590150Y42606328D02*
X18536182Y42633312D01*
X18536182Y42633312D02*
X18428245Y42633312D01*
X18428245Y42633312D02*
X18374277Y42606328D01*
X18374277Y42606328D02*
X18347293Y42579343D01*
X18347293Y42579343D02*
X18320309Y42525375D01*
D10*
X19332214Y42542213D02*
G75*
G02*
X17632214Y42542213I-850000J0D01*
G01*
X17632214Y42542213D02*
G75*
G02*
X19332214Y42542213I850000J0D01*
G01*
D11*
X18617134Y45389184D02*
X18347293Y45389184D01*
X18347293Y45389184D02*
X18320309Y45119343D01*
X18320309Y45119343D02*
X18347293Y45146328D01*
X18347293Y45146328D02*
X18401261Y45173312D01*
X18401261Y45173312D02*
X18536182Y45173312D01*
X18536182Y45173312D02*
X18590150Y45146328D01*
X18590150Y45146328D02*
X18617134Y45119343D01*
X18617134Y45119343D02*
X18644118Y45065375D01*
X18644118Y45065375D02*
X18644118Y44930455D01*
X18644118Y44930455D02*
X18617134Y44876487D01*
X18617134Y44876487D02*
X18590150Y44849502D01*
X18590150Y44849502D02*
X18536182Y44822518D01*
X18536182Y44822518D02*
X18401261Y44822518D01*
X18401261Y44822518D02*
X18347293Y44849502D01*
X18347293Y44849502D02*
X18320309Y44876487D01*
D10*
X19332214Y45082213D02*
G75*
G02*
X17632214Y45082213I-850000J0D01*
G01*
X17632214Y45082213D02*
G75*
G02*
X19332214Y45082213I850000J0D01*
G01*
D11*
X18590150Y47740296D02*
X18590150Y47362518D01*
X18455229Y47956168D02*
X18320309Y47551407D01*
X18320309Y47551407D02*
X18671102Y47551407D01*
D10*
X19332214Y47622213D02*
G75*
G02*
X17632214Y47622213I-850000J0D01*
G01*
X17632214Y47622213D02*
G75*
G02*
X19332214Y47622213I850000J0D01*
G01*
D11*
X18293325Y50469184D02*
X18644118Y50469184D01*
X18644118Y50469184D02*
X18455229Y50253312D01*
X18455229Y50253312D02*
X18536182Y50253312D01*
X18536182Y50253312D02*
X18590150Y50226328D01*
X18590150Y50226328D02*
X18617134Y50199343D01*
X18617134Y50199343D02*
X18644118Y50145375D01*
X18644118Y50145375D02*
X18644118Y50010455D01*
X18644118Y50010455D02*
X18617134Y49956487D01*
X18617134Y49956487D02*
X18590150Y49929502D01*
X18590150Y49929502D02*
X18536182Y49902518D01*
X18536182Y49902518D02*
X18374277Y49902518D01*
X18374277Y49902518D02*
X18320309Y49929502D01*
X18320309Y49929502D02*
X18293325Y49956487D01*
D10*
X19332214Y50162213D02*
G75*
G02*
X17632214Y50162213I-850000J0D01*
G01*
X17632214Y50162213D02*
G75*
G02*
X19332214Y50162213I850000J0D01*
G01*
D11*
X18320309Y52955216D02*
X18347293Y52982200D01*
X18347293Y52982200D02*
X18401261Y53009184D01*
X18401261Y53009184D02*
X18536182Y53009184D01*
X18536182Y53009184D02*
X18590150Y52982200D01*
X18590150Y52982200D02*
X18617134Y52955216D01*
X18617134Y52955216D02*
X18644118Y52901248D01*
X18644118Y52901248D02*
X18644118Y52847280D01*
X18644118Y52847280D02*
X18617134Y52766328D01*
X18617134Y52766328D02*
X18293325Y52442518D01*
X18293325Y52442518D02*
X18644118Y52442518D01*
D10*
X19332214Y52702213D02*
G75*
G02*
X17632214Y52702213I-850000J0D01*
G01*
X17632214Y52702213D02*
G75*
G02*
X19332214Y52702213I850000J0D01*
G01*
D11*
X18644118Y54982518D02*
X18320309Y54982518D01*
X18482213Y54982518D02*
X18482213Y55549184D01*
X18482213Y55549184D02*
X18428245Y55468232D01*
X18428245Y55468232D02*
X18374277Y55414264D01*
X18374277Y55414264D02*
X18320309Y55387280D01*
D10*
X17632214Y56092213D02*
X17632214Y54392213D01*
X19332214Y54392213D01*
X19332214Y56092213D01*
X17632214Y56092213D01*
%TD*%
D11*
X27253134Y37769184D02*
X26983293Y37769184D01*
X26983293Y37769184D02*
X26956309Y37499343D01*
X26956309Y37499343D02*
X26983293Y37526328D01*
X26983293Y37526328D02*
X27037261Y37553312D01*
X27037261Y37553312D02*
X27172182Y37553312D01*
X27172182Y37553312D02*
X27226150Y37526328D01*
X27226150Y37526328D02*
X27253134Y37499343D01*
X27253134Y37499343D02*
X27280118Y37445375D01*
X27280118Y37445375D02*
X27280118Y37310455D01*
X27280118Y37310455D02*
X27253134Y37256487D01*
X27253134Y37256487D02*
X27226150Y37229502D01*
X27226150Y37229502D02*
X27172182Y37202518D01*
X27172182Y37202518D02*
X27037261Y37202518D01*
X27037261Y37202518D02*
X26983293Y37229502D01*
X26983293Y37229502D02*
X26956309Y37256487D01*
D10*
%TO.C,J5*%
X27968214Y37462213D02*
G75*
G02*
X26268214Y37462213I-850000J0D01*
G01*
X26268214Y37462213D02*
G75*
G02*
X27968214Y37462213I850000J0D01*
G01*
D11*
X27226150Y40120296D02*
X27226150Y39742518D01*
X27091229Y40336168D02*
X26956309Y39931407D01*
X26956309Y39931407D02*
X27307102Y39931407D01*
D10*
X27968214Y40002213D02*
G75*
G02*
X26268214Y40002213I-850000J0D01*
G01*
X26268214Y40002213D02*
G75*
G02*
X27968214Y40002213I850000J0D01*
G01*
D11*
X26929325Y42849184D02*
X27280118Y42849184D01*
X27280118Y42849184D02*
X27091229Y42633312D01*
X27091229Y42633312D02*
X27172182Y42633312D01*
X27172182Y42633312D02*
X27226150Y42606328D01*
X27226150Y42606328D02*
X27253134Y42579343D01*
X27253134Y42579343D02*
X27280118Y42525375D01*
X27280118Y42525375D02*
X27280118Y42390455D01*
X27280118Y42390455D02*
X27253134Y42336487D01*
X27253134Y42336487D02*
X27226150Y42309502D01*
X27226150Y42309502D02*
X27172182Y42282518D01*
X27172182Y42282518D02*
X27010277Y42282518D01*
X27010277Y42282518D02*
X26956309Y42309502D01*
X26956309Y42309502D02*
X26929325Y42336487D01*
D10*
X27968214Y42542213D02*
G75*
G02*
X26268214Y42542213I-850000J0D01*
G01*
X26268214Y42542213D02*
G75*
G02*
X27968214Y42542213I850000J0D01*
G01*
D11*
X26956309Y45335216D02*
X26983293Y45362200D01*
X26983293Y45362200D02*
X27037261Y45389184D01*
X27037261Y45389184D02*
X27172182Y45389184D01*
X27172182Y45389184D02*
X27226150Y45362200D01*
X27226150Y45362200D02*
X27253134Y45335216D01*
X27253134Y45335216D02*
X27280118Y45281248D01*
X27280118Y45281248D02*
X27280118Y45227280D01*
X27280118Y45227280D02*
X27253134Y45146328D01*
X27253134Y45146328D02*
X26929325Y44822518D01*
X26929325Y44822518D02*
X27280118Y44822518D01*
D10*
X27968214Y45082213D02*
G75*
G02*
X26268214Y45082213I-850000J0D01*
G01*
X26268214Y45082213D02*
G75*
G02*
X27968214Y45082213I850000J0D01*
G01*
D11*
X27280118Y47362518D02*
X26956309Y47362518D01*
X27118213Y47362518D02*
X27118213Y47929184D01*
X27118213Y47929184D02*
X27064245Y47848232D01*
X27064245Y47848232D02*
X27010277Y47794264D01*
X27010277Y47794264D02*
X26956309Y47767280D01*
D10*
X26268214Y48472213D02*
X26268214Y46772213D01*
X27968214Y46772213D01*
X27968214Y48472213D01*
X26268214Y48472213D01*
%TD*%
D12*
X36663452Y4673003D02*
X36348976Y4673003D01*
X36506214Y4673003D02*
X36506214Y5223336D01*
X36506214Y5223336D02*
X36453801Y5144717D01*
X36453801Y5144717D02*
X36401389Y5092304D01*
X36401389Y5092304D02*
X36348976Y5066098D01*
D10*
%TO.C,J1*%
X37331714Y4925213D02*
G75*
G02*
X35680714Y4925213I-825500J0D01*
G01*
X35680714Y4925213D02*
G75*
G02*
X37331714Y4925213I825500J0D01*
G01*
D12*
X31268976Y5170923D02*
X31295182Y5197130D01*
X31295182Y5197130D02*
X31347595Y5223336D01*
X31347595Y5223336D02*
X31478627Y5223336D01*
X31478627Y5223336D02*
X31531039Y5197130D01*
X31531039Y5197130D02*
X31557246Y5170923D01*
X31557246Y5170923D02*
X31583452Y5118511D01*
X31583452Y5118511D02*
X31583452Y5066098D01*
X31583452Y5066098D02*
X31557246Y4987479D01*
X31557246Y4987479D02*
X31242770Y4673003D01*
X31242770Y4673003D02*
X31583452Y4673003D01*
D10*
X32251714Y4925213D02*
G75*
G02*
X30600714Y4925213I-825500J0D01*
G01*
X30600714Y4925213D02*
G75*
G02*
X32251714Y4925213I825500J0D01*
G01*
%TD*%
M02*
