%TF.GenerationSoftware,KiCad,Pcbnew,9.0.7*%
%TF.CreationDate,2026-02-25T19:31:37+11:00*%
%TF.ProjectId,vibe-board-reborne,76696265-2d62-46f6-9172-642d7265626f,rev?*%
%TF.SameCoordinates,PX39c773aPY7b6b445*%
%TF.FileFunction,Soldermask,Bot*%
%TF.FilePolarity,Negative*%
%FSLAX46Y46*%
G04 Gerber Fmt 4.6, Leading zero omitted, Abs format (unit mm)*
G04 Created by KiCad (PCBNEW 9.0.7) date 2026-02-25 19:31:37*
%MOMM*%
%LPD*%
G01*
G04 APERTURE LIST*
%ADD10C,3.200000*%
%ADD11C,1.700000*%
%ADD12R,1.700000X1.700000*%
%ADD13C,1.651000*%
G04 APERTURE END LIST*
D10*
%TO.C,H2*%
X4414214Y3414213D03*
%TD*%
%TO.C,H3*%
X44414214Y3414213D03*
%TD*%
D11*
%TO.C,J11*%
X42866214Y55242213D03*
X42866214Y52702213D03*
X42866214Y50162213D03*
X42866214Y47622213D03*
X42866214Y45082213D03*
X42866214Y42542213D03*
X42866214Y40002213D03*
D12*
X42866214Y37462213D03*
%TD*%
D11*
%TO.C,J4*%
X46422214Y55242213D03*
X46422214Y52702213D03*
X46422214Y50162213D03*
X46422214Y47622213D03*
X46422214Y45082213D03*
X46422214Y42542213D03*
X46422214Y40002213D03*
D12*
X46422214Y37462213D03*
%TD*%
D10*
%TO.C,H1*%
X24414214Y55858213D03*
%TD*%
D11*
%TO.C,J10*%
X3232214Y9116213D03*
X5772214Y9116213D03*
X8312214Y9116213D03*
X10852214Y9116213D03*
X13392214Y9116213D03*
X15932214Y9116213D03*
X18472214Y9116213D03*
X21012214Y9116213D03*
D12*
X23552214Y9116213D03*
%TD*%
D11*
%TO.C,J3*%
X3232214Y12672213D03*
X5772214Y12672213D03*
X8312214Y12672213D03*
X10852214Y12672213D03*
X13392214Y12672213D03*
X15932214Y12672213D03*
X18472214Y12672213D03*
X21012214Y12672213D03*
D12*
X23552214Y12672213D03*
%TD*%
D11*
%TO.C,J12*%
X30702214Y37462213D03*
X30702214Y40002213D03*
X30702214Y42542213D03*
X30702214Y45082213D03*
D12*
X30702214Y47622213D03*
%TD*%
D11*
%TO.C,J9*%
X8322214Y19682213D03*
X8322214Y22222213D03*
X8322214Y24762213D03*
X8322214Y27302213D03*
X8322214Y29842213D03*
X8322214Y32382213D03*
X8322214Y34922213D03*
X8322214Y37462213D03*
X8322214Y40002213D03*
X8322214Y42542213D03*
X8322214Y45082213D03*
X8322214Y47622213D03*
X8322214Y50162213D03*
X8322214Y52702213D03*
D12*
X8322214Y55242213D03*
%TD*%
D11*
%TO.C,J8*%
X13402214Y19682213D03*
X13402214Y22222213D03*
X13402214Y24762213D03*
X13402214Y27302213D03*
X13402214Y29842213D03*
X13402214Y32382213D03*
X13402214Y34922213D03*
X13402214Y37462213D03*
X13402214Y40002213D03*
X13402214Y42542213D03*
X13402214Y45082213D03*
X13402214Y47622213D03*
X13402214Y50162213D03*
X13402214Y52702213D03*
D12*
X13402214Y55242213D03*
%TD*%
D11*
%TO.C,J7*%
X3242214Y19682213D03*
X3242214Y22222213D03*
X3242214Y24762213D03*
X3242214Y27302213D03*
X3242214Y29842213D03*
X3242214Y32382213D03*
X3242214Y34922213D03*
X3242214Y37462213D03*
X3242214Y40002213D03*
X3242214Y42542213D03*
X3242214Y45082213D03*
X3242214Y47622213D03*
X3242214Y50162213D03*
X3242214Y52702213D03*
D12*
X3242214Y55242213D03*
%TD*%
D11*
%TO.C,J6*%
X18482214Y19682213D03*
X18482214Y22222213D03*
X18482214Y24762213D03*
X18482214Y27302213D03*
X18482214Y29842213D03*
X18482214Y32382213D03*
X18482214Y34922213D03*
X18482214Y37462213D03*
X18482214Y40002213D03*
X18482214Y42542213D03*
X18482214Y45082213D03*
X18482214Y47622213D03*
X18482214Y50162213D03*
X18482214Y52702213D03*
D12*
X18482214Y55242213D03*
%TD*%
D11*
%TO.C,J5*%
X27118214Y37462213D03*
X27118214Y40002213D03*
X27118214Y42542213D03*
X27118214Y45082213D03*
D12*
X27118214Y47622213D03*
%TD*%
D13*
%TO.C,J1*%
X36506214Y4925213D03*
X31426214Y4925213D03*
%TD*%
M02*
