%TF.GenerationSoftware,KiCad,Pcbnew,9.0.7*%
%TF.CreationDate,2026-02-25T19:31:36+11:00*%
%TF.ProjectId,vibe-board-reborne,76696265-2d62-46f6-9172-642d7265626f,rev?*%
%TF.SameCoordinates,PX39c773aPY7b6b445*%
%TF.FileFunction,Legend,Bot*%
%TF.FilePolarity,Positive*%
%FSLAX46Y46*%
G04 Gerber Fmt 4.6, Leading zero omitted, Abs format (unit mm)*
G04 Created by KiCad (PCBNEW 9.0.7) date 2026-02-25 19:31:36*
%MOMM*%
%LPD*%
G01*
G04 APERTURE LIST*
%ADD10C,0.300000*%
%ADD11C,0.000000*%
%ADD12C,3.200000*%
%ADD13C,1.700000*%
%ADD14R,1.700000X1.700000*%
%ADD15C,1.651000*%
G04 APERTURE END LIST*
D10*
X38525641Y14975456D02*
X38668499Y15046885D01*
X38668499Y15046885D02*
X38882784Y15046885D01*
X38882784Y15046885D02*
X39097070Y14975456D01*
X39097070Y14975456D02*
X39239927Y14832599D01*
X39239927Y14832599D02*
X39311356Y14689742D01*
X39311356Y14689742D02*
X39382784Y14404028D01*
X39382784Y14404028D02*
X39382784Y14189742D01*
X39382784Y14189742D02*
X39311356Y13904028D01*
X39311356Y13904028D02*
X39239927Y13761171D01*
X39239927Y13761171D02*
X39097070Y13618313D01*
X39097070Y13618313D02*
X38882784Y13546885D01*
X38882784Y13546885D02*
X38739927Y13546885D01*
X38739927Y13546885D02*
X38525641Y13618313D01*
X38525641Y13618313D02*
X38454213Y13689742D01*
X38454213Y13689742D02*
X38454213Y14189742D01*
X38454213Y14189742D02*
X38739927Y14189742D01*
X37597070Y15046885D02*
X37597070Y14689742D01*
X37954213Y14832599D02*
X37597070Y14689742D01*
X37597070Y14689742D02*
X37239927Y14832599D01*
X37811356Y14404028D02*
X37597070Y14689742D01*
X37597070Y14689742D02*
X37382784Y14404028D01*
X36454213Y15046885D02*
X36454213Y14689742D01*
X36811356Y14832599D02*
X36454213Y14689742D01*
X36454213Y14689742D02*
X36097070Y14832599D01*
X36668499Y14404028D02*
X36454213Y14689742D01*
X36454213Y14689742D02*
X36239927Y14404028D01*
X35311356Y15046885D02*
X35311356Y14689742D01*
X35668499Y14832599D02*
X35311356Y14689742D01*
X35311356Y14689742D02*
X34954213Y14832599D01*
X35525642Y14404028D02*
X35311356Y14689742D01*
X35311356Y14689742D02*
X35097070Y14404028D01*
D11*
%TO.C,G\u002A\u002A\u002A*%
G36*
X46479484Y31962862D02*
G01*
X46487082Y31907902D01*
X46464958Y31887879D01*
X46413934Y31892471D01*
X46407946Y31893701D01*
X46247797Y31921500D01*
X46117021Y31934798D01*
X46028852Y31932878D01*
X45996522Y31915027D01*
X45998912Y31902457D01*
X46038094Y31877325D01*
X46046422Y31876750D01*
X46119705Y31855570D01*
X46225583Y31811177D01*
X46344373Y31753567D01*
X46456395Y31692735D01*
X46541967Y31638678D01*
X46581406Y31601390D01*
X46581826Y31600257D01*
X46595200Y31537021D01*
X46610220Y31426884D01*
X46623713Y31292974D01*
X46630904Y31204170D01*
X46634243Y31104816D01*
X46622447Y31042190D01*
X46589950Y30995234D01*
X46531184Y30942889D01*
X46424082Y30861043D01*
X46195004Y30717300D01*
X45908889Y30567040D01*
X45573774Y30414078D01*
X45197695Y30262232D01*
X44788690Y30115319D01*
X44750764Y30102606D01*
X44590503Y30051934D01*
X44458978Y30015189D01*
X44368917Y29995683D01*
X44333048Y29996730D01*
X44333155Y30012208D01*
X44355788Y30079069D01*
X44401320Y30170605D01*
X44409033Y30183980D01*
X44452744Y30245957D01*
X44512270Y30303192D01*
X44599746Y30364393D01*
X44727309Y30438270D01*
X44907097Y30533531D01*
X44936415Y30548811D01*
X45180741Y30684465D01*
X45361586Y30803018D01*
X45482965Y30907877D01*
X45548896Y31002448D01*
X45563395Y31090138D01*
X45550087Y31137242D01*
X45473723Y31222306D01*
X45330762Y31290903D01*
X45120279Y31343404D01*
X44841351Y31380180D01*
X44650277Y31399441D01*
X44469256Y31423902D01*
X44335156Y31452957D01*
X44234698Y31490575D01*
X44154605Y31540727D01*
X44081599Y31607385D01*
X43962679Y31730080D01*
X44100369Y31766537D01*
X44112735Y31769736D01*
X44201333Y31791126D01*
X44329494Y31820733D01*
X44479085Y31854525D01*
X44631976Y31888467D01*
X44770034Y31918528D01*
X44875127Y31940673D01*
X44929124Y31950871D01*
X44925512Y31959219D01*
X44925148Y31959406D01*
X45228273Y31959406D01*
X45276075Y31847590D01*
X45363620Y31774813D01*
X45480318Y31739123D01*
X45597711Y31746911D01*
X45689873Y31801093D01*
X45730976Y31872129D01*
X45744781Y31992221D01*
X45711742Y32112884D01*
X45635488Y32207025D01*
X45597525Y32230768D01*
X45485020Y32257309D01*
X45379109Y32230708D01*
X45292524Y32163700D01*
X45238001Y32069022D01*
X45228273Y31959406D01*
X44925148Y31959406D01*
X44877501Y31983899D01*
X44865211Y31987605D01*
X44785447Y31998429D01*
X44654516Y32007496D01*
X44487467Y32013949D01*
X44299349Y32016926D01*
X43792246Y32019423D01*
X43754801Y32117116D01*
X43735474Y32175604D01*
X43700067Y32292654D01*
X43653149Y32453311D01*
X43598484Y32644679D01*
X43539833Y32853862D01*
X43483090Y33053586D01*
X43428498Y33237019D01*
X43381279Y33386936D01*
X43345122Y33491637D01*
X43323714Y33539422D01*
X43288697Y33563898D01*
X43210959Y33575333D01*
X43207642Y33574797D01*
X43165885Y33551434D01*
X43138835Y33494376D01*
X43126120Y33396386D01*
X43127368Y33250227D01*
X43142206Y33048663D01*
X43170262Y32784458D01*
X43172092Y32768565D01*
X43192944Y32571927D01*
X43209954Y32383860D01*
X43221413Y32225000D01*
X43225613Y32115983D01*
X43225613Y31924950D01*
X42932536Y31863006D01*
X42845251Y31843672D01*
X42481293Y31745887D01*
X42114645Y31622377D01*
X41763721Y31480431D01*
X41446936Y31327337D01*
X41182702Y31170384D01*
X41114868Y31125543D01*
X41039372Y31078509D01*
X41003552Y31060262D01*
X40997337Y31063590D01*
X40986594Y31114295D01*
X40988628Y31213979D01*
X41002017Y31346998D01*
X41025339Y31497704D01*
X41057174Y31650453D01*
X41068917Y31697671D01*
X41211745Y32116251D01*
X41413643Y32503414D01*
X41668926Y32853309D01*
X41971907Y33160087D01*
X42316903Y33417895D01*
X42698227Y33620884D01*
X43110194Y33763203D01*
X43342234Y33807307D01*
X43639111Y33833201D01*
X43950620Y33834676D01*
X44249652Y33811712D01*
X44509097Y33764288D01*
X44630652Y33727946D01*
X44852793Y33643951D01*
X45082824Y33539606D01*
X45295019Y33426938D01*
X45463655Y33317975D01*
X45682283Y33136040D01*
X45963297Y32841554D01*
X46204864Y32515140D01*
X46391336Y32176056D01*
X46441343Y32063081D01*
X46468311Y31992221D01*
X46479484Y31962862D01*
G37*
G36*
X43701063Y29512202D02*
G01*
X43733255Y29452780D01*
X43754748Y29402651D01*
X43797683Y29285107D01*
X43847979Y29133425D01*
X43898678Y28967996D01*
X43924369Y28881566D01*
X43976802Y28717579D01*
X44020376Y28608000D01*
X44060768Y28542508D01*
X44103655Y28510782D01*
X44154714Y28502500D01*
X44157359Y28502517D01*
X44200611Y28511122D01*
X44229759Y28542086D01*
X44246063Y28605059D01*
X44250787Y28709695D01*
X44245190Y28865646D01*
X44230536Y29082564D01*
X44228114Y29115559D01*
X44216951Y29290009D01*
X44210134Y29437869D01*
X44208204Y29544404D01*
X44211703Y29594878D01*
X44212266Y29596271D01*
X44257545Y29626697D01*
X44340444Y29639283D01*
X44363389Y29640099D01*
X44486906Y29656576D01*
X44658070Y29691182D01*
X44861501Y29739871D01*
X45081815Y29798593D01*
X45303633Y29863302D01*
X45511571Y29929950D01*
X45690249Y29994488D01*
X45779238Y30030818D01*
X45972953Y30117910D01*
X46160632Y30211277D01*
X46311741Y30296104D01*
X46360521Y30326049D01*
X46470830Y30392697D01*
X46550035Y30438999D01*
X46583535Y30456346D01*
X46580853Y30427087D01*
X46561808Y30347154D01*
X46530448Y30234318D01*
X46464128Y30033945D01*
X46277553Y29628015D01*
X46035752Y29262396D01*
X45743543Y28941267D01*
X45405746Y28668807D01*
X45027179Y28449192D01*
X44612661Y28286601D01*
X44167011Y28185213D01*
X44034460Y28169762D01*
X43658767Y28169114D01*
X43269928Y28225416D01*
X42883234Y28334734D01*
X42513977Y28493139D01*
X42177449Y28696698D01*
X42141416Y28723204D01*
X41979005Y28858184D01*
X41809535Y29019578D01*
X41649176Y29190392D01*
X41514099Y29353629D01*
X41420473Y29492296D01*
X41385739Y29554403D01*
X41960317Y29554403D01*
X41988090Y29436987D01*
X42048404Y29320765D01*
X42128506Y29235395D01*
X42216133Y29191006D01*
X42356992Y29172219D01*
X42494992Y29203557D01*
X42613729Y29277220D01*
X42696795Y29385408D01*
X42727785Y29520319D01*
X42725771Y29595850D01*
X42705419Y29726508D01*
X42656080Y29817037D01*
X42569060Y29887553D01*
X42437254Y29945767D01*
X42285227Y29954649D01*
X42149914Y29899837D01*
X42040247Y29785361D01*
X41965160Y29615248D01*
X41960317Y29554403D01*
X41385739Y29554403D01*
X41338269Y29639283D01*
X41473759Y29641587D01*
X41609249Y29643891D01*
X41430256Y29714540D01*
X41340177Y29753362D01*
X41271020Y29800962D01*
X41222563Y29871565D01*
X41173781Y29987551D01*
X41106673Y30177201D01*
X41058463Y30345056D01*
X41034370Y30473029D01*
X41037368Y30548875D01*
X41040792Y30555776D01*
X41095049Y30611516D01*
X41198972Y30688530D01*
X41340095Y30779153D01*
X41505951Y30875719D01*
X41684077Y30970560D01*
X41862005Y31056012D01*
X41870702Y31059906D01*
X42001517Y31115125D01*
X42163498Y31178893D01*
X42344463Y31246942D01*
X42532231Y31315004D01*
X42714622Y31378812D01*
X42879456Y31434099D01*
X43014552Y31476597D01*
X43107730Y31502037D01*
X43146808Y31506154D01*
X43149740Y31499521D01*
X43135594Y31447797D01*
X43092510Y31368938D01*
X43033464Y31284432D01*
X42971436Y31215768D01*
X42920893Y31178771D01*
X42815441Y31113815D01*
X42676859Y31035585D01*
X42521888Y30953834D01*
X42385988Y30882177D01*
X42173732Y30755096D01*
X42025867Y30641186D01*
X41939368Y30537915D01*
X41911207Y30442748D01*
X41926533Y30375140D01*
X41992751Y30300924D01*
X42114745Y30239238D01*
X42296237Y30188792D01*
X42540950Y30148296D01*
X42852606Y30116460D01*
X42876785Y30114363D01*
X43024326Y30095722D01*
X43151363Y30070689D01*
X43232659Y30044069D01*
X43301865Y29998683D01*
X43385480Y29927876D01*
X43461713Y29850947D01*
X43514296Y29784433D01*
X43526962Y29744872D01*
X43502882Y29731362D01*
X43425334Y29705880D01*
X43315587Y29678173D01*
X43231465Y29655573D01*
X43158540Y29625672D01*
X43138439Y29601109D01*
X43140030Y29599221D01*
X43189628Y29583538D01*
X43288619Y29572443D01*
X43417500Y29568234D01*
X43508898Y29567896D01*
X43607484Y29562960D01*
X43665339Y29546662D01*
X43692648Y29520319D01*
X43701063Y29512202D01*
G37*
G36*
X26847744Y30216449D02*
G01*
X26806896Y29987147D01*
X26803399Y29976296D01*
X26732901Y29848582D01*
X26618582Y29719916D01*
X26481782Y29610824D01*
X26343847Y29541832D01*
X26326521Y29536724D01*
X26193180Y29513466D01*
X26027922Y29502802D01*
X25856227Y29504617D01*
X25703577Y29518796D01*
X25595451Y29545223D01*
X25568064Y29558384D01*
X25464010Y29626414D01*
X25365683Y29711827D01*
X25250228Y29830394D01*
X25250228Y29681552D01*
X25250228Y29532710D01*
X24855659Y29532710D01*
X24461090Y29532710D01*
X24476426Y30340892D01*
X24480406Y30527395D01*
X25317564Y30527395D01*
X25328302Y30342090D01*
X25332134Y30287622D01*
X25348782Y30194050D01*
X25386790Y30132576D01*
X25459747Y30075656D01*
X25554052Y30026851D01*
X25697951Y29995993D01*
X25836550Y30008274D01*
X25954523Y30059095D01*
X26036545Y30143857D01*
X26067291Y30257963D01*
X26063220Y30299576D01*
X26007649Y30398777D01*
X25887543Y30470022D01*
X25703609Y30513000D01*
X25456560Y30527395D01*
X25317564Y30527395D01*
X24480406Y30527395D01*
X24481990Y30601611D01*
X24488382Y30811820D01*
X24496334Y30971754D01*
X24506773Y31091982D01*
X24520623Y31183069D01*
X24538813Y31255582D01*
X24562268Y31320088D01*
X24569236Y31336510D01*
X24699232Y31549394D01*
X24881557Y31724207D01*
X25102582Y31847638D01*
X25289335Y31899537D01*
X25523547Y31927644D01*
X25779591Y31930444D01*
X26039344Y31909437D01*
X26284682Y31866126D01*
X26497484Y31802012D01*
X26659625Y31718599D01*
X26736855Y31663933D01*
X26608780Y31400186D01*
X26480705Y31136438D01*
X26352801Y31201690D01*
X26312470Y31221202D01*
X26117832Y31289215D01*
X25921893Y31320457D01*
X25736041Y31317130D01*
X25571665Y31281436D01*
X25440153Y31215579D01*
X25352894Y31121761D01*
X25321277Y31002185D01*
X25322029Y30976277D01*
X25331742Y30948163D01*
X25362800Y30930992D01*
X25427629Y30922067D01*
X25538655Y30918691D01*
X25708304Y30918165D01*
X25812861Y30916499D01*
X26130208Y30886637D01*
X26391611Y30820353D01*
X26595569Y30718919D01*
X26740578Y30583608D01*
X26825138Y30415694D01*
X26843034Y30257963D01*
X26847744Y30216449D01*
G37*
G36*
X28356900Y31926710D02*
G01*
X28691585Y31859011D01*
X28739097Y31843091D01*
X28898500Y31761292D01*
X29053339Y31630046D01*
X29135114Y31540441D01*
X29224393Y31396547D01*
X29261874Y31238897D01*
X29255831Y31043526D01*
X29243648Y30971831D01*
X29179358Y30815569D01*
X29062990Y30686974D01*
X28890264Y30583158D01*
X28656900Y30501237D01*
X28358620Y30438321D01*
X28145570Y30396974D01*
X27980378Y30349778D01*
X27878385Y30300030D01*
X27843515Y30249170D01*
X27854658Y30216539D01*
X27894072Y30152297D01*
X27913702Y30129850D01*
X27954507Y30105760D01*
X28021485Y30091951D01*
X28129577Y30085911D01*
X28293723Y30085131D01*
X28306017Y30085203D01*
X28485984Y30089961D01*
X28621692Y30104146D01*
X28738291Y30131838D01*
X28860932Y30177114D01*
X29079050Y30267306D01*
X29189622Y30015462D01*
X29200887Y29989660D01*
X29251319Y29870187D01*
X29286752Y29779699D01*
X29300106Y29736096D01*
X29284446Y29713407D01*
X29214953Y29675549D01*
X29085546Y29626406D01*
X28891487Y29563985D01*
X28838795Y29549740D01*
X28646584Y29517732D01*
X28422418Y29502452D01*
X28186615Y29503362D01*
X27959499Y29519924D01*
X27761388Y29551599D01*
X27612606Y29597849D01*
X27500925Y29655850D01*
X27313963Y29798001D01*
X27184133Y29966190D01*
X27114887Y30152939D01*
X27109679Y30350771D01*
X27171962Y30552206D01*
X27209416Y30619816D01*
X27282422Y30710044D01*
X27381256Y30785543D01*
X27514919Y30850360D01*
X27692414Y30908542D01*
X27922740Y30964138D01*
X28214900Y31021195D01*
X28330106Y31046668D01*
X28447982Y31093512D01*
X28503782Y31153939D01*
X28502671Y31231729D01*
X28499452Y31240472D01*
X28435733Y31307680D01*
X28319710Y31351669D01*
X28165012Y31371698D01*
X27985269Y31367024D01*
X27794110Y31336905D01*
X27605164Y31280599D01*
X27427525Y31213101D01*
X27313073Y31479264D01*
X27302005Y31505038D01*
X27248775Y31636459D01*
X27229289Y31720548D01*
X27247938Y31772595D01*
X27309118Y31807892D01*
X27417221Y31841731D01*
X27623463Y31891743D01*
X27995620Y31937549D01*
X28356900Y31926710D01*
G37*
G36*
X32096420Y30894070D02*
G01*
X32100743Y30626194D01*
X32096271Y30565800D01*
X32037069Y30287502D01*
X31916933Y30045129D01*
X31736830Y29839840D01*
X31497723Y29672794D01*
X31200578Y29545148D01*
X31094140Y29522689D01*
X30909422Y29508496D01*
X30667711Y29508217D01*
X30531971Y29512661D01*
X30385246Y29522704D01*
X30274605Y29540428D01*
X30179518Y29569511D01*
X30079459Y29613632D01*
X29990938Y29660448D01*
X29879345Y29730689D01*
X29804718Y29791312D01*
X29727459Y29873551D01*
X29937002Y30080908D01*
X30146545Y30288265D01*
X30282153Y30204454D01*
X30382402Y30158852D01*
X30558612Y30121090D01*
X30751157Y30114870D01*
X30933480Y30140407D01*
X31079023Y30197921D01*
X31183761Y30285500D01*
X31260098Y30392422D01*
X31289389Y30493542D01*
X31284000Y30497902D01*
X31223308Y30507898D01*
X31099971Y30516078D01*
X30920017Y30522210D01*
X30689473Y30526060D01*
X30414368Y30527395D01*
X29539346Y30527395D01*
X29556376Y30792758D01*
X29575379Y30918165D01*
X30289916Y30918165D01*
X30809808Y30918165D01*
X31329701Y30918165D01*
X31306617Y30998095D01*
X31246970Y31126265D01*
X31127909Y31257474D01*
X30975887Y31346852D01*
X30809808Y31379872D01*
X30673580Y31357520D01*
X30517579Y31277354D01*
X30391084Y31152704D01*
X30313000Y30998095D01*
X30289916Y30918165D01*
X29575379Y30918165D01*
X29593716Y31039179D01*
X29692402Y31306311D01*
X29845791Y31533912D01*
X30049764Y31716141D01*
X30300201Y31847158D01*
X30370820Y31871917D01*
X30663220Y31933762D01*
X30955842Y31935602D01*
X31237600Y31880494D01*
X31497407Y31771497D01*
X31724176Y31611668D01*
X31906820Y31404064D01*
X31953980Y31329918D01*
X32049168Y31121949D01*
X32091424Y30918165D01*
X32096420Y30894070D01*
G37*
G36*
X39495543Y29532710D02*
G01*
X39104774Y29532710D01*
X38714004Y29532710D01*
X38714004Y29641702D01*
X38714004Y29750695D01*
X38609846Y29676527D01*
X38503878Y29609871D01*
X38387818Y29549434D01*
X38353772Y29536527D01*
X38206249Y29508369D01*
X38023276Y29501302D01*
X37829305Y29514086D01*
X37648787Y29545477D01*
X37506172Y29594233D01*
X37435943Y29632900D01*
X37251070Y29771068D01*
X37090289Y29941041D01*
X36976429Y30120154D01*
X36950447Y30178703D01*
X36864711Y30463505D01*
X36842446Y30726405D01*
X37679354Y30726405D01*
X37682196Y30634931D01*
X37715167Y30447898D01*
X37788756Y30308483D01*
X37907547Y30206237D01*
X38027293Y30157671D01*
X38181137Y30136892D01*
X38294715Y30146917D01*
X38461324Y30210036D01*
X38585532Y30327184D01*
X38663182Y30493724D01*
X38690120Y30705018D01*
X38687191Y30787262D01*
X38645473Y30989605D01*
X38554564Y31141234D01*
X38414741Y31241611D01*
X38379101Y31257252D01*
X38241488Y31300058D01*
X38116340Y31298060D01*
X37969391Y31252063D01*
X37871751Y31201247D01*
X37762251Y31090624D01*
X37699425Y30934711D01*
X37679354Y30726405D01*
X36842446Y30726405D01*
X36840532Y30749005D01*
X36874838Y31025674D01*
X36964556Y31283985D01*
X37106614Y31514411D01*
X37297938Y31707426D01*
X37535456Y31853501D01*
X37573834Y31870153D01*
X37689023Y31906083D01*
X37825021Y31924773D01*
X38006651Y31930265D01*
X38098626Y31929837D01*
X38224344Y31924018D01*
X38316299Y31906939D01*
X38398540Y31873007D01*
X38495113Y31816625D01*
X38678480Y31702638D01*
X38678480Y32251800D01*
X38678480Y32800962D01*
X39087011Y32800962D01*
X39495543Y32800962D01*
X39495543Y31166836D01*
X39495543Y30705018D01*
X39495543Y29532710D01*
G37*
G36*
X23829249Y32125997D02*
G01*
X23829249Y31806276D01*
X24006871Y31806276D01*
X24184494Y31806276D01*
X24184494Y31504318D01*
X24184494Y31202360D01*
X24006871Y31202360D01*
X23829249Y31202360D01*
X23829249Y30693584D01*
X23828972Y30612022D01*
X23822668Y30366059D01*
X23805495Y30175096D01*
X23774086Y30026868D01*
X23725072Y29909109D01*
X23655085Y29809555D01*
X23560756Y29715941D01*
X23494141Y29662073D01*
X23381892Y29586955D01*
X23288742Y29541832D01*
X23248709Y29531039D01*
X23099502Y29509249D01*
X22919519Y29500933D01*
X22733959Y29505746D01*
X22568016Y29523344D01*
X22446889Y29553379D01*
X22306449Y29609572D01*
X22403311Y29881980D01*
X22418284Y29922935D01*
X22466293Y30039920D01*
X22507447Y30120310D01*
X22534152Y30148631D01*
X22538272Y30147922D01*
X22600448Y30136700D01*
X22693420Y30119521D01*
X22719753Y30115183D01*
X22822260Y30119268D01*
X22915448Y30172262D01*
X22930404Y30184105D01*
X22964853Y30215681D01*
X22987947Y30253404D01*
X23001957Y30310251D01*
X23009154Y30399206D01*
X23011806Y30533248D01*
X23012186Y30725358D01*
X23012186Y31202360D01*
X22745753Y31202360D01*
X22479319Y31202360D01*
X22479319Y31504318D01*
X22479319Y31806276D01*
X22745753Y31806276D01*
X23012186Y31806276D01*
X23012186Y32125997D01*
X23012186Y32445717D01*
X23420718Y32445717D01*
X23829249Y32445717D01*
X23829249Y32125997D01*
G37*
G36*
X33356023Y31211241D02*
G01*
X33359840Y31017827D01*
X33367950Y30787002D01*
X33381233Y30611351D01*
X33402142Y30481432D01*
X33433134Y30387802D01*
X33476664Y30321020D01*
X33535190Y30271643D01*
X33611165Y30230228D01*
X33723820Y30188908D01*
X33889495Y30179945D01*
X34046282Y30239687D01*
X34106608Y30287346D01*
X34153473Y30353862D01*
X34188188Y30447760D01*
X34212373Y30577751D01*
X34227645Y30752544D01*
X34235621Y30980850D01*
X34237920Y31271378D01*
X34237920Y31912850D01*
X34650528Y31912850D01*
X35063135Y31912850D01*
X35048019Y31069144D01*
X35043933Y30853611D01*
X35038599Y30632187D01*
X35032247Y30463198D01*
X35023891Y30336185D01*
X35012541Y30240687D01*
X34997209Y30166243D01*
X34976907Y30102393D01*
X34950646Y30038675D01*
X34862131Y29882755D01*
X34690885Y29700123D01*
X34471152Y29564341D01*
X34470158Y29563891D01*
X34297783Y29514666D01*
X34068038Y29497966D01*
X34007022Y29498681D01*
X33789749Y29522457D01*
X33606212Y29585494D01*
X33431651Y29695477D01*
X33314284Y29784997D01*
X33314284Y29658854D01*
X33314284Y29532710D01*
X32923515Y29532710D01*
X32532746Y29532710D01*
X32532746Y30722780D01*
X32532746Y31912850D01*
X32938610Y31912850D01*
X33344475Y31912850D01*
X33356023Y31211241D01*
G37*
G36*
X36404913Y31166836D02*
G01*
X36404913Y29532710D01*
X36014144Y29532710D01*
X35623375Y29532710D01*
X35623375Y31166836D01*
X35623375Y32800962D01*
X36014144Y32800962D01*
X36404913Y32800962D01*
X36404913Y31166836D01*
G37*
G36*
X24905713Y23429403D02*
G01*
X24986479Y23306758D01*
X25033527Y23247315D01*
X25129281Y23197696D01*
X25212850Y23153845D01*
X25288603Y23060150D01*
X25344837Y22957050D01*
X25409025Y22864127D01*
X25495848Y22770271D01*
X25629146Y22646522D01*
X25660838Y22622514D01*
X25706584Y22615466D01*
X25727841Y22612191D01*
X25831521Y22653297D01*
X25900906Y22684711D01*
X25978431Y22695312D01*
X26049245Y22655924D01*
X26093158Y22618688D01*
X26086349Y22604633D01*
X26000678Y22621006D01*
X25922948Y22635089D01*
X25887802Y22616492D01*
X25902942Y22541475D01*
X25934466Y22462418D01*
X25994368Y22363300D01*
X26012597Y22339074D01*
X26077144Y22235399D01*
X26147989Y22104292D01*
X26171290Y22062642D01*
X26279647Y21921539D01*
X26400725Y21816950D01*
X26426576Y21799764D01*
X26529434Y21705426D01*
X26584960Y21611816D01*
X26638478Y21523351D01*
X26750202Y21446574D01*
X26847574Y21384419D01*
X26888330Y21307046D01*
X26894900Y21261888D01*
X26930939Y21212093D01*
X26932853Y21209449D01*
X26958648Y21184533D01*
X26996703Y21084055D01*
X27001307Y21056621D01*
X27022468Y20930538D01*
X27030259Y20915825D01*
X27091320Y20896152D01*
X27164602Y20864711D01*
X27250851Y20773438D01*
X27319990Y20653016D01*
X27349720Y20534644D01*
X27352532Y20463658D01*
X27363660Y20448862D01*
X27394091Y20517903D01*
X27429057Y20575264D01*
X27508358Y20621549D01*
X27586260Y20595574D01*
X27589254Y20590699D01*
X27588883Y20522721D01*
X27563285Y20412181D01*
X27548876Y20371482D01*
X27490557Y20278522D01*
X27427995Y20255675D01*
X27377178Y20311585D01*
X27376767Y20312584D01*
X27359626Y20314616D01*
X27350434Y20242813D01*
X27361462Y20156605D01*
X27415586Y20116730D01*
X27447659Y20108742D01*
X27484359Y20047957D01*
X27490935Y20016451D01*
X27537924Y19990647D01*
X27581889Y19967718D01*
X27622124Y19882614D01*
X27646849Y19764663D01*
X27649868Y19644921D01*
X27624982Y19554441D01*
X27593608Y19453295D01*
X27600378Y19283183D01*
X27605243Y19248504D01*
X27612891Y19070859D01*
X27600211Y18893977D01*
X27591257Y18836682D01*
X27570901Y18746674D01*
X27546497Y18729236D01*
X27508003Y18770973D01*
X27466794Y18820758D01*
X27422951Y18825716D01*
X27350955Y18767950D01*
X27290873Y18686217D01*
X27255117Y18549166D01*
X27256963Y18518415D01*
X27296926Y18374060D01*
X27372381Y18232301D01*
X27461140Y18137473D01*
X27510449Y18100202D01*
X27603115Y18017147D01*
X27699443Y17921426D01*
X27775241Y17837423D01*
X27806317Y17789526D01*
X27828237Y17738928D01*
X27886552Y17652901D01*
X27941349Y17591229D01*
X28000459Y17576792D01*
X28095041Y17617451D01*
X28095644Y17617764D01*
X28202024Y17661935D01*
X28276756Y17674240D01*
X28321888Y17692157D01*
X28376134Y17767001D01*
X28423367Y17831183D01*
X28539542Y17870159D01*
X28668568Y17899636D01*
X28682866Y17907279D01*
X36775661Y17907279D01*
X36796396Y17720907D01*
X36872305Y17564629D01*
X36874726Y17561203D01*
X36950829Y17429768D01*
X37000422Y17303317D01*
X37009509Y17274859D01*
X37088758Y17135321D01*
X37220337Y16973778D01*
X37383616Y16811249D01*
X37557965Y16668754D01*
X37722756Y16567314D01*
X37810487Y16529831D01*
X38018032Y16463874D01*
X38212879Y16426018D01*
X38266173Y16420362D01*
X38305117Y16416229D01*
X38484217Y16396715D01*
X38625514Y16380716D01*
X38685622Y16378931D01*
X38854042Y16401807D01*
X39038150Y16454604D01*
X39130156Y16488116D01*
X39339753Y16562930D01*
X39529363Y16628941D01*
X39610194Y16660160D01*
X39789057Y16748406D01*
X39935093Y16843328D01*
X39939766Y16847004D01*
X40927058Y16847004D01*
X40992946Y16796672D01*
X41022836Y16783848D01*
X41043252Y16751397D01*
X40996188Y16688579D01*
X40952773Y16617774D01*
X40970644Y16526665D01*
X40991861Y16469777D01*
X40963357Y16379576D01*
X40950462Y16362604D01*
X40946398Y16317587D01*
X41021534Y16287059D01*
X41038826Y16282366D01*
X41108980Y16237739D01*
X41111932Y16147625D01*
X41105152Y16090500D01*
X41124332Y16059149D01*
X41132405Y16045953D01*
X41226832Y16036224D01*
X41346528Y16062229D01*
X41486705Y16150845D01*
X41503827Y16166344D01*
X41594282Y16236823D01*
X41653869Y16265466D01*
X41664196Y16266781D01*
X41697355Y16311315D01*
X41705114Y16332406D01*
X41766128Y16357163D01*
X41798200Y16349175D01*
X41834901Y16288390D01*
X41826912Y16256318D01*
X41766128Y16219618D01*
X41707169Y16198660D01*
X41711333Y16137446D01*
X41785425Y16051617D01*
X41816476Y16029621D01*
X41917395Y15985664D01*
X42028730Y15959867D01*
X42118778Y15957895D01*
X42155839Y15985415D01*
X42175101Y16014519D01*
X42251524Y16050552D01*
X42308500Y16079434D01*
X42331232Y16158531D01*
X42324773Y16182582D01*
X42268468Y16246551D01*
X42190555Y16240697D01*
X42122886Y16164161D01*
X42098686Y16121298D01*
X42078046Y16124541D01*
X42060328Y16195788D01*
X42040242Y16346727D01*
X42019618Y16484421D01*
X41992156Y16603721D01*
X41966408Y16658909D01*
X41951714Y16672469D01*
X41926597Y16746595D01*
X41914687Y16819928D01*
X41879989Y16932266D01*
X41859963Y16979994D01*
X41819665Y17024541D01*
X41765368Y16998410D01*
X41724889Y16973588D01*
X41697355Y16987695D01*
X41670172Y17017460D01*
X41585191Y17033427D01*
X41502897Y17048425D01*
X41398522Y17107930D01*
X41389544Y17116914D01*
X41335960Y17164178D01*
X41287381Y17172903D01*
X41217040Y17138493D01*
X41098169Y17056351D01*
X41044241Y17016444D01*
X40943609Y16918912D01*
X40927058Y16847004D01*
X39939766Y16847004D01*
X39974248Y16874126D01*
X40108194Y16975132D01*
X40219478Y17053467D01*
X40315847Y17122380D01*
X40477254Y17264666D01*
X40599668Y17407615D01*
X40637287Y17480448D01*
X41880749Y17480448D01*
X41903673Y17457524D01*
X41926597Y17480448D01*
X41903673Y17503372D01*
X41880749Y17480448D01*
X40637287Y17480448D01*
X40662334Y17528942D01*
X40700817Y17625259D01*
X40779956Y17742713D01*
X40873403Y17864641D01*
X40975938Y18112260D01*
X41009630Y18416429D01*
X41005426Y18545384D01*
X40989975Y18689093D01*
X40967069Y18776287D01*
X40966983Y18776448D01*
X40931347Y18859063D01*
X40878947Y18998705D01*
X40821095Y19165235D01*
X40760521Y19329745D01*
X40692314Y19455034D01*
X40596284Y19562564D01*
X40448039Y19686413D01*
X40234642Y19835130D01*
X40018295Y19938987D01*
X39771764Y20006793D01*
X39464806Y20049723D01*
X39259005Y20057869D01*
X38989298Y20045461D01*
X38712675Y20013759D01*
X38461899Y19966648D01*
X38279500Y19910993D01*
X38269737Y19908014D01*
X38225976Y19888579D01*
X38025175Y19778481D01*
X37801396Y19631003D01*
X37587203Y19468763D01*
X37415160Y19314383D01*
X37391554Y19288870D01*
X37273314Y19129755D01*
X37142192Y18911262D01*
X37011861Y18655719D01*
X36938811Y18489112D01*
X36905067Y18412152D01*
X36869326Y18306051D01*
X36811439Y18134207D01*
X36775661Y17907279D01*
X28682866Y17907279D01*
X28811883Y17976244D01*
X28916419Y18073819D01*
X28935743Y18119437D01*
X28950805Y18222439D01*
X28978285Y18303244D01*
X29072966Y18337060D01*
X29161567Y18365998D01*
X29179773Y18382668D01*
X30527612Y18382668D01*
X30602793Y18187741D01*
X30749533Y18033412D01*
X30830739Y17986460D01*
X30909087Y17961856D01*
X30983098Y18003731D01*
X31041452Y18118092D01*
X31077336Y18286149D01*
X31078835Y18328643D01*
X32160893Y18328643D01*
X32163066Y18275065D01*
X32191004Y18207615D01*
X32267873Y18191098D01*
X32269148Y18191103D01*
X32354172Y18224659D01*
X32377872Y18306051D01*
X32332423Y18408878D01*
X32324399Y18418581D01*
X32246140Y18467594D01*
X32185349Y18434673D01*
X32160893Y18328643D01*
X31078835Y18328643D01*
X31084497Y18489112D01*
X31083369Y18515187D01*
X31074893Y18692662D01*
X31064638Y18804130D01*
X31047063Y18872498D01*
X31016626Y18920676D01*
X30967785Y18971571D01*
X30919706Y19010554D01*
X30820842Y19029591D01*
X30718551Y18963115D01*
X30607276Y18808615D01*
X30527899Y18596890D01*
X30527612Y18382668D01*
X29179773Y18382668D01*
X29233435Y18431802D01*
X29258320Y18480862D01*
X29319625Y18592271D01*
X29346471Y18642448D01*
X29393745Y18752741D01*
X29414498Y18795687D01*
X29461187Y18832975D01*
X29479772Y18840693D01*
X29501688Y18901748D01*
X29490215Y18937552D01*
X29423745Y18970520D01*
X29376748Y18979742D01*
X29395920Y19020637D01*
X29458682Y19042745D01*
X29557757Y18997552D01*
X29644542Y18955224D01*
X29700203Y18955077D01*
X29725743Y18995332D01*
X29716047Y19072707D01*
X29642147Y19179019D01*
X29498029Y19325279D01*
X29441921Y19377898D01*
X29262959Y19546249D01*
X29139276Y19664154D01*
X29061463Y19741189D01*
X29020108Y19786933D01*
X29005802Y19810961D01*
X29009134Y19822852D01*
X29022516Y19825907D01*
X29094264Y19805049D01*
X29194400Y19758115D01*
X29288824Y19702263D01*
X29343442Y19654648D01*
X29346157Y19650852D01*
X29410621Y19602849D01*
X29517810Y19549422D01*
X29548437Y19535256D01*
X29686077Y19451769D01*
X29818345Y19347966D01*
X29944829Y19256302D01*
X30160683Y19183128D01*
X30178442Y19180755D01*
X30355494Y19155026D01*
X30521349Y19128151D01*
X30625542Y19118645D01*
X30700105Y19144769D01*
X30718275Y19220446D01*
X30681460Y19354295D01*
X30591067Y19554935D01*
X30564353Y19608520D01*
X30446941Y19821527D01*
X30993435Y19821527D01*
X30998124Y19726968D01*
X31026648Y19688636D01*
X31113993Y19660256D01*
X31214360Y19680595D01*
X31288161Y19746929D01*
X31309431Y19794001D01*
X31327164Y19910993D01*
X31294365Y19993263D01*
X31223922Y20022077D01*
X31128721Y19978700D01*
X31088028Y19953106D01*
X31057626Y19962109D01*
X31044970Y19962212D01*
X31013236Y19898899D01*
X30993435Y19821527D01*
X30446941Y19821527D01*
X30386323Y19931500D01*
X30218727Y20175432D01*
X30064336Y20336744D01*
X29925920Y20411867D01*
X29884768Y20424759D01*
X29757220Y20476414D01*
X29587189Y20553957D01*
X29399988Y20646113D01*
X29293101Y20699781D01*
X29131096Y20777245D01*
X29009379Y20830499D01*
X28948382Y20850304D01*
X28927145Y20856619D01*
X28847504Y20909754D01*
X28747425Y20999311D01*
X28692458Y21049034D01*
X28537243Y21163608D01*
X28373761Y21259408D01*
X28239926Y21331413D01*
X27910265Y21550509D01*
X27540666Y21849270D01*
X27429615Y21945591D01*
X27281845Y22072345D01*
X27181014Y22155442D01*
X27113182Y22205633D01*
X27064411Y22233669D01*
X27020764Y22250302D01*
X26971725Y22272146D01*
X26934179Y22313255D01*
X26913007Y22339654D01*
X26830097Y22399627D01*
X26705899Y22472972D01*
X26613806Y22527181D01*
X26490608Y22613548D01*
X26417368Y22683238D01*
X26338095Y22758746D01*
X26221550Y22827311D01*
X26107576Y22884572D01*
X26009563Y22948924D01*
X25945140Y22984941D01*
X25845566Y22965617D01*
X25753763Y22954169D01*
X25673359Y23003922D01*
X25632787Y23088811D01*
X25656745Y23180704D01*
X25685138Y23219353D01*
X25687767Y23231454D01*
X25630437Y23180919D01*
X25568875Y23139182D01*
X25495403Y23149252D01*
X25488174Y23155258D01*
X25407261Y23212186D01*
X25295099Y23282312D01*
X25236575Y23320266D01*
X25206557Y23349040D01*
X25558727Y23349040D01*
X25581651Y23326116D01*
X25604576Y23349040D01*
X25581651Y23371964D01*
X25558727Y23349040D01*
X25206557Y23349040D01*
X25159924Y23393741D01*
X25159350Y23444634D01*
X25237789Y23463661D01*
X25291115Y23472849D01*
X25329485Y23512599D01*
X25310242Y23537353D01*
X25232047Y23530611D01*
X25169516Y23519215D01*
X25166033Y23550532D01*
X25157129Y23594379D01*
X25080457Y23645276D01*
X24954779Y23688643D01*
X24802229Y23714506D01*
X24754693Y23720599D01*
X24678456Y23759510D01*
X24649518Y23854051D01*
X24634352Y23981643D01*
X24871627Y23953541D01*
X24988405Y23930211D01*
X25227697Y23845395D01*
X25501926Y23712164D01*
X25791772Y23540351D01*
X26064711Y23349040D01*
X26077915Y23339785D01*
X26107206Y23317421D01*
X26240058Y23214653D01*
X26338845Y23136084D01*
X26383998Y23097224D01*
X26385344Y23095804D01*
X26435176Y23053850D01*
X26541548Y22968790D01*
X26689834Y22852217D01*
X26865406Y22715721D01*
X27051095Y22571744D01*
X27233379Y22429769D01*
X27384751Y22311227D01*
X27484359Y22232399D01*
X27615703Y22132872D01*
X27826009Y21983686D01*
X28089446Y21804030D01*
X28392653Y21603001D01*
X28722265Y21389696D01*
X28789755Y21346501D01*
X29014374Y21202438D01*
X29242175Y21055971D01*
X29432915Y20932963D01*
X29472602Y20907604D01*
X29635726Y20809085D01*
X29776637Y20732248D01*
X29868475Y20691953D01*
X29899397Y20682029D01*
X30029155Y20632315D01*
X30173641Y20568966D01*
X30346707Y20495273D01*
X30600934Y20409347D01*
X30850553Y20347269D01*
X31075935Y20312756D01*
X31257453Y20309526D01*
X31375479Y20341298D01*
X31401573Y20388496D01*
X31390373Y20515735D01*
X31327416Y20715195D01*
X31213240Y20985267D01*
X31048378Y21324342D01*
X31026562Y21366978D01*
X30835602Y21720429D01*
X30657580Y22008711D01*
X30479149Y22251906D01*
X30286962Y22470097D01*
X30115837Y22641378D01*
X29969181Y22763347D01*
X29830783Y22840626D01*
X29675649Y22887014D01*
X29478787Y22916311D01*
X29417309Y22924063D01*
X29069191Y23008826D01*
X28781013Y23159863D01*
X28544443Y23382842D01*
X28351149Y23683430D01*
X28350467Y23684769D01*
X28280406Y23888217D01*
X28242003Y24139151D01*
X28236022Y24404483D01*
X28263223Y24651120D01*
X28324370Y24845974D01*
X28367303Y24925559D01*
X28563288Y25176846D01*
X28810326Y25354703D01*
X29099754Y25454205D01*
X29422906Y25470426D01*
X29491721Y25463193D01*
X29829323Y25374313D01*
X30135892Y25201919D01*
X30405426Y24950217D01*
X30631922Y24623413D01*
X30696190Y24503768D01*
X30754145Y24372229D01*
X30792343Y24237206D01*
X30818606Y24069319D01*
X30840760Y23839189D01*
X30863417Y23613413D01*
X30895797Y23416074D01*
X30940986Y23258505D01*
X31005271Y23112950D01*
X31031201Y23064459D01*
X31121411Y22910464D01*
X31246545Y22709456D01*
X31399523Y22471756D01*
X31573264Y22207685D01*
X31760687Y21927563D01*
X31954711Y21641710D01*
X32148254Y21360447D01*
X32334236Y21094096D01*
X32505575Y20852975D01*
X32655190Y20647407D01*
X32776001Y20487711D01*
X32860925Y20384208D01*
X32902883Y20347218D01*
X32950849Y20357356D01*
X33064829Y20404833D01*
X33200897Y20478249D01*
X33205282Y20480866D01*
X33334342Y20547575D01*
X33476133Y20596035D01*
X33656960Y20633298D01*
X33903132Y20666410D01*
X34033211Y20682032D01*
X34294866Y20719111D01*
X34489347Y20758562D01*
X34633982Y20805463D01*
X34746098Y20864895D01*
X34843023Y20941938D01*
X34879746Y20975062D01*
X35032085Y21089809D01*
X35173510Y21145930D01*
X35337158Y21157907D01*
X35355573Y21157749D01*
X35486166Y21175993D01*
X35574333Y21219446D01*
X35591759Y21248581D01*
X35635277Y21358986D01*
X35691815Y21531682D01*
X35755993Y21749810D01*
X35822428Y21996513D01*
X35853291Y22112834D01*
X35946654Y22440015D01*
X36057064Y22801472D01*
X36173239Y23160881D01*
X36283894Y23481920D01*
X36360893Y23701114D01*
X36441308Y23942209D01*
X36505117Y24147336D01*
X36547175Y24299845D01*
X36562337Y24383088D01*
X36560136Y24410055D01*
X36510291Y24544271D01*
X36405935Y24696700D01*
X36312957Y24810785D01*
X36176451Y24999702D01*
X36092694Y25160270D01*
X36051564Y25314449D01*
X36042937Y25484202D01*
X36044195Y25519128D01*
X36105178Y25851292D01*
X36253564Y26157269D01*
X36488270Y26434743D01*
X36539184Y26481622D01*
X36733222Y26630282D01*
X36932266Y26723944D01*
X37164082Y26772697D01*
X37456432Y26786633D01*
X37523471Y26785920D01*
X37774696Y26763183D01*
X37969457Y26699798D01*
X38133369Y26584043D01*
X38292046Y26404196D01*
X38326921Y26356328D01*
X38480345Y26060943D01*
X38559673Y25720094D01*
X38566529Y25327405D01*
X38549525Y25164031D01*
X38492856Y24935561D01*
X38389207Y24745807D01*
X38225002Y24572942D01*
X37986666Y24395142D01*
X37933696Y24359471D01*
X37741763Y24223531D01*
X37605786Y24107984D01*
X37506918Y23991559D01*
X37426314Y23852983D01*
X37345129Y23670983D01*
X37241476Y23389707D01*
X37139505Y23054879D01*
X37044509Y22689974D01*
X36961647Y22318135D01*
X36896074Y21962507D01*
X36852949Y21646234D01*
X36837428Y21392462D01*
X36837428Y21171357D01*
X37215677Y21188729D01*
X37342540Y21195929D01*
X37544689Y21217420D01*
X37720305Y21256236D01*
X37876442Y21319777D01*
X38020151Y21415445D01*
X38158482Y21550639D01*
X38298487Y21732760D01*
X38447218Y21969210D01*
X38611726Y22267389D01*
X38799062Y22634697D01*
X39016277Y23078535D01*
X39122198Y23295425D01*
X39293417Y23633609D01*
X39439364Y23900564D01*
X39566284Y24105076D01*
X39680422Y24255928D01*
X39788023Y24361906D01*
X39895332Y24431795D01*
X40008595Y24474380D01*
X40097343Y24494309D01*
X40221660Y24492863D01*
X40358374Y24440430D01*
X40433025Y24398654D01*
X40541726Y24308271D01*
X40632553Y24182118D01*
X40712642Y24006369D01*
X40789129Y23767197D01*
X40869149Y23450778D01*
X40934547Y23168801D01*
X41007694Y22840375D01*
X41063546Y22564051D01*
X41105178Y22318490D01*
X41135664Y22082352D01*
X41158079Y21834300D01*
X41175497Y21552992D01*
X41190994Y21217091D01*
X41192880Y21173405D01*
X41220871Y20695838D01*
X41259164Y20284812D01*
X41306897Y19946554D01*
X41363207Y19687286D01*
X41427230Y19513235D01*
X41443984Y19491474D01*
X41534124Y19427522D01*
X41662444Y19370694D01*
X41734045Y19345451D01*
X41817733Y19301427D01*
X41847779Y19239003D01*
X41846706Y19128584D01*
X41854871Y19024856D01*
X41906313Y18886766D01*
X41988436Y18782524D01*
X42083597Y18740996D01*
X42151822Y18722983D01*
X42255449Y18676784D01*
X42301886Y18655711D01*
X42445810Y18605829D01*
X42607529Y18563625D01*
X42689618Y18542852D01*
X42792986Y18500737D01*
X42898617Y18431528D01*
X42916146Y18416429D01*
X43026256Y18321583D01*
X43195645Y18157261D01*
X43298546Y18052724D01*
X43468412Y17872430D01*
X43619537Y17703321D01*
X43728176Y17571514D01*
X43797466Y17480448D01*
X43804326Y17471432D01*
X43931218Y17304624D01*
X44037731Y17164570D01*
X44070258Y17118845D01*
X44163964Y16957079D01*
X44227888Y16804116D01*
X44303024Y16648419D01*
X44417105Y16523965D01*
X44420445Y16521485D01*
X44520103Y16413474D01*
X44625291Y16249165D01*
X44670749Y16158531D01*
X44720110Y16060117D01*
X44788661Y15877892D01*
X44815045Y15734049D01*
X44826731Y15611681D01*
X44859594Y15466375D01*
X44877780Y15408667D01*
X44966706Y15115077D01*
X45030820Y14874217D01*
X45076222Y14657729D01*
X45109009Y14437257D01*
X45135279Y14184444D01*
X45156087Y13972908D01*
X45177690Y13788380D01*
X45197059Y13655889D01*
X45211644Y13595116D01*
X45222228Y13561228D01*
X45247395Y13447646D01*
X45281986Y13271107D01*
X45322906Y13047589D01*
X45367058Y12793069D01*
X45416470Y12513254D01*
X45468312Y12257993D01*
X45518373Y12061808D01*
X45571133Y11907458D01*
X45631077Y11777704D01*
X45694878Y11656565D01*
X45777495Y11499018D01*
X45838126Y11382614D01*
X45853789Y11349233D01*
X45906150Y11216140D01*
X45968992Y11035643D01*
X46031953Y10836916D01*
X46032895Y10833782D01*
X46081617Y10665285D01*
X46114226Y10526407D01*
X46132916Y10392914D01*
X46139881Y10240573D01*
X46137315Y10045147D01*
X46131912Y9901807D01*
X46127412Y9782404D01*
X46124613Y9715354D01*
X46115021Y9474568D01*
X46107266Y9262840D01*
X46102082Y9101021D01*
X46100205Y9009961D01*
X46087463Y8923433D01*
X46053679Y8883878D01*
X46035181Y8882115D01*
X46008961Y8843053D01*
X46053888Y8756780D01*
X46167572Y8628655D01*
X46223677Y8569942D01*
X46306167Y8454315D01*
X46321001Y8354669D01*
X46274852Y8247283D01*
X46253907Y8202577D01*
X46252022Y8112075D01*
X46295890Y7976601D01*
X46318991Y7917559D01*
X46345923Y7821185D01*
X46332323Y7752193D01*
X46275546Y7670860D01*
X46227111Y7589088D01*
X46205592Y7421097D01*
X46270848Y7233436D01*
X46422026Y7029847D01*
X46490854Y6949118D01*
X46599421Y6798167D01*
X46672052Y6666950D01*
X46679969Y6649071D01*
X46776006Y6507261D01*
X46936292Y6362402D01*
X47169066Y6208103D01*
X47482564Y6037970D01*
X47508386Y6024872D01*
X47675680Y5934977D01*
X47777232Y5865693D01*
X47829603Y5803301D01*
X47849351Y5734079D01*
X47849364Y5733966D01*
X47872146Y5650759D01*
X47933172Y5602986D01*
X48059060Y5569792D01*
X48124727Y5554525D01*
X48246000Y5497624D01*
X48322944Y5398438D01*
X48360300Y5344549D01*
X48471206Y5236677D01*
X48609253Y5139753D01*
X48776052Y5037964D01*
X49001124Y4870629D01*
X49169637Y4694214D01*
X49302117Y4489453D01*
X49362757Y4388800D01*
X49484857Y4230389D01*
X49604151Y4121199D01*
X49766669Y4012130D01*
X49766669Y1633925D01*
X49766669Y-744281D01*
X39133159Y-744281D01*
X28499649Y-744281D01*
X28524547Y-480653D01*
X28549622Y-319031D01*
X28600233Y-101902D01*
X28662993Y103914D01*
X28718339Y283523D01*
X28774348Y517455D01*
X28808124Y722867D01*
X28828758Y870268D01*
X28861241Y1023061D01*
X28895211Y1120287D01*
X28925298Y1221653D01*
X28922511Y1360716D01*
X28918776Y1385433D01*
X28922696Y1508945D01*
X28951871Y1636758D01*
X28996701Y1736895D01*
X29047589Y1777380D01*
X29050037Y1777457D01*
X29108754Y1820383D01*
X29157724Y1918007D01*
X29184261Y2034864D01*
X29175678Y2135484D01*
X29167209Y2165569D01*
X29170126Y2302514D01*
X29223477Y2502271D01*
X29245159Y2571081D01*
X29282378Y2739799D01*
X29296544Y2927357D01*
X29291290Y3169497D01*
X29286846Y3250201D01*
X29273466Y3425791D01*
X29258243Y3557227D01*
X29243682Y3620763D01*
X29229353Y3671408D01*
X29212162Y3791570D01*
X29198894Y3947960D01*
X29187692Y4096724D01*
X29156747Y4400570D01*
X29112730Y4759476D01*
X29058544Y5151745D01*
X28997088Y5555679D01*
X28931264Y5949582D01*
X28885068Y6218841D01*
X28838711Y6500013D01*
X28797965Y6757585D01*
X28768214Y6958246D01*
X28766883Y6967758D01*
X28730793Y7210057D01*
X28688651Y7471243D01*
X28649304Y7696395D01*
X28617186Y7902146D01*
X28599473Y8063781D01*
X30968836Y8063781D01*
X30972973Y8048237D01*
X31030242Y8003044D01*
X31119337Y7977692D01*
X31194499Y7987623D01*
X31211184Y7993943D01*
X31266388Y7967658D01*
X31299571Y7936164D01*
X31384450Y7926489D01*
X31457710Y7978372D01*
X31492097Y8048355D01*
X31494979Y8112566D01*
X31446786Y8119709D01*
X31390417Y8131567D01*
X31329329Y8214580D01*
X31280760Y8296575D01*
X31234482Y8333697D01*
X31227431Y8332761D01*
X31160050Y8291815D01*
X31074155Y8212673D01*
X31000249Y8126331D01*
X30968836Y8063781D01*
X28599473Y8063781D01*
X28593692Y8116532D01*
X28584720Y8288394D01*
X28581049Y8373811D01*
X28553171Y8583966D01*
X28506876Y8778906D01*
X28448288Y8931581D01*
X28359881Y9058934D01*
X28218415Y9177169D01*
X28109150Y9266849D01*
X28008321Y9381683D01*
X27906397Y9538686D01*
X27787345Y9759519D01*
X27643217Y10051258D01*
X27509422Y10356195D01*
X27410316Y10635959D01*
X27406887Y10649040D01*
X30189413Y10649040D01*
X30212337Y10626116D01*
X30235262Y10649040D01*
X30212337Y10671964D01*
X30189413Y10649040D01*
X27406887Y10649040D01*
X27354903Y10847366D01*
X30647897Y10847366D01*
X30649076Y10835418D01*
X30692275Y10813798D01*
X30796904Y10859030D01*
X30842367Y10902772D01*
X30877139Y11003173D01*
X30877106Y11019111D01*
X30870968Y11070327D01*
X30839677Y11062210D01*
X30762518Y10992903D01*
X30752508Y10983355D01*
X30678302Y10901543D01*
X30647897Y10847366D01*
X27354903Y10847366D01*
X27336380Y10918032D01*
X27278096Y11229897D01*
X27258681Y11351011D01*
X27220849Y11584688D01*
X27186086Y11796733D01*
X27160023Y11952677D01*
X27144191Y12087928D01*
X27130371Y12293638D01*
X27121014Y12535621D01*
X27118594Y12711219D01*
X27311832Y12711219D01*
X27319223Y12601288D01*
X27362556Y12440782D01*
X27397996Y12340745D01*
X27456328Y12212479D01*
X27506846Y12139475D01*
X27510550Y12136204D01*
X27564403Y12050334D01*
X27603080Y11927066D01*
X27656870Y11787559D01*
X27779685Y11674823D01*
X27953044Y11634780D01*
X28024636Y11625151D01*
X28075921Y11572474D01*
X28063671Y11467222D01*
X27988691Y11301867D01*
X27967164Y11260629D01*
X27917028Y11153676D01*
X27896994Y11092458D01*
X27906953Y11064972D01*
X27984124Y11021242D01*
X28119933Y10998025D01*
X28293081Y10997842D01*
X28482264Y11023213D01*
X28591881Y11046778D01*
X28774837Y11095849D01*
X28881372Y11144954D01*
X28921755Y11199995D01*
X28911310Y11245069D01*
X34315767Y11245069D01*
X34338691Y11222145D01*
X34361615Y11245069D01*
X34338691Y11267993D01*
X34315767Y11245069D01*
X28911310Y11245069D01*
X28906257Y11266875D01*
X28888895Y11305049D01*
X28900075Y11349802D01*
X28985909Y11372701D01*
X29048038Y11384414D01*
X29037582Y11392691D01*
X28940045Y11398669D01*
X28920305Y11399922D01*
X28824978Y11420490D01*
X28768242Y11453345D01*
X28765910Y11483818D01*
X28833796Y11497235D01*
X28877656Y11514609D01*
X28928598Y11588981D01*
X28932071Y11599110D01*
X29013033Y11703044D01*
X29144008Y11749172D01*
X29303177Y11734745D01*
X29468722Y11657015D01*
X29514137Y11618683D01*
X29500848Y11586133D01*
X29411411Y11543672D01*
X29402659Y11539959D01*
X29310404Y11487876D01*
X29272446Y11441795D01*
X29272571Y11439877D01*
X29314568Y11419084D01*
X29410736Y11422403D01*
X29530246Y11444289D01*
X29642269Y11479197D01*
X29715976Y11521581D01*
X29750619Y11552215D01*
X29833270Y11604882D01*
X29853274Y11624878D01*
X29974749Y11624878D01*
X29994558Y11604416D01*
X30017203Y11589962D01*
X30051868Y11516339D01*
X30058489Y11474299D01*
X30097050Y11457239D01*
X30180502Y11494615D01*
X30320680Y11589655D01*
X30356752Y11614958D01*
X30504185Y11693211D01*
X30616096Y11701684D01*
X30707235Y11703465D01*
X30830928Y11762719D01*
X30928948Y11863167D01*
X30968836Y11979265D01*
X30968117Y12004991D01*
X30938597Y12097376D01*
X30860889Y12117042D01*
X30728226Y12066441D01*
X30675313Y12038878D01*
X30542931Y11973157D01*
X30460958Y11943074D01*
X30406226Y11942287D01*
X30355566Y11964456D01*
X30353534Y11965577D01*
X30255073Y11989291D01*
X30174428Y11963478D01*
X30146388Y11899022D01*
X30147411Y11888729D01*
X30131999Y11772428D01*
X30080768Y11674323D01*
X30012134Y11631161D01*
X29974749Y11624878D01*
X29853274Y11624878D01*
X29866056Y11637655D01*
X29838564Y11682565D01*
X29763307Y11724125D01*
X29662660Y11750507D01*
X29558998Y11749882D01*
X29532122Y11745424D01*
X29434854Y11745210D01*
X29414403Y11776912D01*
X29468127Y11829588D01*
X29593384Y11892296D01*
X29640381Y11913126D01*
X29737938Y11973501D01*
X29776778Y12026147D01*
X29780031Y12041309D01*
X29831071Y12115403D01*
X29924387Y12202140D01*
X29958449Y12230809D01*
X30326958Y12230809D01*
X30327484Y12220433D01*
X30347177Y12184961D01*
X30354531Y12187071D01*
X30395731Y12230809D01*
X30402895Y12248569D01*
X30375513Y12276658D01*
X30362204Y12274896D01*
X30326958Y12230809D01*
X29958449Y12230809D01*
X29959370Y12231584D01*
X30025225Y12306857D01*
X30032731Y12354470D01*
X30014653Y12364809D01*
X29973953Y12336834D01*
X29942859Y12313277D01*
X29872882Y12359758D01*
X29815612Y12433197D01*
X29829662Y12487391D01*
X29928491Y12506906D01*
X29961184Y12510196D01*
X30083264Y12541975D01*
X30223799Y12596362D01*
X30289557Y12628727D01*
X30388869Y12702751D01*
X30418655Y12783653D01*
X30434574Y12853039D01*
X30494058Y12853562D01*
X30523951Y12848291D01*
X30618731Y12878700D01*
X30703123Y12952203D01*
X30739594Y13040262D01*
X30737714Y13059808D01*
X30695625Y13099068D01*
X30610598Y13076126D01*
X30499144Y12994150D01*
X30488616Y12984571D01*
X30362773Y12883508D01*
X30224879Y12788741D01*
X30123585Y12732735D01*
X30049609Y12719484D01*
X29982725Y12752667D01*
X29932282Y12795618D01*
X29934617Y12836740D01*
X30005177Y12900765D01*
X30032635Y12923445D01*
X30146715Y13021600D01*
X30269272Y13131113D01*
X30306134Y13165889D01*
X30370907Y13243562D01*
X30373857Y13296916D01*
X30307531Y13331160D01*
X30164479Y13351501D01*
X29937247Y13363146D01*
X29853516Y13365890D01*
X29640135Y13372723D01*
X29374715Y13381081D01*
X29083075Y13390155D01*
X28791038Y13399132D01*
X28593167Y13405864D01*
X28352491Y13416072D01*
X28153966Y13426825D01*
X28014099Y13437198D01*
X27949395Y13446267D01*
X27928757Y13451378D01*
X27814230Y13445231D01*
X27670486Y13408528D01*
X27537015Y13353515D01*
X27453305Y13292435D01*
X27412767Y13198162D01*
X27394120Y13069699D01*
X27379028Y12939858D01*
X27338855Y12804756D01*
X27338246Y12803413D01*
X27311832Y12711219D01*
X27118594Y12711219D01*
X27117572Y12785375D01*
X27126162Y13103753D01*
X27168777Y13539598D01*
X27177385Y13583336D01*
X30968836Y13583336D01*
X30991760Y13560412D01*
X31014684Y13583336D01*
X30991760Y13606260D01*
X30968836Y13583336D01*
X27177385Y13583336D01*
X27244660Y13925148D01*
X27351092Y14247771D01*
X27485356Y14494836D01*
X27557280Y14603913D01*
X27599024Y14712255D01*
X27588341Y14817289D01*
X27521840Y14942452D01*
X27396128Y15111179D01*
X27358989Y15162769D01*
X27262063Y15331897D01*
X27188098Y15505797D01*
X27163002Y15596385D01*
X27149453Y15685530D01*
X27745803Y15685530D01*
X27750033Y15625924D01*
X27781917Y15578245D01*
X27822916Y15522883D01*
X27851146Y15450304D01*
X27854381Y15417039D01*
X27872425Y15308999D01*
X27901026Y15166278D01*
X27930296Y15051388D01*
X27972298Y14965123D01*
X28024062Y14946241D01*
X28042657Y14946806D01*
X28106123Y14895164D01*
X28148580Y14762141D01*
X28167514Y14554600D01*
X28168227Y14536545D01*
X28187325Y14394612D01*
X28222180Y14286050D01*
X28248690Y14213440D01*
X28222180Y14142349D01*
X28189223Y14099252D01*
X28182302Y14006239D01*
X28262320Y13927981D01*
X28271467Y13923975D01*
X28365556Y13901545D01*
X28526995Y13876396D01*
X28735745Y13851319D01*
X28971767Y13829108D01*
X29002038Y13826652D01*
X29267169Y13807670D01*
X29470202Y13800299D01*
X29637508Y13805209D01*
X29795461Y13823074D01*
X29970430Y13854565D01*
X30270456Y13932503D01*
X30712709Y14119612D01*
X31108030Y14379788D01*
X31445319Y14706621D01*
X31561284Y14843246D01*
X31649210Y14948529D01*
X31706328Y15020634D01*
X31747899Y15078917D01*
X31789184Y15142733D01*
X31821520Y15193124D01*
X31836535Y15206561D01*
X31817387Y15142181D01*
X31808258Y15112430D01*
X31773893Y14990680D01*
X31735143Y14844167D01*
X31724732Y14807300D01*
X31654191Y14624636D01*
X31566317Y14459686D01*
X31430821Y14250130D01*
X31326392Y14082824D01*
X31262114Y13968988D01*
X31232107Y13896880D01*
X31230491Y13854761D01*
X31251386Y13830892D01*
X31282237Y13819575D01*
X31340854Y13843967D01*
X31407424Y13871768D01*
X31535642Y13862633D01*
X31732786Y13867676D01*
X31931369Y13954400D01*
X32106906Y14115872D01*
X32168029Y14180824D01*
X32275290Y14242022D01*
X32363083Y14225628D01*
X32417793Y14130978D01*
X32420329Y14024506D01*
X32349894Y13910244D01*
X32317581Y13870608D01*
X32259626Y13720251D01*
X32273270Y13583336D01*
X32275536Y13560598D01*
X32356459Y13410446D01*
X32493540Y13288590D01*
X32677928Y13213824D01*
X32763740Y13190951D01*
X32950353Y13120640D01*
X33112332Y13040262D01*
X33132883Y13030064D01*
X33283207Y12934044D01*
X33373207Y12847400D01*
X33381174Y12836265D01*
X33487465Y12749573D01*
X33639381Y12686273D01*
X33657389Y12681121D01*
X33793079Y12620372D01*
X33940561Y12511465D01*
X34119363Y12340325D01*
X34145453Y12313360D01*
X34204548Y12248569D01*
X34282041Y12163607D01*
X34354899Y12054068D01*
X34365706Y11979265D01*
X34367613Y11966063D01*
X34323768Y11880916D01*
X34226951Y11779948D01*
X34203225Y11757155D01*
X34163738Y11713718D01*
X34184826Y11722339D01*
X34256424Y11750245D01*
X34330559Y11705135D01*
X34380593Y11664289D01*
X34450037Y11634780D01*
X34484214Y11628107D01*
X34489352Y11579783D01*
X34418926Y11482685D01*
X34414637Y11477803D01*
X34369410Y11406718D01*
X34396002Y11372095D01*
X34433440Y11330353D01*
X34451184Y11245069D01*
X34453312Y11234841D01*
X34469212Y11148888D01*
X34522970Y11066698D01*
X34527438Y11063278D01*
X34549039Y11027416D01*
X34540001Y11003173D01*
X34528995Y10973654D01*
X34458342Y10887652D01*
X34328115Y10755074D01*
X34218788Y10649040D01*
X34167471Y10599268D01*
X33971664Y10413590D01*
X33795901Y10250775D01*
X33783010Y10238950D01*
X33641222Y10097329D01*
X33519582Y9956990D01*
X33443196Y9846694D01*
X33392897Y9769894D01*
X33286369Y9633629D01*
X33146241Y9469913D01*
X32989598Y9299364D01*
X32787378Y9073366D01*
X32622805Y8856637D01*
X32523167Y8680410D01*
X32450289Y8538847D01*
X32354112Y8405280D01*
X32256031Y8309593D01*
X32171049Y8266136D01*
X32114173Y8289260D01*
X32097629Y8308685D01*
X32032623Y8311208D01*
X31951395Y8236312D01*
X31876126Y8112566D01*
X31863177Y8091278D01*
X31840673Y8040023D01*
X31830025Y7938816D01*
X31894002Y7889302D01*
X32034810Y7888883D01*
X32121899Y7889581D01*
X32160893Y7867273D01*
X32164432Y7859085D01*
X32224727Y7838682D01*
X32335940Y7830936D01*
X32467085Y7835226D01*
X32587176Y7850927D01*
X32665225Y7877417D01*
X32685285Y7886146D01*
X32797982Y7901624D01*
X32986965Y7904568D01*
X33241536Y7894658D01*
X33359258Y7888295D01*
X33556810Y7881742D01*
X33687560Y7886082D01*
X33768241Y7902395D01*
X33815587Y7931764D01*
X33875572Y7982308D01*
X33984312Y8052979D01*
X34050063Y8103048D01*
X34086525Y8170765D01*
X34091807Y8195235D01*
X34150959Y8279471D01*
X34251833Y8369781D01*
X34364309Y8441819D01*
X34458269Y8471242D01*
X34511901Y8482640D01*
X34574277Y8540015D01*
X34602502Y8582405D01*
X34691533Y8604748D01*
X34817921Y8553659D01*
X34850541Y8537368D01*
X34927153Y8526766D01*
X35041978Y8545343D01*
X35218472Y8595554D01*
X35385375Y8645840D01*
X35591585Y8704723D01*
X35759991Y8749493D01*
X35842757Y8771226D01*
X35966640Y8808778D01*
X36035081Y8836586D01*
X36068846Y8853058D01*
X36174633Y8896897D01*
X36325771Y8955959D01*
X36497951Y9020967D01*
X36666865Y9082639D01*
X36808205Y9131699D01*
X36817857Y9135011D01*
X36866997Y9170014D01*
X36835365Y9230226D01*
X36802233Y9286581D01*
X36818656Y9342565D01*
X36908151Y9380682D01*
X37076696Y9403129D01*
X37330264Y9412101D01*
X37471210Y9412682D01*
X37641625Y9407648D01*
X37759225Y9391670D01*
X37848049Y9360697D01*
X37932134Y9310678D01*
X37962079Y9291355D01*
X38082835Y9229680D01*
X38175705Y9204816D01*
X38202709Y9206106D01*
X38365100Y9260859D01*
X38520018Y9380110D01*
X38648936Y9541554D01*
X38733328Y9722887D01*
X38754666Y9901807D01*
X38738457Y9998005D01*
X38692881Y10041839D01*
X38587892Y10045899D01*
X38514762Y10045235D01*
X38461398Y10063459D01*
X38468007Y10114672D01*
X38487748Y10172386D01*
X38495545Y10303237D01*
X38453960Y10400023D01*
X38375322Y10443816D01*
X38271961Y10415684D01*
X38242802Y10391027D01*
X38208505Y10307327D01*
X38206154Y10160366D01*
X38205035Y10040724D01*
X38169050Y9915722D01*
X38095732Y9866699D01*
X37989794Y9899337D01*
X37957989Y9917469D01*
X37884739Y9928165D01*
X37802808Y9871939D01*
X37751458Y9835455D01*
X37709770Y9838502D01*
X37714696Y9893271D01*
X37771711Y9980629D01*
X37790190Y10008655D01*
X37833937Y10122183D01*
X37865614Y10266775D01*
X37876267Y10348483D01*
X37875119Y10449616D01*
X37834888Y10520236D01*
X37741102Y10598954D01*
X37694721Y10630234D01*
X37532318Y10709457D01*
X37360646Y10762417D01*
X37219271Y10796901D01*
X37019771Y10856099D01*
X36823880Y10923107D01*
X36823266Y10923335D01*
X36649370Y10981480D01*
X36492679Y11022940D01*
X36387048Y11038751D01*
X36288105Y11060316D01*
X36183264Y11130448D01*
X36106421Y11188571D01*
X35948738Y11222145D01*
X35831971Y11238974D01*
X35766335Y11290918D01*
X35737765Y11328264D01*
X35651714Y11359690D01*
X35571307Y11385582D01*
X35533745Y11457128D01*
X35568718Y11539972D01*
X35581231Y11554691D01*
X35582998Y11608469D01*
X35509914Y11678909D01*
X35486663Y11697799D01*
X35428428Y11771110D01*
X35392775Y11880866D01*
X35369375Y12054683D01*
X35361307Y12190912D01*
X35363559Y12380697D01*
X35380235Y12528824D01*
X35385010Y12551820D01*
X35418432Y12731387D01*
X35446802Y12909728D01*
X35450769Y12938930D01*
X35458336Y13050959D01*
X35435984Y13106447D01*
X35374705Y13133335D01*
X35284832Y13189881D01*
X35206797Y13291149D01*
X35203358Y13297706D01*
X35145373Y13386323D01*
X35099359Y13422867D01*
X35080796Y13429824D01*
X35043228Y13494192D01*
X35025541Y13593314D01*
X35037255Y13686743D01*
X35045925Y13701634D01*
X35085631Y13702799D01*
X35158486Y13644313D01*
X35274823Y13518879D01*
X35373053Y13413362D01*
X35485547Y13326142D01*
X35575189Y13318423D01*
X35656902Y13391023D01*
X35745611Y13544765D01*
X35748425Y13550293D01*
X35841576Y13689087D01*
X35982929Y13851855D01*
X36147733Y14009966D01*
X36296935Y14141030D01*
X36416414Y14252306D01*
X36500193Y14342742D01*
X36566736Y14432512D01*
X36634510Y14541790D01*
X36713455Y14674973D01*
X36541937Y14647140D01*
X36514464Y14641615D01*
X36358040Y14584607D01*
X36212978Y14499220D01*
X36122106Y14433346D01*
X36049078Y14404001D01*
X35963888Y14412455D01*
X35829130Y14454334D01*
X35746864Y14479506D01*
X35610240Y14512026D01*
X35520887Y14521101D01*
X35451558Y14516739D01*
X35375028Y14535219D01*
X35325609Y14603214D01*
X35281189Y14741008D01*
X35230401Y14882665D01*
X35150370Y14990423D01*
X35014448Y15092559D01*
X34900546Y15162407D01*
X34804939Y15199675D01*
X34701809Y15201985D01*
X34550184Y15176769D01*
X34342919Y15135847D01*
X33907042Y15041044D01*
X33554461Y14949821D01*
X33279390Y14860394D01*
X33076041Y14770977D01*
X32938625Y14679785D01*
X32879007Y14648860D01*
X32762688Y14645981D01*
X32742811Y14651585D01*
X32688598Y14682587D01*
X32671580Y14747344D01*
X32681763Y14874011D01*
X32688814Y14925724D01*
X32711793Y15049014D01*
X32734216Y15119610D01*
X32744275Y15137740D01*
X32774488Y15228861D01*
X32780386Y15312097D01*
X32757933Y15348499D01*
X32757769Y15348500D01*
X32721185Y15388318D01*
X32688724Y15483428D01*
X32653317Y15574652D01*
X32596484Y15594332D01*
X32595928Y15594124D01*
X32531208Y15614949D01*
X32462804Y15707751D01*
X32388315Y15805080D01*
X32231352Y15898123D01*
X32149838Y15931425D01*
X32072180Y16003172D01*
X32051215Y16059149D01*
X36516489Y16059149D01*
X36539413Y16036224D01*
X36562337Y16059149D01*
X36539413Y16082073D01*
X36516489Y16059149D01*
X32051215Y16059149D01*
X32024237Y16131183D01*
X32021314Y16142432D01*
X31975586Y16315994D01*
X31930663Y16483246D01*
X31861390Y16648350D01*
X31768358Y16766664D01*
X36660357Y16766664D01*
X36711345Y16670782D01*
X36732215Y16647985D01*
X36823306Y16565727D01*
X36940586Y16473184D01*
X37044544Y16402366D01*
X37098018Y16385440D01*
X37112518Y16420362D01*
X37111079Y16432745D01*
X37069121Y16519108D01*
X36985949Y16630660D01*
X36884396Y16741905D01*
X36787293Y16827348D01*
X36717472Y16861495D01*
X36667416Y16838683D01*
X36660357Y16766664D01*
X31768358Y16766664D01*
X31712561Y16837625D01*
X31486106Y17021469D01*
X31175153Y17206461D01*
X30762518Y17424401D01*
X30181792Y17446264D01*
X30030166Y17451547D01*
X29820187Y17455036D01*
X29659441Y17448650D01*
X29520954Y17429498D01*
X29377753Y17394689D01*
X29202864Y17341331D01*
X29130500Y17317306D01*
X28940671Y17245417D01*
X28782074Y17173345D01*
X28683228Y17113589D01*
X28646210Y17084105D01*
X28513612Y16987783D01*
X28369622Y16892339D01*
X28269862Y16817584D01*
X28106078Y16616540D01*
X28014992Y16374697D01*
X28013988Y16369957D01*
X27983870Y16277888D01*
X27927050Y16134406D01*
X27854929Y15968446D01*
X27836676Y15927997D01*
X27773320Y15778933D01*
X27745803Y15685530D01*
X27149453Y15685530D01*
X27145218Y15713398D01*
X27140122Y15855886D01*
X27148357Y16036816D01*
X27170571Y16269152D01*
X27207409Y16565863D01*
X27259516Y16939912D01*
X27266758Y16990816D01*
X27283247Y17132212D01*
X27283335Y17244204D01*
X27262445Y17355362D01*
X27216000Y17494254D01*
X27139422Y17689451D01*
X27120536Y17738175D01*
X27028898Y18013065D01*
X26945018Y18321625D01*
X26882139Y18616163D01*
X26880410Y18625891D01*
X26733929Y19219443D01*
X26508199Y19822969D01*
X26211061Y20418445D01*
X25850355Y20987849D01*
X25805695Y21056621D01*
X26154756Y21056621D01*
X26177680Y21033697D01*
X26200605Y21056621D01*
X26177680Y21079546D01*
X26154756Y21056621D01*
X25805695Y21056621D01*
X25650272Y21295960D01*
X26068937Y21295960D01*
X26093923Y21208217D01*
X26139191Y21106768D01*
X26165593Y21207732D01*
X26166679Y21212093D01*
X26165243Y21299083D01*
X26128491Y21349872D01*
X26075731Y21336742D01*
X26068937Y21295960D01*
X25650272Y21295960D01*
X25646524Y21301732D01*
X25427083Y21707667D01*
X25259298Y22101412D01*
X25213108Y22220144D01*
X25118819Y22438168D01*
X25036111Y22615466D01*
X25512879Y22615466D01*
X25535803Y22592542D01*
X25558727Y22615466D01*
X25535803Y22638390D01*
X25512879Y22615466D01*
X25036111Y22615466D01*
X25006306Y22679357D01*
X24891005Y22909831D01*
X24799590Y23090935D01*
X24717690Y23265785D01*
X24662188Y23399148D01*
X24641760Y23471473D01*
X24646538Y23486585D01*
X24733457Y23486585D01*
X24756381Y23463661D01*
X24779305Y23486585D01*
X24756381Y23509510D01*
X24733457Y23486585D01*
X24646538Y23486585D01*
X24663041Y23538776D01*
X24725983Y23554018D01*
X24812877Y23514692D01*
X24843471Y23486585D01*
X24905713Y23429403D01*
G37*
G36*
X27862051Y18362226D02*
G01*
X27966735Y18310680D01*
X27995415Y18288499D01*
X28028244Y18235483D01*
X27988552Y18168006D01*
X27938153Y18119241D01*
X27829814Y18051330D01*
X27771148Y18027906D01*
X27725063Y18010611D01*
X27722478Y18014690D01*
X27716138Y18076998D01*
X27713601Y18191098D01*
X27717461Y18283398D01*
X27741542Y18355432D01*
X27796535Y18374492D01*
X27862051Y18362226D01*
G37*
G36*
X29101994Y18648269D02*
G01*
X29134901Y18603733D01*
X29126153Y18581822D01*
X29063422Y18557885D01*
X29030673Y18564483D01*
X29020280Y18603733D01*
X29029664Y18616255D01*
X29091758Y18649582D01*
X29101994Y18648269D01*
G37*
G36*
X30021236Y19484721D02*
G01*
X30026986Y19425836D01*
X30014981Y19408249D01*
X29975281Y19388391D01*
X29960171Y19454634D01*
X29966896Y19487353D01*
X30006768Y19497315D01*
X30021236Y19484721D01*
G37*
G36*
X27835528Y20417550D02*
G01*
X27971505Y20378854D01*
X28021425Y20360671D01*
X28123001Y20330656D01*
X28176830Y20336059D01*
X28210341Y20376625D01*
X28224820Y20399389D01*
X28273488Y20424264D01*
X28360217Y20391140D01*
X28392039Y20373761D01*
X28506382Y20298132D01*
X28594980Y20221656D01*
X28630579Y20166934D01*
X28624152Y20161434D01*
X28553571Y20150970D01*
X28423718Y20145890D01*
X28257930Y20145734D01*
X28079543Y20150045D01*
X27911891Y20158364D01*
X27778311Y20170231D01*
X27702139Y20185188D01*
X27682922Y20195183D01*
X27629454Y20269870D01*
X27633952Y20360228D01*
X27697284Y20423624D01*
X27725791Y20428732D01*
X27835528Y20417550D01*
G37*
G36*
X27828431Y20941662D02*
G01*
X27859924Y20910999D01*
X27960335Y20848550D01*
X28092234Y20783902D01*
X28221332Y20733242D01*
X28313336Y20712759D01*
X28354932Y20703928D01*
X28417907Y20643986D01*
X28420647Y20636090D01*
X28407871Y20588731D01*
X28319653Y20574511D01*
X28223707Y20564140D01*
X28128707Y20531862D01*
X28110661Y20523308D01*
X28021306Y20521651D01*
X27935409Y20558550D01*
X27896994Y20617697D01*
X27890605Y20630510D01*
X27825767Y20677201D01*
X27713601Y20730333D01*
X27617206Y20769791D01*
X27550302Y20807807D01*
X27536620Y20849136D01*
X27558037Y20915327D01*
X27574636Y20940472D01*
X27656865Y20980959D01*
X27757571Y20982924D01*
X27828431Y20941662D01*
G37*
G36*
X27085996Y21586868D02*
G01*
X27216461Y21458828D01*
X27245394Y21426901D01*
X27366912Y21310538D01*
X27501148Y21199747D01*
X27560835Y21152375D01*
X27629887Y21076638D01*
X27620588Y21032884D01*
X27604680Y21027814D01*
X27518339Y21043040D01*
X27403466Y21093416D01*
X27293118Y21162383D01*
X27220348Y21233382D01*
X27167402Y21284115D01*
X27069560Y21346020D01*
X27008302Y21383658D01*
X26912878Y21474965D01*
X26864724Y21568344D01*
X26879644Y21639379D01*
X26889486Y21647496D01*
X26972379Y21652237D01*
X27085996Y21586868D01*
G37*
G36*
X26307725Y22487547D02*
G01*
X26368181Y22423999D01*
X26396844Y22363134D01*
X26466845Y22260141D01*
X26508155Y22199765D01*
X26486737Y22183154D01*
X26394838Y22222408D01*
X26347365Y22245552D01*
X26231602Y22291042D01*
X26204900Y22303506D01*
X26164554Y22369206D01*
X26184212Y22445280D01*
X26258580Y22492245D01*
X26307725Y22487547D01*
G37*
G36*
X26063059Y22432073D02*
G01*
X26040135Y22409149D01*
X26017211Y22432073D01*
X26040135Y22454997D01*
X26063059Y22432073D01*
G37*
G36*
X25054395Y23486585D02*
G01*
X25031471Y23463661D01*
X25008547Y23486585D01*
X25031471Y23509510D01*
X25054395Y23486585D01*
G37*
G36*
X37719149Y9707387D02*
G01*
X37754395Y9663300D01*
X37753869Y9652924D01*
X37734177Y9617452D01*
X37726822Y9619562D01*
X37685623Y9663300D01*
X37678459Y9681060D01*
X37705841Y9709149D01*
X37719149Y9707387D01*
G37*
G36*
X28859810Y15096333D02*
G01*
X28836886Y15073408D01*
X28813962Y15096333D01*
X28836886Y15119257D01*
X28859810Y15096333D01*
G37*
G36*
X31974505Y15603080D02*
G01*
X31961023Y15518646D01*
X31921948Y15389727D01*
X31910117Y15358701D01*
X31873413Y15293435D01*
X31851565Y15305018D01*
X31850249Y15315143D01*
X31863586Y15411389D01*
X31905322Y15534260D01*
X31930579Y15587324D01*
X31963867Y15630236D01*
X31974505Y15603080D01*
G37*
G36*
X29098178Y15473814D02*
G01*
X29105632Y15417271D01*
X29086153Y15385481D01*
X29015374Y15348499D01*
X28985688Y15356431D01*
X28951507Y15417271D01*
X28968224Y15457036D01*
X29041765Y15486044D01*
X29098178Y15473814D01*
G37*
G36*
X31289774Y8081531D02*
G01*
X31266850Y8058607D01*
X31243926Y8081531D01*
X31266850Y8104455D01*
X31289774Y8081531D01*
G37*
G36*
X29601221Y12171437D02*
G01*
X29639233Y12121291D01*
X29638377Y12114143D01*
X29586546Y12063630D01*
X29473678Y12026563D01*
X29352136Y11985716D01*
X29284937Y11906839D01*
X29276955Y11880743D01*
X29229626Y11821016D01*
X29163743Y11850463D01*
X29111314Y11872347D01*
X29007936Y11884849D01*
X28924382Y11900714D01*
X28868753Y11967181D01*
X28867584Y11973850D01*
X28884736Y12031161D01*
X28972542Y12047416D01*
X28985344Y12047761D01*
X29114787Y12069970D01*
X29256593Y12116188D01*
X29353657Y12151463D01*
X29499747Y12181410D01*
X29601221Y12171437D01*
G37*
G36*
X29685081Y12345430D02*
G01*
X29662157Y12322506D01*
X29639233Y12345430D01*
X29662157Y12368354D01*
X29685081Y12345430D01*
G37*
G36*
X41605659Y16884419D02*
G01*
X41582734Y16861495D01*
X41559810Y16884419D01*
X41582734Y16907344D01*
X41605659Y16884419D01*
G37*
G36*
X40059090Y19099645D02*
G01*
X40156449Y19004179D01*
X40168875Y18982119D01*
X40217386Y18855997D01*
X40252756Y18706892D01*
X40260413Y18657405D01*
X40267608Y18560222D01*
X40244246Y18519977D01*
X40181290Y18512037D01*
X40175888Y18512240D01*
X40080401Y18551482D01*
X39962712Y18641473D01*
X39847765Y18757303D01*
X39760505Y18874061D01*
X39725875Y18966837D01*
X39750026Y19058396D01*
X39830142Y19124522D01*
X39941742Y19139015D01*
X40059090Y19099645D01*
G37*
%TD*%
%LPC*%
D12*
%TO.C,H2*%
X4414214Y3414213D03*
%TD*%
%TO.C,H3*%
X44414214Y3414213D03*
%TD*%
D13*
%TO.C,J11*%
X42866214Y55242213D03*
X42866214Y52702213D03*
X42866214Y50162213D03*
X42866214Y47622213D03*
X42866214Y45082213D03*
X42866214Y42542213D03*
X42866214Y40002213D03*
D14*
X42866214Y37462213D03*
%TD*%
D13*
%TO.C,J4*%
X46422214Y55242213D03*
X46422214Y52702213D03*
X46422214Y50162213D03*
X46422214Y47622213D03*
X46422214Y45082213D03*
X46422214Y42542213D03*
X46422214Y40002213D03*
D14*
X46422214Y37462213D03*
%TD*%
D12*
%TO.C,H1*%
X24414214Y55858213D03*
%TD*%
D13*
%TO.C,J10*%
X3232214Y9116213D03*
X5772214Y9116213D03*
X8312214Y9116213D03*
X10852214Y9116213D03*
X13392214Y9116213D03*
X15932214Y9116213D03*
X18472214Y9116213D03*
X21012214Y9116213D03*
D14*
X23552214Y9116213D03*
%TD*%
D13*
%TO.C,J3*%
X3232214Y12672213D03*
X5772214Y12672213D03*
X8312214Y12672213D03*
X10852214Y12672213D03*
X13392214Y12672213D03*
X15932214Y12672213D03*
X18472214Y12672213D03*
X21012214Y12672213D03*
D14*
X23552214Y12672213D03*
%TD*%
D13*
%TO.C,J12*%
X30702214Y37462213D03*
X30702214Y40002213D03*
X30702214Y42542213D03*
X30702214Y45082213D03*
D14*
X30702214Y47622213D03*
%TD*%
D13*
%TO.C,J9*%
X8322214Y19682213D03*
X8322214Y22222213D03*
X8322214Y24762213D03*
X8322214Y27302213D03*
X8322214Y29842213D03*
X8322214Y32382213D03*
X8322214Y34922213D03*
X8322214Y37462213D03*
X8322214Y40002213D03*
X8322214Y42542213D03*
X8322214Y45082213D03*
X8322214Y47622213D03*
X8322214Y50162213D03*
X8322214Y52702213D03*
D14*
X8322214Y55242213D03*
%TD*%
D13*
%TO.C,J8*%
X13402214Y19682213D03*
X13402214Y22222213D03*
X13402214Y24762213D03*
X13402214Y27302213D03*
X13402214Y29842213D03*
X13402214Y32382213D03*
X13402214Y34922213D03*
X13402214Y37462213D03*
X13402214Y40002213D03*
X13402214Y42542213D03*
X13402214Y45082213D03*
X13402214Y47622213D03*
X13402214Y50162213D03*
X13402214Y52702213D03*
D14*
X13402214Y55242213D03*
%TD*%
D13*
%TO.C,J7*%
X3242214Y19682213D03*
X3242214Y22222213D03*
X3242214Y24762213D03*
X3242214Y27302213D03*
X3242214Y29842213D03*
X3242214Y32382213D03*
X3242214Y34922213D03*
X3242214Y37462213D03*
X3242214Y40002213D03*
X3242214Y42542213D03*
X3242214Y45082213D03*
X3242214Y47622213D03*
X3242214Y50162213D03*
X3242214Y52702213D03*
D14*
X3242214Y55242213D03*
%TD*%
D13*
%TO.C,J6*%
X18482214Y19682213D03*
X18482214Y22222213D03*
X18482214Y24762213D03*
X18482214Y27302213D03*
X18482214Y29842213D03*
X18482214Y32382213D03*
X18482214Y34922213D03*
X18482214Y37462213D03*
X18482214Y40002213D03*
X18482214Y42542213D03*
X18482214Y45082213D03*
X18482214Y47622213D03*
X18482214Y50162213D03*
X18482214Y52702213D03*
D14*
X18482214Y55242213D03*
%TD*%
D13*
%TO.C,J5*%
X27118214Y37462213D03*
X27118214Y40002213D03*
X27118214Y42542213D03*
X27118214Y45082213D03*
D14*
X27118214Y47622213D03*
%TD*%
D15*
%TO.C,J1*%
X36506214Y4925213D03*
X31426214Y4925213D03*
%TD*%
%LPD*%
M02*
