%TF.GenerationSoftware,KiCad,Pcbnew,9.0.7*%
%TF.CreationDate,2026-02-25T19:31:35+11:00*%
%TF.ProjectId,vibe-board-reborne,76696265-2d62-46f6-9172-642d7265626f,rev?*%
%TF.SameCoordinates,PX39c773aPY7b6b445*%
%TF.FileFunction,Paste,Top*%
%TF.FilePolarity,Positive*%
%FSLAX46Y46*%
G04 Gerber Fmt 4.6, Leading zero omitted, Abs format (unit mm)*
G04 Created by KiCad (PCBNEW 9.0.7) date 2026-02-25 19:31:35*
%MOMM*%
%LPD*%
G01*
G04 APERTURE LIST*
G04 Aperture macros list*
%AMRoundRect*
0 Rectangle with rounded corners*
0 $1 Rounding radius*
0 $2 $3 $4 $5 $6 $7 $8 $9 X,Y pos of 4 corners*
0 Add a 4 corners polygon primitive as box body*
4,1,4,$2,$3,$4,$5,$6,$7,$8,$9,$2,$3,0*
0 Add four circle primitives for the rounded corners*
1,1,$1+$1,$2,$3*
1,1,$1+$1,$4,$5*
1,1,$1+$1,$6,$7*
1,1,$1+$1,$8,$9*
0 Add four rect primitives between the rounded corners*
20,1,$1+$1,$2,$3,$4,$5,0*
20,1,$1+$1,$4,$5,$6,$7,0*
20,1,$1+$1,$6,$7,$8,$9,0*
20,1,$1+$1,$8,$9,$2,$3,0*%
G04 Aperture macros list end*
%ADD10C,0.010000*%
%ADD11RoundRect,0.160000X-0.160000X0.197500X-0.160000X-0.197500X0.160000X-0.197500X0.160000X0.197500X0*%
%ADD12RoundRect,0.250000X0.325000X1.100000X-0.325000X1.100000X-0.325000X-1.100000X0.325000X-1.100000X0*%
%ADD13RoundRect,0.250000X1.500000X-0.925000X1.500000X0.925000X-1.500000X0.925000X-1.500000X-0.925000X0*%
%ADD14R,0.240000X0.600000*%
%ADD15R,0.600000X0.240000*%
%ADD16RoundRect,0.160000X0.160000X-0.197500X0.160000X0.197500X-0.160000X0.197500X-0.160000X-0.197500X0*%
%ADD17RoundRect,0.160000X-0.197500X-0.160000X0.197500X-0.160000X0.197500X0.160000X-0.197500X0.160000X0*%
%ADD18RoundRect,0.155000X0.212500X0.155000X-0.212500X0.155000X-0.212500X-0.155000X0.212500X-0.155000X0*%
%ADD19RoundRect,0.155000X0.155000X-0.212500X0.155000X0.212500X-0.155000X0.212500X-0.155000X-0.212500X0*%
%ADD20RoundRect,0.155000X-0.155000X0.212500X-0.155000X-0.212500X0.155000X-0.212500X0.155000X0.212500X0*%
%ADD21RoundRect,0.250000X-0.325000X-1.100000X0.325000X-1.100000X0.325000X1.100000X-0.325000X1.100000X0*%
%ADD22RoundRect,0.250000X-1.100000X0.325000X-1.100000X-0.325000X1.100000X-0.325000X1.100000X0.325000X0*%
%ADD23RoundRect,0.070000X0.070000X0.305000X-0.070000X0.305000X-0.070000X-0.305000X0.070000X-0.305000X0*%
%ADD24RoundRect,0.070000X0.070000X0.355000X-0.070000X0.355000X-0.070000X-0.355000X0.070000X-0.355000X0*%
%ADD25RoundRect,0.200000X0.200000X-0.750000X0.200000X0.750000X-0.200000X0.750000X-0.200000X-0.750000X0*%
%ADD26RoundRect,0.200000X0.750000X0.200000X-0.750000X0.200000X-0.750000X-0.200000X0.750000X-0.200000X0*%
%ADD27RoundRect,0.160000X0.197500X0.160000X-0.197500X0.160000X-0.197500X-0.160000X0.197500X-0.160000X0*%
G04 APERTURE END LIST*
D10*
%TO.C,U2*%
X37111714Y22870213D02*
X36316714Y22870213D01*
X36316714Y23090213D01*
X37111714Y23090213D01*
X37111714Y22870213D01*
G36*
X37111714Y22870213D02*
G01*
X36316714Y22870213D01*
X36316714Y23090213D01*
X37111714Y23090213D01*
X37111714Y22870213D01*
G37*
X38101714Y22870213D02*
X37306714Y22870213D01*
X37306714Y23090213D01*
X38101714Y23090213D01*
X38101714Y22870213D01*
G36*
X38101714Y22870213D02*
G01*
X37306714Y22870213D01*
X37306714Y23090213D01*
X38101714Y23090213D01*
X38101714Y22870213D01*
G37*
X37111714Y23350213D02*
X36316714Y23350213D01*
X36316714Y23590213D01*
X37111714Y23590213D01*
X37111714Y23350213D01*
G36*
X37111714Y23350213D02*
G01*
X36316714Y23350213D01*
X36316714Y23590213D01*
X37111714Y23590213D01*
X37111714Y23350213D01*
G37*
X38101714Y23350213D02*
X37306714Y23350213D01*
X37306714Y23590213D01*
X38101714Y23590213D01*
X38101714Y23350213D01*
G36*
X38101714Y23350213D02*
G01*
X37306714Y23350213D01*
X37306714Y23590213D01*
X38101714Y23590213D01*
X38101714Y23350213D01*
G37*
X37111714Y23850213D02*
X36316714Y23850213D01*
X36316714Y24070213D01*
X37111714Y24070213D01*
X37111714Y23850213D01*
G36*
X37111714Y23850213D02*
G01*
X36316714Y23850213D01*
X36316714Y24070213D01*
X37111714Y24070213D01*
X37111714Y23850213D01*
G37*
X38101714Y23850213D02*
X37306714Y23850213D01*
X37306714Y24070213D01*
X38101714Y24070213D01*
X38101714Y23850213D01*
G36*
X38101714Y23850213D02*
G01*
X37306714Y23850213D01*
X37306714Y24070213D01*
X38101714Y24070213D01*
X38101714Y23850213D01*
G37*
%TD*%
D11*
%TO.C,R6*%
X40038214Y24870213D03*
X40038214Y26065213D03*
%TD*%
%TO.C,R8*%
X42070214Y26065213D03*
X42070214Y24870213D03*
%TD*%
D12*
%TO.C,C2*%
X39796214Y19406213D03*
X36846214Y19406213D03*
%TD*%
D11*
%TO.C,R9*%
X43086214Y26065213D03*
X43086214Y24870213D03*
%TD*%
D13*
%TO.C,L1*%
X32129214Y20445213D03*
X32129214Y26495213D03*
%TD*%
D14*
%TO.C,U2*%
X37014214Y22070213D03*
X37514214Y22070213D03*
X38014214Y22070213D03*
X38514214Y22070213D03*
D15*
X38914214Y22970213D03*
X38914214Y23470213D03*
X38914214Y23970213D03*
D14*
X38514214Y24870213D03*
X38014214Y24870213D03*
X37514214Y24870213D03*
X37014214Y24870213D03*
%TD*%
D16*
%TO.C,R7*%
X41054214Y24870213D03*
X41054214Y26065213D03*
%TD*%
D17*
%TO.C,R11*%
X21392014Y35583013D03*
X22587014Y35583013D03*
%TD*%
%TO.C,R10*%
X22536214Y41882213D03*
X21341214Y41882213D03*
%TD*%
D18*
%TO.C,C13*%
X21714714Y6830213D03*
X22849714Y6830213D03*
%TD*%
D19*
%TO.C,C11*%
X40580214Y39299713D03*
X40580214Y38164713D03*
%TD*%
D20*
%TO.C,C9*%
X32960214Y38164713D03*
X32960214Y39299713D03*
%TD*%
D19*
%TO.C,C6*%
X15942214Y23357213D03*
X15942214Y22222213D03*
%TD*%
D21*
%TO.C,C5*%
X41083214Y31474213D03*
X38133214Y31474213D03*
%TD*%
%TO.C,C3*%
X41083214Y28172213D03*
X38133214Y28172213D03*
%TD*%
D22*
%TO.C,C4*%
X26449214Y24948213D03*
X26449214Y21998213D03*
%TD*%
D17*
%TO.C,R4*%
X36595714Y13180213D03*
X35400714Y13180213D03*
%TD*%
D23*
%TO.C,U1*%
X33958214Y10700213D03*
X33458214Y10700213D03*
X32958214Y10700213D03*
X32958214Y11850213D03*
X33458214Y11850213D03*
D24*
X33958214Y11800213D03*
%TD*%
D25*
%TO.C,Q1*%
X30410214Y14299213D03*
X31360214Y11299213D03*
X29460214Y11299213D03*
%TD*%
D26*
%TO.C,Q2*%
X32950214Y15847213D03*
X35950214Y16797213D03*
X35950214Y14897213D03*
%TD*%
D18*
%TO.C,C1*%
X32890714Y9370213D03*
X34025714Y9370213D03*
%TD*%
D17*
%TO.C,R5*%
X36595714Y11910213D03*
X35400714Y11910213D03*
%TD*%
D27*
%TO.C,R2*%
X35400714Y10640213D03*
X36595714Y10640213D03*
%TD*%
%TO.C,R1*%
X35400714Y9370213D03*
X36595714Y9370213D03*
%TD*%
D17*
%TO.C,R3*%
X30640014Y9395613D03*
X29445014Y9395613D03*
%TD*%
M02*
